<svg xmlns="http://www.w3.org/2000/svg" xmlns:xlink="http://www.w3.org/1999/xlink" width="84" height="84" viewBox="0 0 84 84"><defs><clipPath id="a"><rect width="84" height="84" transform="translate(-0.301 -0.301)" fill="none"/></clipPath></defs><g transform="translate(0.186 0.186)"><g transform="translate(0.115 0.115)" clip-path="url(#a)"><path d="M57.989,19.545A38.444,38.444,0,1,1,19.545,57.989,38.444,38.444,0,0,1,57.989,19.545" transform="translate(-16.29 -16.29)" fill="#1e1f1f"/><path d="M392.837,270.843c.407,2.493-1.107,4.935-1.953,4.1s.13-1.974.153-4.312a11.219,11.219,0,0,0-.294-3.273,5.024,5.024,0,0,1,2.094,3.48" transform="translate(-325.397 -222.767)" fill="#fff"/><path d="M379.9,264.52c-.106.128-1.233,3.193-.986,4.388s1.585,2.493,1.867,0a7.505,7.505,0,0,0-.88-4.388" transform="translate(-315.677 -220.399)" fill="#fff"/><path d="M98.583,266.277c-.419,2.493,1.139,4.935,2.008,4.1s-.134-1.974-.158-4.312a10.924,10.924,0,0,1,.3-3.272,5.023,5.023,0,0,0-2.153,3.48" transform="translate(-82.084 -218.963)" fill="#fff"/><path d="M114.039,259.953c.109.128,1.267,3.193,1.014,4.388s-1.629,2.493-1.919,0a7.344,7.344,0,0,1,.905-4.388" transform="translate(-94.228 -216.593)" fill="#fff"/><path d="M165.251,93.085a.558.558,0,0,1,.122.406,2.908,2.908,0,0,1,.2.284.547.547,0,0,0,.1.264.408.408,0,0,0,.071.254,1.2,1.2,0,0,1,.152.314q.1.162.193.335a2.434,2.434,0,0,0,.233.355,1.774,1.774,0,0,1,.264.3.173.173,0,0,0,.081.071.568.568,0,0,1,.162.213.257.257,0,0,0,.122.142.255.255,0,0,1,.122.142c.068,0,.108.024.122.071s.068.091.162.132c.054.014.1.027.142.041a.248.248,0,0,0,.162-.021.041.041,0,0,0,.021.061q.041.02.224.081a.157.157,0,0,0,.132.031.251.251,0,0,1,.132.01.319.319,0,0,1,.114.023q.078.123.173.3a.855.855,0,0,0,.051.173.354.354,0,0,0,.071.112.174.174,0,0,1,.051.081c.007.027.031.095.071.2q.041,0,.162.2a.74.74,0,0,1,.223.264.187.187,0,0,0,.081.051c.027.007.054.071.081.193q.1.041.244.325a.711.711,0,0,1,.274.243.666.666,0,0,0,.355.244.174.174,0,0,1,.021.081c0,.027.048.088.142.183a.135.135,0,0,1,.061.01.881.881,0,0,1,.122.132.674.674,0,0,1,.142.051,1.587,1.587,0,0,1,.264.233.292.292,0,0,1,.213.031,1.011,1.011,0,0,1,.132.112.082.082,0,0,0,.061-.021q.02-.02.162.1a.561.561,0,0,0,.345-.02.812.812,0,0,0,.081.071.575.575,0,0,1,.1.233.255.255,0,0,1,.152.051.45.45,0,0,0,.173.071.229.229,0,0,0,.162.021.169.169,0,0,1,.142.02c.027-.014.058-.027.091-.041s.112.013.233.081c.055,0,.088-.014.1-.041s.061,0,.142.081a.206.206,0,0,1,.132,0c.021.014.058.041.112.081a.167.167,0,0,1,.173-.031.316.316,0,0,0,.173.01,2.532,2.532,0,0,1,.264.041c.027-.014.058-.027.091-.041a.529.529,0,0,1,.213,0,.793.793,0,0,1,.112.01,1.124,1.124,0,0,0,.152.01l.142-.01a1.328,1.328,0,0,0,.2-.031,1.829,1.829,0,0,1,.771,0,.861.861,0,0,0,.254-.041c.088-.027.193-.054.314-.081a.553.553,0,0,1,.152.021.835.835,0,0,0,.295-.021.692.692,0,0,1,.071.041c.02.014.1,0,.233-.041a1.049,1.049,0,0,1,.152.01.607.607,0,0,0,.274-.091.417.417,0,0,0,.193.051l.355.031a.639.639,0,0,0,.01.264.105.105,0,0,1-.071.142c.041.013.061.094.061.243l.061.3a.234.234,0,0,1-.01.071,1.191,1.191,0,0,0,.031.274.207.207,0,0,0,.061.071c.027.02.034.112.02.274a.213.213,0,0,1,.1.173,1.109,1.109,0,0,0,.081.274q.041.02.041.041t.122.142a1.234,1.234,0,0,1,.081.264q.081.02.264.284c0,.054.014.088.041.1s.041.054.041.122a.2.2,0,0,1,.081.091,2.839,2.839,0,0,0,.142.254.063.063,0,0,1,.071.051.98.98,0,0,0,.193.254.223.223,0,0,1,.152.1.4.4,0,0,0,.112.122,1.38,1.38,0,0,1,.345.223.206.206,0,0,1,.081.01c.014.006.074.044.183.112a.268.268,0,0,0,.152.041.147.147,0,0,1,.132.061.234.234,0,0,0,.071-.01c.02-.007.071.044.152.152a.308.308,0,0,1,.294-.02,2.015,2.015,0,0,0,.437.081c.081.014.162.024.243.031s.2.023.345.051a.065.065,0,0,1,.081-.051,1.478,1.478,0,0,0,.2.01.761.761,0,0,1,.314-.02,1.184,1.184,0,0,0,.457-.061.221.221,0,0,1,.071.01,1.2,1.2,0,0,0,.254-.01,1.552,1.552,0,0,0,.193-.051.219.219,0,0,0,.132-.112c.027.054.064.064.112.031s.085-.037.112-.01c.027-.041.051-.061.071-.061a.983.983,0,0,0,.233-.183.082.082,0,0,0,.051-.01c.007-.007.071-.058.193-.152a.469.469,0,0,0,.071-.091.16.16,0,0,1,.091-.071.8.8,0,0,1,.041-.274q.041-.112.1-.335a.434.434,0,0,1-.041-.223.3.3,0,0,0-.021-.112.287.287,0,0,1-.021-.112,2.133,2.133,0,0,1-.021-.264.767.767,0,0,0-.081-.285,1.193,1.193,0,0,1-.081-.264.287.287,0,0,1-.132-.193.431.431,0,0,0-.112-.213.228.228,0,0,0-.01-.071c-.007-.02-.031-.071-.071-.152a.248.248,0,0,0-.021-.091c-.014-.034-.041-.112-.081-.233-.027,0-.081-.068-.162-.2a.611.611,0,0,1-.193-.2,1.5,1.5,0,0,0-.233-.285c-.041-.041-.081-.078-.122-.112a.7.7,0,0,1-.142-.233c-.041.014-.068.007-.081-.02a1.182,1.182,0,0,0-.223-.2,1.209,1.209,0,0,0-.122-.071.173.173,0,0,1-.081-.132l0,0a.389.389,0,0,1,.346,0,.356.356,0,0,0,.122-.051.557.557,0,0,1,.284.01,1.477,1.477,0,0,0,.2-.1.71.71,0,0,1,.426,0,.18.18,0,0,1,.173-.061.323.323,0,0,0,.193-.02.951.951,0,0,1,.091-.081,2.322,2.322,0,0,1,.294-.162.839.839,0,0,0,.162-.162.272.272,0,0,1-.02-.3.861.861,0,0,1-.122-.1.139.139,0,0,1-.02-.162,1.186,1.186,0,0,1-.061-.193c-.014-.061-.034-.139-.061-.233a.091.091,0,0,1-.051-.061c-.007-.028-.037-.122-.091-.284a.2.2,0,0,1-.081-.132.415.415,0,0,0-.122-.193l-.041-.081a.425.425,0,0,1-.02-.162.093.093,0,0,0-.051-.051c-.021-.007-.058-.064-.112-.173a1.446,1.446,0,0,0-.071-.183.464.464,0,0,0-.091-.122.471.471,0,0,0-.162-.193.205.205,0,0,0-.264.01.415.415,0,0,0-.021.213,1.749,1.749,0,0,1,.041.234.182.182,0,0,1,.1.122.786.786,0,0,0,.061.162q.061.122.183.406l-.081.223a.332.332,0,0,1-.142.162,1.429,1.429,0,0,1-.386.122h-.223a.208.208,0,0,1-.152.061.987.987,0,0,0-.193.02.526.526,0,0,0-.162.021.527.527,0,0,1-.162.021c-.041,0-.129.007-.264.021a.083.083,0,0,0-.061.02q-.02.02-.162,0c-.122,0-.241,0-.355.01s-.281.01-.5.01a.178.178,0,0,0-.091.031.7.7,0,0,1-.274.031.5.5,0,0,1-.091-.01.754.754,0,0,0-.233.031.181.181,0,0,1-.081-.021.7.7,0,0,0-.284.041.253.253,0,0,1-.142,0,.318.318,0,0,0-.1-.021.62.62,0,0,1-.193.071,1.04,1.04,0,0,1-.233.031,1.286,1.286,0,0,1-.173-.01.8.8,0,0,0-.112-.01.215.215,0,0,0-.112.031.274.274,0,0,1-.173.01.183.183,0,0,0-.122,0,.384.384,0,0,1-.194-.019c.005,0,.006.009,0,.019s-.085.021-.233.021c-.014,0-.027.01-.041.031s-.075.017-.183-.01a.1.1,0,0,0-.071.031c-.02.02-.112.01-.274-.031-.068.027-.132.054-.193.081a.428.428,0,0,1-.173.041.1.1,0,0,1-.041-.01.664.664,0,0,0-.2.031.486.486,0,0,1-.091-.01.5.5,0,0,0-.193.031c-.027,0-.041,0-.041-.01a.922.922,0,0,0-.223-.01.421.421,0,0,1-.243.041.459.459,0,0,0-.162-.01,1.083,1.083,0,0,1-.243-.01.331.331,0,0,0-.1.02.383.383,0,0,1-.122.021.591.591,0,0,1-.112-.01.761.761,0,0,0-.233.031.234.234,0,0,1-.071-.01.606.606,0,0,0-.213.051c-.027-.068-.068-.085-.122-.051a.074.074,0,0,1-.122-.031.383.383,0,0,1-.223.021,1.651,1.651,0,0,0-.406.051.456.456,0,0,1-.345-.031q-.019.041-.243,0c-.054.054-.169.068-.345.041a.708.708,0,0,1-.254.031c-.074-.007-.186-.01-.335-.01a.6.6,0,0,1-.193-.031,1.2,1.2,0,0,0-.376-.01.151.151,0,0,0-.112-.041.416.416,0,0,1-.132-.021q-.142-.02-.254-.041a1.193,1.193,0,0,0-.213-.02.22.22,0,0,0-.152-.081.19.19,0,0,1-.152-.122A.4.4,0,0,1,171,98.59l-.162-.081-.183-.071-.183-.071a2.83,2.83,0,0,1-.549-.426.187.187,0,0,1-.051.02,1.291,1.291,0,0,1-.132-.2.122.122,0,0,1-.091-.031.445.445,0,0,1-.071-.152.669.669,0,0,1-.3-.243.07.07,0,0,0-.031-.061.645.645,0,0,1-.112-.142l-.122-.223c-.081-.081-.156-.162-.223-.243a.119.119,0,0,0-.051-.112l0,0h0a.174.174,0,0,1,.152.01.082.082,0,0,1,.081-.041.841.841,0,0,0,.264-.1l.081-.081a.549.549,0,0,1,.223-.081c.068-.054.142-.115.224-.183a.49.49,0,0,0,.162-.264.079.079,0,0,0,.091-.071,1.212,1.212,0,0,1,.051-.193.139.139,0,0,0,.041-.1,1.7,1.7,0,0,1,.081-.325.334.334,0,0,1-.051-.132.8.8,0,0,0-.031-.132.19.19,0,0,0,.02-.152.193.193,0,0,1,.021-.152.969.969,0,0,1-.162-.3q-.061,0-.122-.243a.193.193,0,0,0-.112-.081.4.4,0,0,1-.173-.162c0-.041-.014-.065-.041-.071s-.074-.058-.142-.152a.349.349,0,0,1-.051-.061c-.007-.014-.037-.068-.091-.162a.252.252,0,0,0-.091.021c-.034.014-.058.095-.071.244a.671.671,0,0,1-.021.162c-.014.054.027.142.122.264a.153.153,0,0,0,0,.152.3.3,0,0,1,.041.152.249.249,0,0,1-.041.142.17.17,0,0,0,0,.162c-.054,0-.078.021-.071.061s-.051.088-.173.142a.249.249,0,0,1-.132.142.574.574,0,0,0-.173.122.138.138,0,0,0-.183-.021c-.054.041-.1.075-.142.1l-.031.018c0-.024,0-.05-.005-.077a.218.218,0,0,0,.031-.152.481.481,0,0,1,.01-.173.16.16,0,0,0-.071-.091c-.034-.021-.044-.065-.031-.132a.364.364,0,0,0-.132.021.284.284,0,0,1-.112.021c-.027-.041-.054-.085-.081-.132s-.081-.058-.162-.031a.307.307,0,0,0-.031.173.3.3,0,0,1-.031.173.322.322,0,0,1,.031.183.429.429,0,0,0,.031.2c.005.015.011.03.018.046a.041.041,0,0,1-.043-.008c-.014-.014-.074-.007-.183.021a.056.056,0,0,1-.071-.01.818.818,0,0,0-.233-.091.166.166,0,0,1-.091-.021,1.018,1.018,0,0,0-.233-.061.182.182,0,0,1-.051-.081c-.007-.027-.084-.068-.233-.122-.014-.014-.061-.075-.142-.183a1.142,1.142,0,0,1-.081-.091,1.683,1.683,0,0,1-.142-.294.386.386,0,0,1-.031-.112.379.379,0,0,0-.031-.112,2.768,2.768,0,0,0-.021-.285.691.691,0,0,0-.041-.071.266.266,0,0,1,0-.152l-.041-.162a.536.536,0,0,1,.041-.264.153.153,0,0,1-.01-.142,1.2,1.2,0,0,1,.071-.122,1.08,1.08,0,0,1,.061-.528.036.036,0,0,0,.041-.041.5.5,0,0,1,.1-.183c.055-.109.1-.206.142-.295a2.55,2.55,0,0,1,.284-.416.312.312,0,0,1,.1-.122,2.985,2.985,0,0,0,.243-.2.114.114,0,0,1,.061-.112.4.4,0,0,0,.1-.071.225.225,0,0,1,.2-.122.367.367,0,0,1,.244-.244.48.48,0,0,0,.061-.071,1.353,1.353,0,0,1,.162-.152,2.528,2.528,0,0,0,.2-.162.311.311,0,0,0,.122-.1c.028-.041.1-.068.223-.081a.122.122,0,0,1,.081-.081,1.162,1.162,0,0,0,.243-.162c0,.027.014.031.041.01s.108-.071.243-.152a.2.2,0,0,0,.122-.031,2.564,2.564,0,0,1,.223-.132.25.25,0,0,0,.061-.112c.013-.048.075-.037.183.031.068.013.108,0,.122-.031s.048-.051.1-.051a.057.057,0,0,0,.02-.041c0-.014.068-.021.2-.021a.128.128,0,0,1,.091-.1,1.965,1.965,0,0,0,.213-.081,1.707,1.707,0,0,0,.173-.1l.152-.1a.162.162,0,0,0,.1-.031.144.144,0,0,1,.122-.01c.027-.1.115-.129.264-.1l.071-.071a.783.783,0,0,1,.274-.071,1.294,1.294,0,0,1,.386-.223l.243-.061a.582.582,0,0,1,.183-.183.837.837,0,0,0,.1.041q.061.02.183-.081c.068.027.112.014.132-.041a.163.163,0,0,1,.132-.1c.054.027.092.027.112,0a.71.71,0,0,1,.233-.122c.041.054.068.061.081.021s.108-.081.284-.122c.041.027.071.024.091-.01s.071-.037.152-.01c.027-.108.115-.149.264-.122a.1.1,0,0,0,.071-.071c.007-.034.071-.024.193.031a.708.708,0,0,0,.325-.1.62.62,0,0,1,.345-.081.181.181,0,0,1,.122-.1,1.287,1.287,0,0,0,.264-.122,1.849,1.849,0,0,1,.366-.081.493.493,0,0,1,.152-.051.835.835,0,0,0,.274-.173.067.067,0,0,0,.091.01,1.014,1.014,0,0,1,.254-.071.191.191,0,0,1,.122-.031.75.75,0,0,0,.2-.01.13.13,0,0,0,.152-.021.194.194,0,0,1,.173-.041q.061-.1.285-.081a.319.319,0,0,1,.132-.041.806.806,0,0,0,.254-.122.389.389,0,0,1,.193-.031,2.985,2.985,0,0,1,.335.071.555.555,0,0,1,.355.152.4.4,0,0,0,.4.071q.08.021.243.223a.468.468,0,0,0,.132.061.182.182,0,0,1,.112.1c.027-.014.048-.011.061.01a.845.845,0,0,0,.2.132.154.154,0,0,1,.142.021.47.47,0,0,0,.122.081.087.087,0,0,1,.112,0,1.9,1.9,0,0,0,.254.142c.081-.014.129,0,.142.051s.074.092.183.132c.014-.014.051-.017.112-.01a.2.2,0,0,1,.152.112q.1-.041.122,0c.014.027.061.048.142.061,0,.041.016.064.051.071a1.225,1.225,0,0,1,.193.071.183.183,0,0,0,.173.112,1.344,1.344,0,0,1,.315.071,1.157,1.157,0,0,0,.548.345c.068-.014.1,0,.112.031s.051.078.132.132a.513.513,0,0,1,.183.031c.053.021.108.044.162.071l.162.081a1.245,1.245,0,0,0,.264.081.294.294,0,0,0,.061.051c.013.007.094.064.243.173a.572.572,0,0,1,.173.061q.072.041.132.081a.115.115,0,0,1,.152.031,1.018,1.018,0,0,0,.173.173.556.556,0,0,1,.447.223.345.345,0,0,1,.173.041c.047.027.1.054.152.081a.292.292,0,0,1,.2.122.068.068,0,0,0,.061-.031c.014-.021.074.044.183.193a.227.227,0,0,1,.193.041.606.606,0,0,1,.112.122.433.433,0,0,1,.152.021.363.363,0,0,0,.132.021.552.552,0,0,0,.183.152c.068.034.2.1.386.213a.079.079,0,0,0,.051.081,1.26,1.26,0,0,1,.152.081.281.281,0,0,0,.112.122.281.281,0,0,1,.112.122c.068-.014.112-.006.132.021s.065.081.132.162a1.306,1.306,0,0,1,.285.285.543.543,0,0,1,.142.1.809.809,0,0,1,.1.122.172.172,0,0,1,.132.081.328.328,0,0,0,.152.122.316.316,0,0,0,.061.081c.027.027.081.075.162.142a.424.424,0,0,1,.1.091c.027.033.074.1.142.193a.1.1,0,0,1,.091.051.507.507,0,0,0,.193.132c-.014.068-.007.112.02.132a.363.363,0,0,1,.081.091c.027.014.044.014.051,0s.071.034.193.142a.155.155,0,0,1,.071.081.43.43,0,0,0,.112.142c.014.027.011.048-.01.061s.031.054.152.122a.168.168,0,0,0,.081.152.559.559,0,0,1,.162.274,1.46,1.46,0,0,0,.162.264.577.577,0,0,1,.1.3.254.254,0,0,0,.041.061,1.236,1.236,0,0,1,.081.264c-.014.068-.007.108.021.122s.041.048.041.1a.3.3,0,0,0,.021.112,1.057,1.057,0,0,1,.041.213.766.766,0,0,1-.01.122.11.11,0,0,0,.031.1.26.26,0,0,0-.031.173.872.872,0,0,1-.071.335.134.134,0,0,1,0,.142.216.216,0,0,0,0,.183.328.328,0,0,0-.041.142.6.6,0,0,1-.021.142.7.7,0,0,1,.467.345.125.125,0,0,0,.021.071,1.127,1.127,0,0,0,.2.152.153.153,0,0,0,.142.122,1.085,1.085,0,0,1,.223.061.206.206,0,0,1,.051-.152.668.668,0,0,0,.091-.294V96.5a.285.285,0,0,0-.01-.112.6.6,0,0,1-.031-.152.2.2,0,0,0,.031-.142.138.138,0,0,1,.031-.122.551.551,0,0,1-.051-.264.921.921,0,0,0-.051-.325c0-.027,0-.044.01-.051a.5.5,0,0,0-.051-.173c0-.014-.014-.027-.041-.041a.465.465,0,0,1-.122-.142.1.1,0,0,0,.031-.091c-.007-.034-.017-.112-.031-.233-.068-.014-.105-.041-.112-.081a.627.627,0,0,0-.112-.2l-.1-.244a.8.8,0,0,0-.1-.183,2.148,2.148,0,0,1-.122-.183c0-.027-.007-.044-.02-.051a.632.632,0,0,1-.1-.152.732.732,0,0,0-.091-.112.278.278,0,0,1-.071-.132,1.153,1.153,0,0,0-.091-.081.925.925,0,0,1-.152-.2.068.068,0,0,0-.031-.061.733.733,0,0,1-.112-.223c-.054-.014-.085-.038-.091-.071a1.7,1.7,0,0,0-.152-.294.47.47,0,0,0-.091-.071.29.29,0,0,1-.091-.091.174.174,0,0,0-.051-.142c-.034-.027-.112-.081-.233-.162a.068.068,0,0,0-.031-.061,2.867,2.867,0,0,1-.213-.2l-.081-.081a1.033,1.033,0,0,1-.122-.183.6.6,0,0,1-.183-.142c-.028-.028-.1-.088-.223-.183-.041-.041-.081-.078-.122-.112a.75.75,0,0,0-.142-.091.693.693,0,0,0-.071-.091.826.826,0,0,1-.091-.132l-.223-.142a1.491,1.491,0,0,0-.132-.152,1.579,1.579,0,0,0-.274-.193c-.014-.068-.038-.108-.071-.122a.135.135,0,0,1-.071-.1c-.068-.027-.135-.058-.2-.091a2.028,2.028,0,0,1-.3-.213,1.35,1.35,0,0,0-.2-.2c-.014-.014-.024-.017-.031-.01a.821.821,0,0,1-.213-.112.352.352,0,0,0-.285-.162q0-.041-.264-.162c-.095-.068-.186-.129-.274-.183a1.257,1.257,0,0,1-.233-.183.32.32,0,0,1-.2-.051.247.247,0,0,0-.162-.051.638.638,0,0,0-.254-.152,1.612,1.612,0,0,1-.416-.254.7.7,0,0,1-.224-.1.365.365,0,0,0-.223-.061.309.309,0,0,0-.162-.112.213.213,0,0,1-.142-.132c-.027,0-.044.007-.051.021s-.078-.021-.213-.1a.36.36,0,0,1-.162-.031,1.179,1.179,0,0,1-.122-.071.49.49,0,0,0-.122-.061.2.2,0,0,1-.1-.081.188.188,0,0,1-.162-.031,1.478,1.478,0,0,0-.122-.091.562.562,0,0,1-.223-.1.068.068,0,0,1-.061-.031.52.52,0,0,0-.223-.071.467.467,0,0,1-.061-.071.522.522,0,0,0-.183-.091.208.208,0,0,1-.152-.051,1.145,1.145,0,0,0-.274-.152.345.345,0,0,1-.284-.1.372.372,0,0,0-.3-.1.522.522,0,0,0-.3-.162.383.383,0,0,0-.152-.091q-.092-.031-.335-.132a.249.249,0,0,0-.112-.061,1.25,1.25,0,0,1-.274-.162,1.662,1.662,0,0,1,.173-.061.947.947,0,0,0,.152-.061.43.43,0,0,0,.3-.031,1.893,1.893,0,0,1,.447-.132c0-.014.068-.061.2-.142a.223.223,0,0,0,.2-.01.122.122,0,0,1,.142-.01.2.2,0,0,1,.122-.051.319.319,0,0,1,.142.01.253.253,0,0,1,.122-.061.465.465,0,0,0,.142-.061.239.239,0,0,0,.294,0,1.714,1.714,0,0,1,.376-.2.545.545,0,0,0,.295,0,.472.472,0,0,1,.274,0q.1-.162.365-.081l.081-.041a.407.407,0,0,1,.162-.021c.054-.027.112-.058.173-.091a2.259,2.259,0,0,1,.335-.132.507.507,0,0,0,.122.061.518.518,0,0,0,.264-.061l.2-.1a.08.08,0,0,0,.112-.01.281.281,0,0,1,.112-.071.159.159,0,0,1,.112,0,.589.589,0,0,0,.274-.061.927.927,0,0,0,.467-.081.878.878,0,0,0,.284-.081.988.988,0,0,1,.345-.081.736.736,0,0,1,.081-.071.35.35,0,0,1,.122-.051.068.068,0,0,1,.061.031c.014.02.088.024.223.01a4.288,4.288,0,0,0,.406-.162.244.244,0,0,0,.162.021c.041-.014.129-.048.264-.1.027-.014.041-.026.041-.041s.068-.034.2-.061a.412.412,0,0,0,.223-.081c.068-.014.132-.024.193-.031a1.037,1.037,0,0,0,.274-.091c.054-.014.163-.034.325-.061a.71.71,0,0,0,.071-.041.794.794,0,0,1,.132-.061c0-.014.074-.034.223-.061a.138.138,0,0,1,.1-.041.6.6,0,0,0,.142-.021l.2-.1a.213.213,0,0,0,.162-.021,2.318,2.318,0,0,1,.223-.122.353.353,0,0,0,.224-.112,1.01,1.01,0,0,1,.406-.193.138.138,0,0,1,.091-.122,1.98,1.98,0,0,0,.213-.081l.005,0a.377.377,0,0,1,.264-.285.261.261,0,0,0,.061-.1,1.362,1.362,0,0,0,.041-.223.14.14,0,0,0,.122-.112.185.185,0,0,1,.1-.132.152.152,0,0,1,.051-.152.182.182,0,0,0,.051-.173.713.713,0,0,0,.122-.285l.02-.223a.2.2,0,0,0,.01-.162.153.153,0,0,1,.01-.142.38.38,0,0,1-.1-.223,1.08,1.08,0,0,1-.061-.213.449.449,0,0,0-.081-.193.308.308,0,0,0-.081-.162.493.493,0,0,1-.1-.223l-.041-.081a2.023,2.023,0,0,0-.2-.244l-.081-.223q-.142.02-.284-.183c0-.053-.01-.084-.031-.091a.711.711,0,0,1-.152-.173l-.071-.071a2.264,2.264,0,0,1-.152-.214.335.335,0,0,1-.254-.122,1.957,1.957,0,0,0-.315-.3c-.027-.014-.044-.011-.051.01s-.078-.01-.213-.091c-.014-.053-.038-.084-.071-.091a1.73,1.73,0,0,1-.213-.071.616.616,0,0,0-.2-.112c-.068-.02-.156-.051-.264-.091a.165.165,0,0,0-.122-.041.094.094,0,0,1-.1-.061.223.223,0,0,1-.173.01.89.89,0,0,0-.295-.031.245.245,0,0,1-.122.01,1.086,1.086,0,0,0-.244.01.694.694,0,0,0-.2.031c-.068.021-.169.044-.3.071a.108.108,0,0,0-.051.041.779.779,0,0,1-.254.061.135.135,0,0,1-.091.01,1.109,1.109,0,0,0-.274.031q.02.041-.041.041a.391.391,0,0,0-.183.081c-.027.041-.054.078-.081.112a.215.215,0,0,1-.122.071l-.142.243a.163.163,0,0,0-.01.1,1.446,1.446,0,0,1,.01.2.067.067,0,0,1,0,.071.879.879,0,0,0-.021.274.25.25,0,0,0,.041.142.1.1,0,0,1,0,.122c.041,0,.064.016.071.051a1.154,1.154,0,0,0,.112.233,1.022,1.022,0,0,1,.183.183.163.163,0,0,0,.1.132.389.389,0,0,1,.142.091.163.163,0,0,0,.1.132,1.06,1.06,0,0,1,.264.193l.112.112c.047.048.085.071.112.071a.414.414,0,0,0,.152.01,1.216,1.216,0,0,1,.173-.01l.041-.081c.014-.028-.014-.122-.081-.285q-.061.02-.183-.223c-.135.014-.213-.038-.233-.152a.789.789,0,0,1,.01-.335.291.291,0,0,0,.122-.2.618.618,0,0,0,.173-.1.3.3,0,0,1,.233-.041.513.513,0,0,1,.173-.05.843.843,0,0,0,.274-.112c.027-.014.048-.014.061,0s.081-.021.2-.1a.49.49,0,0,1,.223-.031,2.1,2.1,0,0,0,.345-.01.378.378,0,0,1,.152.031,2.879,2.879,0,0,0,.294.091l.081-.081c.027-.027.128.007.3.1a.065.065,0,0,0,.061.041.971.971,0,0,1,.264.162c.041.027.078.054.112.081a3.229,3.229,0,0,1,.233.244.8.8,0,0,1,.1.183l.081.2c0,.027.006.044.02.051a.606.606,0,0,1,.061.213.707.707,0,0,0,.021.132.516.516,0,0,1-.081.294.487.487,0,0,1-.071.295c-.048.061-.112.145-.193.254a.188.188,0,0,1-.031.162.247.247,0,0,0-.051.162.128.128,0,0,0-.132.071.364.364,0,0,1-.071.112l-.2.142a.6.6,0,0,0-.173.1,1.107,1.107,0,0,1-.335.142.363.363,0,0,0-.091.071.53.53,0,0,1-.233.091c-.028-.027-.048-.027-.061,0s-.081.061-.2.1a.419.419,0,0,1-.132.021.253.253,0,0,0-.112.021c-.068.027-.126.048-.173.061s-.159.054-.335.122a.152.152,0,0,0-.112,0,.217.217,0,0,1-.112.021,1.174,1.174,0,0,1-.091.081.346.346,0,0,1-.132.061.192.192,0,0,0-.173.031.283.283,0,0,1-.132.071.212.212,0,0,0-.173.031.173.173,0,0,1-.173.01.168.168,0,0,1-.142.091.127.127,0,0,0-.122.112.161.161,0,0,0-.122-.031c-.041.006-.129.024-.264.051-.027,0-.044.007-.051.021a.628.628,0,0,1-.233.041.458.458,0,0,0-.132.051.177.177,0,0,1-.091.031.35.35,0,0,0-.2.071,1.159,1.159,0,0,1-.386.132.617.617,0,0,0-.183.021,1.123,1.123,0,0,0-.142.061.179.179,0,0,1-.081.021.907.907,0,0,0-.183.041h-.112a.252.252,0,0,0-.112.021.133.133,0,0,0-.081.031.635.635,0,0,1-.162.071c-.041.014-.169.048-.386.1a.12.12,0,0,1-.081.01.853.853,0,0,0-.285.091.358.358,0,0,1-.112.021h-.173a.1.1,0,0,1-.091.031.364.364,0,0,0-.193.071.384.384,0,0,1-.122.021.218.218,0,0,0-.122.041,1.268,1.268,0,0,0-.132.031.151.151,0,0,1-.091-.01c-.014.027-.041.037-.081.031a.566.566,0,0,0-.264.112.274.274,0,0,0-.162.01.346.346,0,0,0-.142.071.964.964,0,0,1-.223.021.567.567,0,0,0-.173.061.6.6,0,0,1-.152.061.145.145,0,0,1-.061-.01.489.489,0,0,0-.183.051.452.452,0,0,1-.142.021.669.669,0,0,0-.162.021,2.158,2.158,0,0,0-.284.061.1.1,0,0,0-.071.031c-.021.02-.078.023-.173.01a.2.2,0,0,1-.142.041.654.654,0,0,0-.284.1.72.72,0,0,0-.376.051.882.882,0,0,1-.376.071.17.17,0,0,1-.162.071.423.423,0,0,0-.2.031.068.068,0,0,0-.061.031c-.014.02-.068.037-.162.051l-.173.041a1.547,1.547,0,0,0-.152.041,1.373,1.373,0,0,1-.223.061.251.251,0,0,1-.142.041,1.436,1.436,0,0,1-.3-.061.184.184,0,0,1-.142-.01c-.027-.02-.108-.071-.243-.152a2.45,2.45,0,0,1-.426-.2l-.122-.081a.443.443,0,0,0-.162-.061.156.156,0,0,0-.112-.071c-.048-.007-.1-.058-.152-.152l-.284-.081a.185.185,0,0,0-.132-.1.677.677,0,0,1-.213-.1,1.069,1.069,0,0,0-.366-.284l-.264-.1a.048.048,0,0,0-.041-.051,1.648,1.648,0,0,1-.244-.132c.014-.028-.053-.075-.2-.142a1.128,1.128,0,0,0-.183-.183c-.068-.055-.2-.149-.386-.285a.172.172,0,0,0-.081-.132.238.238,0,0,1-.1-.112.456.456,0,0,1-.3-.193.763.763,0,0,0-.3-.254c0-.068-.021-.108-.061-.122a.684.684,0,0,1-.183-.122.216.216,0,0,0-.122-.132.756.756,0,0,1-.223-.173.194.194,0,0,0-.091-.142.613.613,0,0,1-.173-.223c.027-.041.027-.075,0-.1l-.162-.162a.947.947,0,0,0-.162-.3,1.269,1.269,0,0,1-.1-.223V79.97c-.027-.068-.054-.132-.081-.193a1.53,1.53,0,0,1-.061-.416.467.467,0,0,1,.031-.243c.034-.095.078-.244.132-.447a1.625,1.625,0,0,0,.061-.233c.014-.074.027-.152.041-.233a1,1,0,0,1,.152-.122q.092-.061.295-.2a.377.377,0,0,1,.061-.112c.027-.033.054-.071.081-.112q0-.02.2-.142a.718.718,0,0,0,.183-.061,3.092,3.092,0,0,1,.325-.122c.068.014.112.011.132-.01a.23.23,0,0,1,.091-.051c.041.041.078.048.112.021s.125-.014.274.041a2.021,2.021,0,0,0,.507.1.193.193,0,0,0,.152.071.351.351,0,0,0,.193-.031,1.127,1.127,0,0,0,.447.122.267.267,0,0,0,.091.112.17.17,0,0,1,.071.112c.068-.014.1,0,.112.041s.064.068.173.081a.337.337,0,0,1,.051.112c.007.034.071.071.193.112a1.132,1.132,0,0,1,.061.142c.013.041.041.115.081.223a.25.25,0,0,0-.031.152.915.915,0,0,1,.01.112c0,.027-.007.044-.021.051s-.021.071-.021.193a.252.252,0,0,1-.081.112c-.041.033-.075.064-.1.091a.882.882,0,0,1-.285.244.092.092,0,0,0-.1.021.646.646,0,0,1-.2.1.1.1,0,0,1-.071.01c-.021-.007-.078.017-.173.071a.5.5,0,0,0-.285,0,.075.075,0,0,1-.061.01c-.014-.007-.074.038-.183.132a.994.994,0,0,0,.223.426c.041.027.075.051.1.071a.351.351,0,0,0,.122.051.149.149,0,0,0,.031.173.89.89,0,0,0,.254.152c.068-.014.112-.007.132.021s.058.027.112,0a.489.489,0,0,0,.284.1.068.068,0,0,0,.061-.031c.013-.02.081-.024.2-.01a.485.485,0,0,1,.426-.142.468.468,0,0,1,.345-.142,2.291,2.291,0,0,1,.243-.3q.061,0,.183-.243a.74.74,0,0,0,.041-.233V79.5a.217.217,0,0,1,.01-.071,1.4,1.4,0,0,0,.01-.233.442.442,0,0,0-.071-.173.139.139,0,0,1-.01-.152.285.285,0,0,0-.051-.071,1.384,1.384,0,0,1-.132-.274c0-.041-.014-.064-.041-.071s-.068-.064-.122-.173a.337.337,0,0,0-.112-.152.235.235,0,0,1-.091-.152.24.24,0,0,1-.112-.1.238.238,0,0,0-.112-.1.079.079,0,0,0-.051-.081.835.835,0,0,1-.193-.284l-.243-.142a2.473,2.473,0,0,0-.2-.183,1.867,1.867,0,0,0-.2-.142l-.122-.081-.122-.081c-.081-.027-.2-.074-.366-.142a.1.1,0,0,0-.091-.071.686.686,0,0,1-.193-.071.508.508,0,0,0-.071-.061c-.021-.014-.058-.041-.112-.081a.224.224,0,0,0-.1-.021,1.245,1.245,0,0,1-.264-.061.088.088,0,0,1-.071-.041c-.02-.027-.084-.034-.193-.021a2.772,2.772,0,0,1-.376-.1,1.628,1.628,0,0,0-.4-.081A.251.251,0,0,1,173,76a1.142,1.142,0,0,0-.233-.01c-.041,0-.094,0-.162.01a.249.249,0,0,0-.122.031l-.223.041a.151.151,0,0,0-.061.051.678.678,0,0,1-.243.091q-.142.1-.254.193t-.376.355a.041.041,0,0,1-.031-.01c-.007-.007-.064.031-.173.112a.786.786,0,0,1-.112.193,2.594,2.594,0,0,0-.193.314.229.229,0,0,0-.021.1.218.218,0,0,1-.041.122,1.351,1.351,0,0,0-.081.223l-.061.061a.672.672,0,0,0-.041.223q-.081.061-.041.223a1.479,1.479,0,0,1-.02.243.6.6,0,0,0,.1.345.254.254,0,0,0,0,.142.574.574,0,0,1,.021.142.34.34,0,0,1,.081.193c.014.088.027.166.041.234a.131.131,0,0,1,.081.061,2.261,2.261,0,0,1,.081.243c.027.027.058.061.091.1a.82.82,0,0,1,.112.223.449.449,0,0,0,.1.2c.014.014.068.074.162.183a1.9,1.9,0,0,0,.142.2l.162.2a.238.238,0,0,0,.041.061.9.9,0,0,1,.081.2.148.148,0,0,1,.081.051,1.445,1.445,0,0,1,.081.213.186.186,0,0,0,.1.051q.061.011.223.213a1.61,1.61,0,0,0,.2.223q0,.041.162.162a.49.49,0,0,0,.132.183,2.029,2.029,0,0,1,.254.3c.027,0,.044.007.051.021a.932.932,0,0,0,.132.122.713.713,0,0,1,.284.162.236.236,0,0,0,.091.152.353.353,0,0,1,.112.132.091.091,0,0,1,.081.031,1.482,1.482,0,0,0,.2.173.484.484,0,0,0,.071.061,1.844,1.844,0,0,1,.173.162.046.046,0,0,1,.051.031.646.646,0,0,0,.213.132.36.36,0,0,0,.112.132.355.355,0,0,1,.112.132.167.167,0,0,1,.091.021c.02.013.085.068.193.162.027.014.041.028.041.041s.068.053.2.122a.093.093,0,0,0,.051.051c.021.007.058.051.112.132a1.069,1.069,0,0,0,.243.081.246.246,0,0,0,.162.142,1.772,1.772,0,0,1,.325.162.182.182,0,0,0,.122.1c.054.013.027.068-.081.162a.3.3,0,0,1-.152.081,1.2,1.2,0,0,0-.254.1.041.041,0,0,1-.031-.01.734.734,0,0,0-.213.091.687.687,0,0,0-.3.081.206.206,0,0,0-.152.051c-.034.034-.084.037-.152.01a.744.744,0,0,1-.285.1.092.092,0,0,1-.061.051c-.027.007-.1.017-.223.031a.688.688,0,0,0-.142.051,2.051,2.051,0,0,1-.284.091.127.127,0,0,0-.071.021.974.974,0,0,1-.213.061.328.328,0,0,1-.142.041.138.138,0,0,0-.1.041l-.264.081-.244.142a.183.183,0,0,0-.122,0,.1.1,0,0,1-.1-.021c-.027.068-.135.135-.325.2a.418.418,0,0,1-.132.021.416.416,0,0,0-.132.021.113.113,0,0,0-.051.041.447.447,0,0,1-.173.061.236.236,0,0,0-.061.041,1.035,1.035,0,0,1-.223.081.107.107,0,0,1-.112.051.284.284,0,0,0-.193.091c-.041.014-.085.027-.132.041a2.624,2.624,0,0,0-.315.142,2.128,2.128,0,0,1-.274.112,3.256,3.256,0,0,0-.4.173.126.126,0,0,0-.071.021,1.621,1.621,0,0,1-.274.081l-.142.071a.721.721,0,0,1-.142.051.117.117,0,0,0-.081.041.2.2,0,0,1-.142.041.146.146,0,0,0-.061.051.321.321,0,0,1-.142.071c-.054-.014-.088-.014-.1,0a.842.842,0,0,1-.183.081.333.333,0,0,0-.2.122.8.8,0,0,0-.243.081.932.932,0,0,1-.223.122.4.4,0,0,0-.091.041.418.418,0,0,1-.173.021c0,.068-.027.1-.081.112s-.129.078-.224.213l-.244.081a.668.668,0,0,1-.2.162.11.11,0,0,1-.041.051,1.593,1.593,0,0,0-.162.173.292.292,0,0,0-.152.071l-.091.091a.068.068,0,0,0-.061.031c-.014.02-.061.084-.142.193a.292.292,0,0,0-.152.132l-.132.233a.2.2,0,0,0-.142.041.257.257,0,0,1-.122.061.407.407,0,0,1-.1.132c-.041.034-.081.071-.122.112a.891.891,0,0,1-.122.467.138.138,0,0,0-.1.132c0,.061-.068.145-.2.254a1.3,1.3,0,0,1,0,.325.547.547,0,0,1-.1.285.293.293,0,0,1,.041.223.162.162,0,0,0-.01.091.7.7,0,0,1-.031.213.985.985,0,0,0,.01.314.288.288,0,0,1-.031.234c.054.027.081.115.081.264m13.522,8.531a1.777,1.777,0,0,0,0-.386l.1-.244a1.709,1.709,0,0,1,.061-.325c.027,0,.041-.021.041-.061a.469.469,0,0,1,.041-.162l.122-.081a.212.212,0,0,0,.081-.142.117.117,0,0,0,.132,0,.721.721,0,0,1,.132-.061.708.708,0,0,1,.132.021.373.373,0,0,0,.173,0,.3.3,0,0,0,.112-.021.5.5,0,0,1,.173-.021h.1a1.67,1.67,0,0,0,.2-.021,1.252,1.252,0,0,1,.355-.031,1.218,1.218,0,0,0,.518-.152l.142.071a.79.79,0,0,0,.223.051.449.449,0,0,1,.071.091.719.719,0,0,0,.173.152.122.122,0,0,0,.091.081,1.1,1.1,0,0,1,.213.1,1.306,1.306,0,0,0,.285.285.662.662,0,0,1,.193.122q.092.081.295.244c.068.014.108.037.122.071s.054.051.122.051a.9.9,0,0,0,.325.325,1.3,1.3,0,0,1,.285.284.436.436,0,0,0,.02.152.637.637,0,0,0,.061.112.218.218,0,0,1,0,.132.284.284,0,0,0,0,.152,1.246,1.246,0,0,1-.01.183,1.379,1.379,0,0,0-.01.2.2.2,0,0,0-.081.1.531.531,0,0,1-.061.122h0a.913.913,0,0,0-.467.244.093.093,0,0,1-.041-.01c-.014-.007-.081.031-.2.112a1.038,1.038,0,0,0-.152.01.189.189,0,0,0-.112.051.239.239,0,0,0-.162-.031.612.612,0,0,1-.264-.051.2.2,0,0,0-.122.031.35.35,0,0,1-.122.051.37.37,0,0,1-.173,0,.535.535,0,0,0-.152-.021.481.481,0,0,0-.132.021.092.092,0,0,1-.112-.041.816.816,0,0,1-.264.031l-.284-.031a.583.583,0,0,1-.071-.041,1.588,1.588,0,0,0-.173-.081.316.316,0,0,0-.081.01.759.759,0,0,1-.2-.01.775.775,0,0,0-.122-.031c-.041-.007-.135-.017-.284-.031a.713.713,0,0,0-.223-.041q-.041-.02-.325-.223l-.2-.122-.162-.183a.453.453,0,0,0-.2-.264,1.383,1.383,0,0,1-.071-.173q-.03-.092-.091-.376.02-.081.041-.2" transform="translate(-137.622 -63.319)" fill="#fff"/><path d="M232.977,167.112a2.5,2.5,0,0,1,.223.528.2.2,0,0,1,.081.1.516.516,0,0,0,.061.122.621.621,0,0,0,.112.183.3.3,0,0,1,.071.2.709.709,0,0,0,.091.112.864.864,0,0,1,.132.233.018.018,0,0,0,.02.021c.013,0,.041.068.081.2l.081.04a.67.67,0,0,1,.142.142.1.1,0,0,1,.091.051c.02.033.071.112.152.233a1.62,1.62,0,0,0,.243.2c.014.054.037.084.071.091a1.186,1.186,0,0,1,.274.193.306.306,0,0,0,.1-.01c.014-.007.061.058.142.193a.226.226,0,0,1,.1.02c.026.013.108.068.243.162a.067.067,0,0,0,.071,0c.02-.014.1,0,.233.041l.122.041c.041.013.108.034.2.061.027.014.044.007.051-.02s.092-.027.254,0a.567.567,0,0,0,.528.122.761.761,0,0,0,.294.02c.088-.014.186-.034.295-.061a.244.244,0,0,1,.122-.091,1.244,1.244,0,0,0,.284-.214.26.26,0,0,0,.1-.061,1.458,1.458,0,0,0,.142-.2.513.513,0,0,0,.243-.173,1.318,1.318,0,0,0,.142-.254c.041,0,.115-.081.223-.243a.486.486,0,0,1,.071-.214.53.53,0,0,1,.274-.132.124.124,0,0,1,.051-.1c.034-.027.051-.095.051-.2a.471.471,0,0,1,.041-.193.91.91,0,0,0,0-.4.248.248,0,0,1-.01-.122.538.538,0,0,0-.031-.2,2.61,2.61,0,0,1-.2-.568.134.134,0,0,1-.081-.061c-.014-.028-.068-.109-.162-.244a.159.159,0,0,1-.021-.071.811.811,0,0,0-.081-.193l-.081-.081a1.041,1.041,0,0,1-.122-.183.376.376,0,0,0-.1-.1,1.213,1.213,0,0,1-.2-.224c0-.027,0-.04.01-.04a.986.986,0,0,0-.112-.183.49.49,0,0,1-.2-.2.2.2,0,0,1-.162-.1.2.2,0,0,0-.162-.1.293.293,0,0,0-.132-.152,1.7,1.7,0,0,0-.193-.091h0l-.162-.081a.8.8,0,0,0-.233-.091.274.274,0,0,1-.193-.152.169.169,0,0,1-.132-.01.592.592,0,0,0-.112-.051,1.423,1.423,0,0,0-.345-.081.125.125,0,0,1-.071-.021.749.749,0,0,0-.213-.04.409.409,0,0,0-.152-.01.1.1,0,0,1-.091-.031,1.083,1.083,0,0,1-.325.031,3.136,3.136,0,0,0-.568.05.721.721,0,0,0-.152.021.714.714,0,0,1-.132.021.242.242,0,0,0-.071.03,1.348,1.348,0,0,1-.173.071.594.594,0,0,1-.243.081c-.014.054-.109.115-.285.183l-.162.162a.174.174,0,0,0-.152.071c-.034.048-.064.092-.091.132a.868.868,0,0,0-.071.132,2.848,2.848,0,0,1-.152.274,1.191,1.191,0,0,1-.061.284.467.467,0,0,0-.041.162.8.8,0,0,0,.081.243.239.239,0,0,1-.041.061.735.735,0,0,0,.041.285.514.514,0,0,0,.041.447m.953-.328c.068-.014.115-.075.142-.183a.185.185,0,0,0,.122-.112q.02-.072.041-.173c.027.027.051.03.071.01a.421.421,0,0,1,.193-.05.7.7,0,0,1,.081-.071c.027-.02.1-.071.223-.152a.086.086,0,0,1,.061.021c.014.013.074-.007.183-.061l.243-.061a.047.047,0,0,0,.051-.031c.007-.021.084-.031.233-.031.041.014.057,0,.051-.041s.078-.033.254.021a.216.216,0,0,0,.152-.01.746.746,0,0,1,.355.05.27.27,0,0,0,.173.071.724.724,0,0,0,.213-.01.6.6,0,0,0,.152.142,1.337,1.337,0,0,0,.416.122,2.062,2.062,0,0,0,.2.183.074.074,0,0,1,.091.021.47.47,0,0,0,.152.1.25.25,0,0,1,.061.112.473.473,0,0,0,.061.132.612.612,0,0,0,0,.244.121.121,0,0,1,.061.162.541.541,0,0,0-.041.2.057.057,0,0,0,.01.071c.02.021.01.1-.031.254a.157.157,0,0,1-.051.061.456.456,0,0,0-.091.142h0l-.061.162a.233.233,0,0,0-.061.04c-.014.014-.054.061-.122.142a.774.774,0,0,0-.2.142,1.174,1.174,0,0,1-.285.182c-.014.013-.088.068-.223.162a.176.176,0,0,1-.051-.01,1,1,0,0,0-.254.031,2.078,2.078,0,0,1-.294.071.39.39,0,0,1-.295-.051.126.126,0,0,0-.071.02.642.642,0,0,1-.274-.061,1.272,1.272,0,0,1-.832-.3.264.264,0,0,1-.213-.05,2.21,2.21,0,0,0-.274-.173.812.812,0,0,1-.071-.081,1.336,1.336,0,0,0-.112-.122.3.3,0,0,1-.132-.142.918.918,0,0,1-.031-.406,1.888,1.888,0,0,1-.051-.264,1.614,1.614,0,0,1,.071-.426" transform="translate(-194.016 -136.955)" fill="#fff"/><path d="M245.758,211.819l-.009,0,.009,0" transform="translate(-204.759 -176.487)" fill="#fff"/><path d="M232.977,255.733a2.494,2.494,0,0,1,.223.528.2.2,0,0,1,.081.1.511.511,0,0,0,.061.122.625.625,0,0,0,.112.183.3.3,0,0,1,.071.2.7.7,0,0,0,.091.112.87.87,0,0,1,.132.233.018.018,0,0,0,.02.02c.013,0,.041.068.081.2l.081.04a.667.667,0,0,1,.142.142.1.1,0,0,1,.091.051c.02.034.071.112.152.233a1.631,1.631,0,0,0,.243.2c.014.053.037.084.071.091a1.186,1.186,0,0,1,.274.193.315.315,0,0,0,.1-.01c.014-.007.061.058.142.193a.228.228,0,0,1,.1.02c.026.013.108.068.243.162a.067.067,0,0,0,.071,0c.02-.014.1,0,.233.04l.122.041c.041.013.108.034.2.061.027.013.044.007.051-.021s.092-.027.254,0a.566.566,0,0,0,.528.122.75.75,0,0,0,.294.021c.088-.014.186-.034.295-.061a.242.242,0,0,1,.122-.091,1.235,1.235,0,0,0,.284-.213.264.264,0,0,0,.1-.061,1.479,1.479,0,0,0,.142-.2.52.52,0,0,0,.243-.173,1.317,1.317,0,0,0,.142-.254c.041,0,.115-.081.223-.243a.485.485,0,0,1,.071-.214.524.524,0,0,1,.274-.132.124.124,0,0,1,.051-.1c.034-.027.051-.095.051-.2a.472.472,0,0,1,.041-.193.909.909,0,0,0,0-.4.247.247,0,0,1-.01-.122.538.538,0,0,0-.031-.2,2.61,2.61,0,0,1-.2-.568.133.133,0,0,1-.081-.061q-.02-.041-.162-.244a.159.159,0,0,1-.021-.071.812.812,0,0,0-.081-.193l-.081-.081a1.03,1.03,0,0,1-.122-.183.373.373,0,0,0-.1-.1,1.229,1.229,0,0,1-.2-.223c0-.027,0-.041.01-.041a.979.979,0,0,0-.112-.183.488.488,0,0,1-.2-.2.2.2,0,0,1-.162-.1.2.2,0,0,0-.162-.1.294.294,0,0,0-.132-.152,1.7,1.7,0,0,0-.193-.091v0l-.162-.081a.808.808,0,0,0-.233-.091.276.276,0,0,1-.193-.152.17.17,0,0,1-.132-.01.583.583,0,0,0-.112-.051,1.438,1.438,0,0,0-.345-.081.125.125,0,0,1-.071-.021.74.74,0,0,0-.213-.041.416.416,0,0,0-.152-.01.1.1,0,0,1-.091-.031,1.072,1.072,0,0,1-.325.031,3.141,3.141,0,0,0-.568.051.732.732,0,0,0-.152.021.74.74,0,0,1-.132.02.24.24,0,0,0-.071.031,1.348,1.348,0,0,1-.173.071.592.592,0,0,1-.243.081c-.014.054-.109.115-.285.183l-.162.162a.174.174,0,0,0-.152.071c-.034.048-.064.092-.091.132a.86.86,0,0,0-.071.132,2.872,2.872,0,0,1-.152.274,1.191,1.191,0,0,1-.061.284.471.471,0,0,0-.041.162.8.8,0,0,0,.081.243.237.237,0,0,1-.041.061.735.735,0,0,0,.041.285.514.514,0,0,0,.041.447m.953-.329c.068-.014.115-.075.142-.183a.185.185,0,0,0,.122-.112q.02-.072.041-.173c.027.027.051.031.071.01a.422.422,0,0,1,.193-.051.789.789,0,0,1,.081-.071q.041-.031.223-.152a.086.086,0,0,1,.061.021c.014.013.074-.007.183-.061l.243-.061a.047.047,0,0,0,.051-.031c.007-.021.084-.031.233-.031.041.014.057,0,.051-.041s.078-.033.254.021a.219.219,0,0,0,.152-.01.749.749,0,0,1,.355.051.271.271,0,0,0,.173.071.736.736,0,0,0,.213-.01.608.608,0,0,0,.152.142,1.346,1.346,0,0,0,.416.122,2.033,2.033,0,0,0,.2.183.074.074,0,0,1,.091.021.471.471,0,0,0,.152.1.251.251,0,0,1,.061.112.471.471,0,0,0,.061.132.613.613,0,0,0,0,.244.12.12,0,0,1,.061.162.543.543,0,0,0-.041.2.057.057,0,0,0,.01.071c.02.021.01.1-.031.254a.156.156,0,0,1-.051.061.456.456,0,0,0-.091.142v0l-.061.162a.227.227,0,0,0-.061.041c-.014.013-.054.061-.122.142a.774.774,0,0,0-.2.142,1.18,1.18,0,0,1-.285.183c-.014.013-.088.068-.223.162a.175.175,0,0,1-.051-.01,1.016,1.016,0,0,0-.254.031,2.073,2.073,0,0,1-.294.071.389.389,0,0,1-.295-.051.126.126,0,0,0-.071.021.642.642,0,0,1-.274-.061,1.272,1.272,0,0,1-.832-.3.264.264,0,0,1-.213-.051,2.2,2.2,0,0,0-.274-.173.809.809,0,0,1-.071-.081,1.357,1.357,0,0,0-.112-.122.3.3,0,0,1-.132-.142.918.918,0,0,1-.031-.406,1.887,1.887,0,0,1-.051-.264,1.612,1.612,0,0,1,.071-.426" transform="translate(-194.016 -210.793)" fill="#fff"/><path d="M174.908,273.644a30.065,30.065,0,0,0-2.848-2.051h0c-.059-.063-.12-.125-.185-.186-2.427-2.3-3.4-4.417-8.251-4.062-1.952.143-3.4-3.506-2.995-5.7.4-2.174,1.262-4.316,4.045-8.191.591-.768,3.562-5.81,3.086-5.541-2.776,1.569-3.7,2.431-4.327,3.444a22.315,22.315,0,0,0-2.4,3.8c-4.846,9.553-9.433-2.283-13.684-6.213-7.879-6.6,2.926,7.116,4.218,10.058,2.184,4.974-1.294,7.189-3.559,8.961s-6.795,2.127-8.655,3.633-1.86,3.632-1.213,2.746a15.035,15.035,0,0,1,4.163-2.405,1.547,1.547,0,0,1-.231,1.046c-.709,1.437-.276,1.988.079,1.516s.709-1.516,1.122-2.048c.287-.369.536-.879.793-1.262.472-.188.915-.354,1.3-.486,2.315-.79,4.337-.982,5.47,0s1.915,1.655,2.077,2.807-2.038,1.624-2,2.782c.049,1.357,2.26-1.672,3.549-1.685.385,0,.746.725,1.183,1.193.644.689,1.206.394.754-.552s-4.02-4.292-3.464-5.142a2.5,2.5,0,0,1,3.737-.4c1.44,1.186,1.849,2.317,4.624,4.178.608.408,1.447.783,2.285,1.366.277.409.178.58.58,1.144.473.665,1.232,1.4,1.063.384s.934-1.024,1.145-1.046c.759.014,1.372-.044,1.773,0,1.051.12,1.99-1.062-2.135-1.682s-4.932-1.858-5-2.933c-.042-.658,2.129-3.25,5.122-2.291a10.448,10.448,0,0,1,5.2,4.023c.985,1.336-.925,3.452.207,4.011.886.437,2.074-1.735,1.389-3.8.345.268.763.592,1.165.915.9.723,1.491.325.812-.325" transform="translate(-114.779 -205.942)" fill="#fff"/><path d="M290.461,269.217l0,.008.006-.012,0,0" transform="translate(-242.009 -224.309)" fill="#fff"/><path d="M75.441,141.012c1.905,1.249,3.906,1.773,5.74,4.1s3.547,8.42,4.264,6.888c.495-1.058-1.429-4.067-2.1-5.317s.167-3.11-2.084-5.348-3.085-1.99-3.585-4.99,1.417-3.836,0-3.627-1.918,4.235-.917,5.64,1.119,3.147-.524,1.9-4.562-2.866-5.645-4.891-3.242-2.924-2.038-.89,4.981,5.289,6.886,6.538" transform="translate(-56.828 -110.554)" fill="#fff"/><path d="M334.933,155.214c-1.022,2-3.774,3.594-5.324,4.823s-1.438-.489-.494-1.875.472-5.356-.865-5.562.472.617,0,3.576-1.258,2.714-3.381,4.921-1.337,4.041-1.966,5.274-2.61,5.53-1.481,4.4c1.456-1.452,1.8-3.663,3.526-5.953s3.617-2.807,5.413-4.039,5.358-4.441,6.494-6.447-.9-1.118-1.922.878" transform="translate(-267.524 -127.124)" fill="#fff"/><path d="M145.382,120.338c1.251-1.158-.834-3.011-.371-5.591s1.7-4.09,1.454-4.742-1.584.986-2.5,3.913,0,3.66,0,4.78c0,0,.167,2.8,1.417,1.64" transform="translate(-119.614 -91.54)" fill="#fff"/><path d="M353.03,225.982c-2.984-.711-3.651.255-4.768.332,0,0-2.78.361-1.538,1.528s2.945-1.041,5.552-.759,4.2,1.416,4.832,1.121-1.094-1.512-4.077-2.223" transform="translate(-288.623 -188.073)" fill="#fff"/><path d="M370.387,114.963c.164,1.054-1.233,2.989-.329,2.679s3.782-3.237,3.453-5.637-.658,2.216-1.4,2.785-1.727-1.3-1.727-1.3c-.493-2.161.164-5.059-1.891-5.83s-.576-.005,0,1.421a45.754,45.754,0,0,1,1.891,5.881" transform="translate(-306.151 -89.452)" fill="#fff"/><path d="M82.657,185.822c-1.222.783,1.463.442,2.038,1.247s.2,1.183.2,1.183c-1.031.944-3.2,1.729-2.909,4.343s.2.7.791-.228a19.061,19.061,0,0,1,2.614-3.234c.529-.368,5.5,3.94,5.009,2.893s-6.524-6.988-7.745-6.205" transform="translate(-68.295 -154.77)" fill="#fff"/></g></g></svg>