<svg xmlns="http://www.w3.org/2000/svg" xmlns:xlink="http://www.w3.org/1999/xlink" width="1718.411" height="1717.352" viewBox="0 0 1718.411 1717.352"><defs><clipPath id="a"><rect width="1718.411" height="1717.352" fill="#dfd19d"/></clipPath><radialGradient id="b" cx="0.5" cy="0.5" r="0.5" gradientUnits="objectBoundingBox"><stop offset="0" stop-color="#fff"/><stop offset="1" stop-color="#fff" stop-opacity="0.2"/></radialGradient></defs><g transform="translate(-100.795 318.676)"><circle cx="677.5" cy="677.5" r="677.5" transform="translate(282.5 -113)" fill="#f5f3e8"/><g transform="translate(100.795 -318.676)"><g clip-path="url(#a)"><path d="M203.807,55.409Z" transform="translate(695.276 189.025)" fill="#dfd19d"/><path d="M188.548,30.821c7.416,5.761,15.506,8.668,25.282,5.373,4.054-1.037,6.436-2.8,5.214-8.443-2.193-10.155-14.9-19.066-25.07-17.6-6.494.94-7.08,6.7-9.59,10.371-2.3,3.317.75,7.654,4.164,10.3" transform="translate(626.28 34.081)" fill="#dfd19d"/><path d="M253.983,77.475c1.345.5,2.276,3.653,3.847,1.279.975-1.469-.6-3.309-2.828-3.525l.035.04c-.34.732-.71,1.473-1.054,2.206" transform="translate(866.448 256.643)" fill="#dfd19d"/><path d="M253.01,52.151l-.009.018h0Z" transform="translate(863.1 177.91)" fill="#dfd19d"/><path d="M234.566,28.745c6.692-1.359,13.7-2.113,19.847-4.817C263.708,19.843,269.019,12.414,266.584,0,262,4.733,257.219-.079,252.428,1.09c-10.411,2.55-19.79,12.476-21.444,23.063-.446,2.881-.124,5.351,3.582,4.592" transform="translate(787.459)" fill="#dfd19d"/><path d="M125.742,40.179c7.107,2.7,14.6,4.363,23.416,1.619,2.867-.3,9.167-6.877,12.211-8.849,5.157-3.313,1.147-4.151-3.189-9.48-5.541-6.794-11.443-7.085-18.524-4.288-6.639,2.594-13.27,5.17-16.693,12.365-1.937,4.081-.4,7.424,2.779,8.633" transform="translate(416.565 59.758)" fill="#dfd19d"/><path d="M75.794,66.64a3.384,3.384,0,0,0-1,1.54c-1.346,8.479-4.12,17.024,1.173,26.354,2.065,9.71,13.473,11.108,19.922,17.915,3.3,3.476,7.623-.569,7.248-4.756-1.12-12.246.851-24.272-6.066-36.615C91.146,60.455,82.866,74.62,79.067,66.2c-.468-.984-2.285-.529-3.273.437" transform="translate(248.557 223.973)" fill="#dfd19d"/><path d="M147.421,39.372l0-.022c4.133-1.372,9.824-3.613,7.8-8.113-2.435-5.369-8.911-1.57-13.283-.988-3.626.494-8.1,4.711-6.216,8.351,2.263,4.358,7.6,2.272,11.695.772" transform="translate(461.503 96.893)" fill="#dfd19d"/><path d="M153.422,40.007c.344,6.092,3.2,9.193,8.871,7.667,5.426-1.456,8.413-10.367,6.56-15.841-1.156-3.419-3.825-6.847-1.716-10.848,1.24-2.334.745-4.879-1.315-5.58C164.129,14.84,150.506,33.32,153.422,40.007Z" transform="translate(522 52.509)" fill="#dfd19d"/><path d="M230.326,99.151c-.057.582.459,1.244.357,1.813-1.244,7.76,5.466,10.34,9.763,14,4.235,3.617,15.387-.26,14.183-4.239-1.518-5.069-1.478-10.133-2.387-15.634l-.022,0c-1.023-2.541-20.315-10.279-23.032-8.21-5.532,4.226,1.588,8.055,1.138,12.277" transform="translate(774.644 295.179)" fill="#dfd19d"/><path d="M92.592,104.856Z" transform="translate(315.872 357.71)" fill="#dfd19d"/><path d="M59.718,115.711c9.132-2.192,16.455-6.705,19.988-16.393,1.72-3.816,1.831-6.776-3.339-9.343-9.3-4.632-24.2-.274-29.4,8.589-3.322,5.66.812,9.714,2.109,13.962,1.151,3.878,6.45,4.2,10.645,3.185" transform="translate(155.909 300.548)" fill="#dfd19d"/><path d="M140.668,81.019c1.231-.737,4.275.5,3.4-2.206-.538-1.681-2.96-1.6-4.517.009l.053-.009c.353.728.706,1.482,1.063,2.206" transform="translate(476.073 264.675)" fill="#dfd19d"/><path d="M43.085,142.668h0c4.976,3.538,9.185,3.238,11.527-2.14,2.254-5.148-2.841-13.045-8.271-15.021-3.4-1.226-7.738-1.284-9.546-5.435-1.05-2.417-3.344-3.626-5.179-2.453-1.5.971,4.425,23.151,11.47,25.048" transform="translate(107.054 399.709)" fill="#dfd19d"/><path d="M120.77,64.4l.013.018Z" transform="translate(412 219.687)" fill="#dfd19d"/><path d="M33.428,158.351c4.817.953,6.516-4.513,7.905-8.651l-.013-.022c1.509-4.085,3.313-9.926-1.469-11.152-5.708-1.451-6.789,5.978-9.066,9.754-1.875,3.141-1.376,9.268,2.642,10.071" transform="translate(101.447 471.942)" fill="#dfd19d"/><path d="M24.491,175.7c6.542-3.864,12.524-8.677,15.886-17.28,1.557-2.426.353-11.456.715-15.065.635-6.092-2.523-3.489-9.392-3.423-8.77.084-12.683,4.508-14.924,11.787-2.117,6.8-4.248,13.592-.763,20.756,1.976,4.063,5.55,4.95,8.479,3.225" transform="translate(48.316 475.289)" fill="#dfd19d"/><path d="M142.087,122.55c.419.41,1.257.419,1.637.851,5.285,5.823,11.492,2.188,17.033,1.121,5.47-1.054,9.405-12.18,5.545-13.733-4.906-1.972-8.841-5.166-13.7-7.892l-.018.013c-2.62-.79-20.712,9.445-20.8,12.859-.15,6.961,7.283,3.789,10.3,6.78" transform="translate(449.575 350.925)" fill="#dfd19d"/><path d="M67.752,236.909c4.773-.406,4.314-6.313.812-8.633C58.3,221.5,50.137,212.456,36.179,210.149c-12-2.007-6.105,13.309-15.056,11.02-1.059-.251-1.84,1.451-1.7,2.828A3.366,3.366,0,0,0,20,225.739c5.783,6.344,10.72,13.848,21.316,15.537,8.871,4.456,17.09-3.582,26.433-4.367" transform="translate(66.197 716.289)" fill="#dfd19d"/><path d="M81.768,85.773c3.114-6.075,6.9-12.021,8.629-18.506,2.616-9.811.128-18.6-11.09-24.448h0c.829,6.533-5.916,7.266-7.989,11.734C66.809,64.272,68.706,77.8,75.94,85.7c1.976,2.148,4.1,3.441,5.828.071" transform="translate(235.013 146.074)" fill="#dfd19d"/><path d="M48.931,278.636c-3.075,1.9-5.814,5.263-10.19,4.1-2.545-.684-4.919.366-5.139,2.532-.172,1.778,20.888,10.918,26.755,6.577,5.863-1.7,8.245-5.188,5.483-10.362-2.634-4.963-11.986-5.88-16.909-2.85" transform="translate(114.624 944.617)" fill="#dfd19d"/><path d="M54.08,303.194c-4.385-4.284-4.306-.19-8.523,5.232-5.382,6.922-4.345,12.74-.035,19.018,4.019,5.885,8.011,11.774,15.793,13.495,4.411.975,7.323-1.275,7.791-4.645,1.037-7.526.984-15.2-3.666-23.178-.935-2.731-8.757-7.394-11.359-9.921" transform="translate(142.922 1028.24)" fill="#dfd19d"/><path d="M61.87,223.16Z" transform="translate(211.066 761.297)" fill="#dfd19d"/><path d="M53.955,172.232Z" transform="translate(184.064 587.559)" fill="#dfd19d"/><path d="M63.546,309.5c3.741-3.181.512-7.91-1.87-11.571h-.022c-2.263-3.719-5.722-8.766-9.652-5.779-4.685,3.573.463,9.035,2.012,13.164,1.3,3.423,6.405,6.838,9.533,4.186" transform="translate(170.834 993.547)" fill="#dfd19d"/><path d="M47.674,175.943h0Z" transform="translate(162.637 600.219)" fill="#dfd19d"/><path d="M72.342,172.917c.185-1.425,3.048-3.035.384-4.037-1.65-.622-3.088,1.328-2.8,3.547l.031-.044c.79.168,1.6.366,2.387.534" transform="translate(238.418 575.726)" fill="#dfd19d"/><path d="M26.045,209.711c-6.061-8.144-14.5-11.659-26.045-6.5,5.638,3.406,2.016,9.149,4.235,13.552,4.808,9.573,16.587,16.49,27.276,15.731,2.907-.207,5.245-1.076,3.67-4.517-2.819-6.22-5.131-12.881-9.136-18.263" transform="translate(0 684.982)" fill="#dfd19d"/><path d="M43.453,248.347c-1.923-3.719-4.178-5.647-9.4-3.189-9.41,4.411-15.246,18.793-11.536,28.379,2.373,6.114,8.117,5.4,12.251,7.019,3.754,1.509,7.292-2.444,9.105-6.361,3.957-8.518,4.976-17.059-.419-25.847" transform="translate(72.96 832.593)" fill="#dfd19d"/><path d="M137.717,339.883c-11.686,3.838-23.844,4.61-34.325,14.112-9.026,8.161,6.635,13.058-.719,18.647-.851.675,0,2.343,1.16,3.092a3.442,3.442,0,0,0,1.725.626c8.563-.591,17.509.2,25.419-7.049,9-4.186,7.808-15.617,13-23.429,2.647-3.992-2.263-7.3-6.26-6" transform="translate(342.847 1158.507)" fill="#dfd19d"/><path d="M99.425,212.692c.578-.075,1.107-.723,1.685-.754,7.844-.525,8.854-7.641,11.457-12.648,2.576-4.941-3.7-14.941-7.314-12.877-4.592,2.616-9.538,3.714-14.695,5.832l0,.022c-2.245,1.566-5.466,22.1-2.841,24.285,5.36,4.442,7.5-3.353,11.712-3.86" transform="translate(295.875 634.993)" fill="#dfd19d"/><path d="M178.884,371.195c-5.523-1.028-12.065,5.717-12.762,11.452-.437,3.587.49,7.83-3.141,10.526-2.122,1.566-2.779,4.076-1.222,5.6,1.284,1.244,21.55-9.538,21.81-16.825,2.325-5.647,1.085-9.679-4.685-10.751" transform="translate(548.907 1265.953)" fill="#dfd19d"/><path d="M137,362.2h0c-4.1-.816-7.014-.256-8.351,5.364-2.413,10.107,5.2,23.632,15.008,26.707,6.26,1.954,9.277-2.991,13.124-5.21,3.516-2,2.629-7.23.7-11.09-4.2-8.4-10.248-14.518-20.482-15.771" transform="translate(437.343 1234.597)" fill="#dfd19d"/><path d="M263.707,359.349c-4.279,11.532-11.254,21.519-10.349,35.64.759,12.149,14.346,2.947,14.134,12.18,0,1.085,1.831,1.465,3.141,1.019a3.375,3.375,0,0,0,1.566-.957c4.875-7.067,11.068-13.57,10.327-24.272,2.334-9.648-7.349-15.842-10.226-24.766-1.473-4.561-7.12-2.784-8.593,1.156" transform="translate(864.043 1212.734)" fill="#dfd19d"/><path d="M202.294,377.1c-.159-4.906-5.867-5.329-10.217-5.748l-.013.018c-4.319-.547-10.42-.988-10.535,3.948-.124,5.889,7.358,5.267,11.549,6.63,3.485,1.116,9.339-.75,9.215-4.848" transform="translate(619.271 1265.816)" fill="#dfd19d"/><path d="M101.64,283.04c-1-1.032-.472-4.275-2.92-2.819-1.513.9-.882,3.247,1.032,4.4l-.018-.049c.626-.512,1.284-1.023,1.906-1.535" transform="translate(333.898 954.696)" fill="#dfd19d"/><path d="M120.868,355.927c-6.622-1.667-13.27-4.014-19.979-4.231-10.146-.335-18.149,4.072-21.312,16.318,6.176-2.285,8.408,4.12,13.234,5.135,10.49,2.2,23.239-2.7,29.3-11.536,1.65-2.4,2.426-4.773-1.244-5.686" transform="translate(271.472 1199.732)" fill="#dfd19d"/><path d="M203.565,382.587c-2.717-.971-11.24,2.241-14.836,2.7-6.083.763-2.832,3.251-1.218,9.93,2.06,8.523,7.257,11.333,14.849,11.876,7.111.525,14.2,1.068,20.394-3.944,3.516-2.841,3.569-6.524,1.226-8.986-5.241-5.506-11.28-10.243-20.416-11.576" transform="translate(631.75 1304.551)" fill="#dfd19d"/><path d="M140.592,309.207c6.816-1.421,2.047-7.949,4.279-11.562.3-.5.124-1.319.459-1.787,4.478-6.467-.459-11.69-2.753-16.847-2.259-5.091-13.989-6.414-14.628-2.3-.816,5.223-3.04,9.776-4.6,15.127l.018.013c-.176,2.735,13.878,18.047,17.222,17.355" transform="translate(420.808 935.68)" fill="#dfd19d"/><path d="M89.42,302.285l.013-.018Z" transform="translate(305.051 1031.166)" fill="#dfd19d"/><path d="M135.2,320.588Z" transform="translate(461.213 1093.667)" fill="#dfd19d"/><path d="M205.743,328.207c-1.429.128-3.631-2.307-4.023.512-.243,1.747,1.976,2.722,4.076,1.95l-.049-.018c-.009-.807,0-1.637,0-2.444" transform="translate(688.094 1116.739)" fill="#dfd19d"/><path d="M256.648,324.138" transform="translate(875.539 1105.778)" fill="#dfd19d"/><path d="M223.555,324.819l.022,0c2.02,1.844,22.763.463,24.316-2.576,3.154-6.207-4.923-6.573-6.344-10.574-.2-.547-.953-.918-1.107-1.474-2.241-7.539-9.405-6.957-14.862-8.395-5.386-1.425-13.759,6.9-10.949,9.97,3.564,3.9,5.726,8.488,8.924,13.054" transform="translate(730.283 1029.004)" fill="#dfd19d"/><path d="M269.3,381.037c-5.444,4.12-11.434,7.839-15.8,12.934-6.613,7.707-8.183,16.706-.609,26.839,2.082-6.251,8.479-3.984,12.286-7.116,8.28-6.8,12.436-19.812,9.339-30.073-.843-2.788-2.206-4.879-5.214-2.585" transform="translate(845.491 1296.541)" fill="#dfd19d"/><path d="M390.771,258.662c-6.066-7.857-16.958-4.178-25.719-7.522-4.478-1.7-6.626,3.816-4.478,7.429,6.317,10.552,9.754,22.243,21.325,30.373,9.952,7.01,11.276-9.344,18.347-3.406.847.684,2.289-.507,2.757-1.809a3.357,3.357,0,0,0,.238-1.822c-2.466-8.223-3.661-17.125-12.471-23.244" transform="translate(1227.217 855.664)" fill="#dfd19d"/><path d="M213.72,348.4l0-.022Z" transform="translate(729.076 1188.467)" fill="#dfd19d"/><path d="M330.43,321.91l0,.022c-3.132,3.026-7.292,7.508-3.516,10.689,4.517,3.785,8.713-2.444,12.4-4.861,3.053-2.016,5.259-7.755,1.985-10.221-3.926-2.947-7.83,1.244-10.874,4.372" transform="translate(1110.139 1079.847)" fill="#dfd19d"/><path d="M367.025,318.654c-7.574.648-15.047,2.391-21.806,8.682-2.457,1.513-5.285,10.173-7.177,13.265-3.211,5.219.763,4.239,6.983,7.164,7.936,3.723,13.38,1.429,18.555-4.156,4.861-5.214,9.723-10.407,9.687-18.374-.018-4.517-2.854-6.864-6.242-6.582" transform="translate(1149.324 1086.99)" fill="#dfd19d"/><path d="M328.091,337.236c-2.947-5.342-6.868-6.9-11.315-3.07-4.261,3.661-3.092,12.987.944,17.125,2.528,2.581,6.414,4.508,6.247,9.035-.106,2.634,1.438,4.716,3.6,4.456C329.344,364.556,333.619,342,328.091,337.236Z" transform="translate(1071.487 1132.753)" fill="#dfd19d"/><path d="M313.335,353.257c-9.18-1.981-17.734-1.094-25.119,6.105-3.2,2.691-4.588,5.311-1.041,9.873,6.375,8.2,21.687,10.733,30.218,5,5.448-3.657,3.481-9.105,4.151-13.495.644-3.992-3.992-6.577-8.21-7.486" transform="translate(972.551 1201.992)" fill="#dfd19d"/><path d="M347.85,124.887c12.189,1.645,23.469,6.255,37.043,2.276,11.682-3.4-.273-14.642,8.783-16.464,1.059-.238,1.023-2.1.3-3.287a3.412,3.412,0,0,0-1.279-1.319c-7.963-3.2-15.669-7.822-25.948-4.747-9.926-.159-13.839,10.645-21.92,15.409-4.12,2.44-1.147,7.561,3.017,8.13" transform="translate(1169.637 342.289)" fill="#dfd19d"/><path d="M384.573,178.119c.327-3.644-2.783-8.946-6.754-7.927-4.751,1.231-3.913,6.9-3.362,11.227l.018.013c.415,4.332,1.323,10.38,6.163,9.41,5.775-1.169,3.525-8.333,3.935-12.723" transform="translate(1275.964 580.163)" fill="#dfd19d"/><path d="M1489.74,769.964c8.633.287,17.271.525,25.922-.684,22.812-3.216,44.8-10.1,67.164-15.211,5.139-1.169,11.412-1.42,16.971-6.07-7.151-2.369-11.646,2.369-16.94,3.075-16.958,2.272-33.937,3.211-51.005,4.072-22.7,1.138-44.838-2-66.944-6.26-14.271-2.762-28.449-6.37-42.848-8.174-29.323-3.653-56.718,4.46-82.869,16.746-15.533,7.3-60.4,4.46-66.75.251,2.113-1.61,3.547-2.77,5.078-3.82,26.755-18.307,54.186-36.125,77.5-58.557,11.708-11.254,24.947-18.868,38.882-24.779.662,3.039,1.284,6.088,1.849,9.18l.009,0-.009-.071c.785-.185,1.606-.362,2.391-.547l.009.018a38.911,38.911,0,0,0,.446-10.5c11.858-4.676,24.148-8.3,36.381-11.995,19.547-5.911,40.528-7.689,61.028-9.7a76.64,76.64,0,0,1,34.475,4.442c23.248,8.748,41.521,24.541,59.7,40.6l2.982,2.541c.476-.6-.512-2.634-1.65-4.314-10.376-15.458-24.117-27.51-39.019-38.358-1.981-1.425-5.342-2.431-4.615-5.029.5-1.879,3.459-2.978,6.066-3.648,27.28-7.089,54.569-12.807,82.463-3.079,2.325.9,4.875,1.765,5.311,1.143-6.048-5.2-16.975-10.786-25-11.809-18.93-2.426-37.6-1.4-56.387,1.35-11.977,1.751-24.126,3.569-36.161,3.362a394.8,394.8,0,0,0-59.515,3.392c7.16-4.323,11.059-9.71,10.936-18.74-.062-5.66-3.97-6.582-7.486-8.007-4.491-1.826-5.545,2.678-6.158,5.064-1.915,7.451-5.263,14.58-5.364,22.454v0l0,.013a4.152,4.152,0,0,0-.5.49c-4.769.759-9.533,1.579-14.293,2.537-8.514,1.707-16.622,6.057-26.667,5.7,1.143-1.668,1.451-2.576,2.069-2.96a157.448,157.448,0,0,0,25.855-19.371c.062.393.088.767.172,1.178,1.169,5.717,2.854,8.43,6.683,9.087,4.482.75,6.864-3.022,7.2-7.733.309-4.583,2.338-8.757,3.657-13.093,1.963-6.388,4.584-5.991,8.946-2.982,1.209.825,2.6,1.672,4.8.424-2.311-4.187-4.292-8.651-7.058-12.533a8.678,8.678,0,0,0-1.421-1.531c10.345-15.678,17.932-33.377,23.076-52.911,3.309-12.555,9.017-24.5,18.255-34.224,6.957-7.31,15.947-11.867,24.625-17.077-2.311-2.784-4.724-1.848-6.432-1.134-16.331,6.754-30.276,16.336-39.4,32.155-7.028,12.211-12.392,25.172-18.255,37.894-13.856,30.064-35.336,52.015-66.269,64.438-5.55,2.25-8.4,2.784-7.447-5.21,2.431-20.456,4.425-40.978,6.105-61.526a144.277,144.277,0,0,1,48.336,18.859c-8.686-9.679-18.832-17.231-29.936-23.791-5.3-3.128-11.13-4.994-17.244-6.93q.84-7.173,2.073-14.2a168.467,168.467,0,0,0,34.4-16.066c1.544-.957,3.459-1.782,4.831.507.666-.115,1.315-.225,1.963-.331,1.284-2.426,2.06-5.02,4.831-6.6a192.888,192.888,0,0,1,33.827-15.277c19.053-6.525,38.688-8.377,58.716-7.424-27.492-6.454-54.265-2.162-81.2,6.851,15.8-40.9,51.64-57.238,85.066-76.344-43.607,8.885-78.061,31-101.176,70.085a108.584,108.584,0,0,0-11.69-31.926q4.2-6.571,8.959-12.93c1.31-1.729,3.216-3.384,2.435-7.451a141.651,141.651,0,0,0-15.533,13.631,112.1,112.1,0,0,0-30.47-30.135c-3.714-2.55,2.735-11.937,4.12-14.355,7.989-14.033,18.462-26.213,28.374-38.86,6.357-8.121,13.477-15.6,19.86-23.782-20.663,11.611-34.37,30.951-52.267,45.91a635.2,635.2,0,0,0,27.818-63.834c-3.392,1.584-4.028,4.147-5.2,6.233a847.611,847.611,0,0,1-44.992,71.933c-3.2,4.561-5.81,4.063-10.076,2.74-13.243-4.116-26.725-7.57-40.616-8.452-10.279-.648-10.565-.759-5.4-10.014,3.957-7.076,8.871-13.79,11.757-21.276,9.454-24.633,12.471-50.67,15.325-76.666.481-4.354,1.54-8.907-.309-14.73-1.6,3.829-3.154,6.242-3.6,8.858-3.185,18.541-10.173,35.922-18.255,52.6-14.527,30.007-37.039,53.184-65.426,70.7a8.208,8.208,0,0,1-6.9,1.068c-11.664-2.545-23.372-5.073-35.141-7.133-7.173-1.262-14.5-1.672-21.757-2.462,28.652-8.849,56.264-19.018,81.665-34.295,13.737-8.271,30.986-17.734,42.006-29.954-.229-.525-5.651,1.271-6.71,1.835-36.289,18.907-73.759,33.867-114.825,39.39-21.665,2.894-44.035,4.614-63.785,15.872-1.222.7-2.439,1.182-3.225.062-1.094-1.584-.724-3.335-.159-5.28,5.333-18.453,10.354-37.03,21.731-52.964,2.073-2.934,17.6-16.763,23.954-20.271,33.509-18.453,68.792-34.153,93.386-65.611,8.977-11.518,20.765-27.982,23.359-38.141-1.831,1.535-3.82,2.612-5.038,4.275-16.053,21.691-36.721,38.234-59.2,52.629-7.588,4.861-15.656,8.955-23.579,13.283-1.857,1.028-4.385,2.369-5.828-.044-.979-1.606,1.059-3,2.285-4.447,5.616-6.569,11.187-13.173,15.639-20.69,11.712-19.834,20.041-41.318,30-61.985,2.294-4.742,6.013-9.807,5.841-17.05-6.308,4.111-5.413,10.579-8.161,15.158-8.8,14.672-18.656,28.529-28.626,42.407-13.27,18.453-29.53,33.8-46.646,48.424-11.06,9.432-22.728,18.263-33.117,28.392-21.144,20.646-31.89,47.119-38.6,75.224-3.988,16.693-34.184,49.99-41.441,52.333.062-2.66.048-4.5.185-6.353,2.378-32.336,5.558-64.888,2.567-97.1-1.5-16.159.8-31.242,4.87-45.8q3.732,1.853,7.442,3.833l0-.013c-.022,0-.04-.026-.062-.031.344-.732.715-1.482,1.059-2.215l.022,0a38.309,38.309,0,0,0-7.085-6.33c3.75-12.246,8.607-24.161,13.367-36.077,7.574-18.969,19.269-36.478,30.487-53.753a76.591,76.591,0,0,1,24.973-24.175c21.338-12.718,45.08-17.147,68.969-21.338l3.851-.746c-.172-.746-2.382-1.244-4.4-1.4-18.555-1.531-36.544,1.694-54.318,6.577-2.351.657-5.236,2.656-6.811.468-1.156-1.562-.172-4.561.931-7.014,11.474-25.75,24.025-50.643,49.024-66.379,2.153-1.257,4.42-2.713,4.208-3.441-7.839,1.487-19.018,6.542-24.823,12.18-13.7,13.283-24.545,28.511-34.114,44.917-6.1,10.455-12.255,21.078-19.931,30.355a394.171,394.171,0,0,0-35.984,51.182c1.91-9.767.6-17.024-7.371-23.187-4.473-3.476-7.627-.993-10.927.878-4.222,2.373-1.354,6,.128,7.967,4.645,6.141,8.144,13.195,14.24,18.175v0l.009.009c-.035,1.213.207,1.857.684,2.038-2.21,3.917-4.46,7.808-6.529,11.827-3.975,7.724-5.629,16.772-12.18,24.4-.587-1.937-1.1-2.74-1.019-3.463a157.471,157.471,0,0,0,1.006-32.076c5.2,2.642,8.369,3.013,11.267.424,3.375-3.044,1.906-7.252-1.575-10.446-3.392-3.1-5.4-7.279-7.971-11.011-3.776-5.514-1.835-7.319,3.234-8.858,1.4-.432,2.925-1,3.318-3.494-4.716-.79-9.441-2.02-14.2-2.276a8.563,8.563,0,0,0-1.165.04c-5.806-17.685-14.858-34.489-26.808-50.546-7.751-10.415-13.525-22.326-15.361-35.614-1.381-10,.666-19.865,2.007-29.9-3.617.071-4.389,2.545-4.9,4.319-4.91,16.98-6.114,33.858.556,50.855,5.166,13.111,11.951,25.383,18.237,37.908,14.858,29.579,18.621,60.062,9.035,91.987-1.7,5.739-3.057,8.294-8.713,2.572q-22.008-22.293-44.9-43.735a144.288,144.288,0,0,1,44.436-25.763c-12.983.776-25.207,4.014-37.25,8.624-5.576,2.135-10.526,5.4-15.665,8.858q-5.228-5.307-10.049-10.839a168.358,168.358,0,0,0,8.563-36.222c.216-1.8.759-3.816,3.406-3.463.326-.6.644-1.169.962-1.743-1.1-2.515-2.647-4.738-2.162-7.9a193.215,193.215,0,0,1,9.1-35.98c6.754-18.974,17.522-35.494,30.73-50.577-22.159,17.5-35.464,41.132-45.173,67.822-22.176-37.819-12.661-76.044-6.811-114.1-20.187,39.659-24.316,80.394-8.113,122.81a109.221,109.221,0,0,0-31.092-10.583q-2.514-7.372-4.513-15.052c-.534-2.1-.64-4.628-4.306-6.555a142,142,0,0,0,.957,20.593c-14.5-1.354-29.014.459-43.722,5.007-4.31,1.319-7.641-9.568-8.673-12.158-6.008-14.99-9.026-30.761-12.753-46.4-2.4-10.027-3.829-20.262-6.255-30.346-3.772,23.4,2.837,46.166,3.4,69.48a635.084,635.084,0,0,0-32.649-61.5c-.869,3.639.741,5.735,1.646,7.954,10.729,26.2,20.231,52.823,28.3,79.984,1.575,5.342-.437,7.076-4.129,9.59-11.465,7.8-22.556,16.2-31.89,26.53-6.908,7.641-7.173,7.8-11.2-2.007-3.075-7.5-5.272-15.528-9.339-22.45-13.4-22.732-31.9-41.3-50.471-59.709-3.106-3.084-6.013-6.75-11.721-8.92,2.007,3.626,2.925,6.348,4.694,8.329,12.529,14.033,21.784,30.324,29.808,47.026,14.447,30.046,18.577,62.091,14.62,95.212a8.224,8.224,0,0,1-3.459,6.061c-9.251,7.548-18.519,15.136-27.457,23.067-5.448,4.826-10.331,10.305-15.462,15.5,10.9-27.933,20.129-55.875,23.981-85.269,2.078-15.894,5.4-35.287,2.7-51.517-.551-.146-2.519,5.214-2.735,6.392-7.791,40.171-19.4,78.81-40.638,114.393-11.218,18.757-23.791,37.338-27.276,59.8-.212,1.394-.591,2.642-1.954,2.563-1.923-.132-3.062-1.509-4.235-3.163-11.121-15.661-22.538-31.149-27.929-49.973-1.006-3.445-2.166-24.21-.962-31.365,6.414-37.713,16.089-75.1,6.767-113.93-3.423-14.2-8.977-33.668-15.312-42.023.062,2.391-.331,4.619.212,6.6,6.988,26.067,7.071,52.54,4.35,79.093-.918,8.968-2.735,17.827-4.279,26.72-.353,2.1-.878,4.906-3.661,4.535-1.87-.234-1.69-2.7-2.056-4.557-1.65-8.479-3.353-16.953-6.463-25.114-8.236-21.515-19.865-41.406-29.848-62.06-2.285-4.747-3.931-10.808-9.71-15.184-.71,7.5,4.91,10.821,6.785,15.824,6.008,16.018,10.72,32.358,15.374,48.8,6.185,21.868,8.077,44.154,8.871,66.648.5,14.527.15,29.155,1.61,43.594,3,29.4,17.033,54.287,34.855,77.028,10.583,13.508,17.853,57.869,15.171,65-2.042-1.7-3.494-2.841-4.857-4.094-23.831-21.987-47.33-44.736-74.4-62.448-13.6-8.9-23.981-20.1-32.861-32.371,2.982-1.412,6-2.788,9.061-4.1l0-.009-.066.031c-.357-.728-.71-1.487-1.068-2.215l.018-.013a39.454,39.454,0,0,0-10.91,2.1c-7.186-10.49-13.446-21.629-19.768-32.7-10.133-17.73-16.561-37.78-23.1-57.313a76.619,76.619,0,0,1-3.375-34.595c3.326-24.616,14.633-45.958,26.222-67.261l1.813-3.481c-.693-.331-2.457,1.094-3.838,2.576-12.745,13.57-21.417,29.654-28.657,46.611-.953,2.245-1.182,5.744-3.873,5.62-1.945-.071-3.679-2.709-4.914-5.1C483.57,132.877,471.9,107.559,475.14,78.2c.353-2.466.626-5.148-.075-5.43-3.714,7.058-6.714,18.956-5.916,27.007,1.866,18.991,7.036,36.959,13.923,54.658,4.385,11.28,8.871,22.71,11.359,34.493a395.664,395.664,0,0,0,16.115,55.88c-5.5-5.25-11.386-7.447-19.626-5.444-5.505,1.323-5.536,5.338-6.136,9.083-.785,4.782,3.842,4.808,6.3,4.879,7.614.2,15.237,1.835,22.856.265,1.884,4.7,3.833,9.374,5.924,14.015,3.573,7.919,9.626,14.849,11.523,24.722-1.884-.746-2.837-.843-3.348-1.359a157.345,157.345,0,0,0-24.775-20.941c.582-.207,1.165-.41,1.773-.684,5.316-2.413,7.583-4.658,7.376-8.541-.273-4.535-4.478-6.013-9.145-5.294-4.535.715-9.057-.331-13.578-.653-6.666-.49-6.86-3.132-4.9-8.055.538-1.363,1.05-2.907-.653-4.773-3.564,3.189-7.477,6.114-10.649,9.674a8.72,8.72,0,0,0-1.416,2.21c-17.69-6.657-36.743-10.138-57.058-10.786-12.978-.415-25.9-3.309-37.44-10.138-8.682-5.144-15.131-12.89-22.15-20.187-2.2,2.876-.746,5.025.331,6.525,10.235,14.412,22.693,25.86,40.153,31.215,13.473,4.116,27.3,6.445,41.018,9.317,32.4,6.78,58.6,22.807,77.624,50.18,3.437,4.906,4.588,7.557-3.41,8.421-20.315,2.188-40.6,4.813-60.838,7.742a144.338,144.338,0,0,1,7.623-51.64c-7.5,10.627-12.608,22.2-16.53,34.484-1.906,5.973-2.409,12.184-2.947,18.7-4.7.525-9.392.922-14.055,1.165a168.527,168.527,0,0,0-23.544-30.329c-1.275-1.293-2.51-2.978-.578-4.822-.265-.626-.512-1.235-.759-1.84-2.656-.715-5.355-.891-7.521-3.242A193.056,193.056,0,0,1,369.57,259.1c-10.6-17.121-16.777-35.852-20.306-55.589-.176,28.238,9.974,53.387,24.757,77.637-43.391-6.3-67.3-37.6-93.368-65.933,18.369,40.532,47.608,69.2,90.854,83.032a108.318,108.318,0,0,0-29.027,19q-7.338-2.62-14.606-5.841c-1.981-.9-4.019-2.382-7.808-.71a142.089,142.089,0,0,0,16.755,12.092,112.348,112.348,0,0,0-22.088,35.922c-1.659,4.186-12.246-.009-14.911-.82-15.462-4.667-29.667-12.162-44.2-19.013-9.335-4.389-18.215-9.665-27.611-14.064,15.925,17.558,37.828,26.614,56.4,40.731a636,636,0,0,0-68.426-12.908c2.3,2.956,4.941,3,7.239,3.684a846.172,846.172,0,0,1,80.143,27.849c5.157,2.1,5.254,4.76,4.914,9.211-1.063,13.83-1.429,27.739.8,41.476,1.654,10.168,1.615,10.473-8.558,7.491-7.782-2.285-15.422-5.58-23.367-6.723-26.116-3.732-52.17-.878-78.153,2.126-4.345.5-9.021.485-14.289,3.586,4.089.7,6.789,1.681,9.436,1.535,18.788-1.023,37.29,1.923,55.35,6.088,32.486,7.477,60.093,24.267,83.491,48.041a8.217,8.217,0,0,1,2.572,6.485c.119,11.942.26,23.914.873,35.852.366,7.27,1.6,14.509,2.444,21.753-15.008-25.957-31.065-50.613-51.618-71.977-11.121-11.549-24.188-26.257-38.556-34.281-.459.344,2.5,5.228,3.287,6.132,26.508,31.167,49.439,64.367,63.961,103.179,7.649,20.469,14.311,41.9,29.676,58.641.962,1.041,1.7,2.117.781,3.132-1.3,1.421-3.088,1.447-5.113,1.332-19.177-1.094-38.406-1.848-56.471-9.4-3.322-1.363-20.262-13.428-25.1-18.833-25.45-28.564-48.61-59.466-84.757-76.437-13.23-6.189-31.9-14.015-42.385-14.284,1.906,1.447,3.4,3.145,5.289,3.961,24.722,10.821,45.451,27.289,64.491,45.994,6.432,6.317,12.215,13.27,18.2,20.032,1.416,1.584,3.287,3.745,1.257,5.691-1.35,1.31-3.163-.362-4.844-1.24-7.658-4.01-15.334-7.972-23.654-10.636-21.947-7.005-44.741-10.34-67.107-15.449-5.139-1.178-10.9-3.675-17.928-1.892,5.417,5.232,11.523,2.916,16.6,4.579,16.261,5.311,31.965,11.836,47.714,18.466,20.941,8.827,39.526,21.263,57.6,34.692,11.655,8.686,22.865,18.091,35.053,25.966,24.832,16.018,53.034,20.6,81.925,20.879,17.16.172,56.347,22.2,60.247,28.745-2.607.534-4.4.957-6.233,1.24-32.054,4.879-64.5,9.026-95.239,19.115-15.409,5.051-30.615,6.167-45.711,5.453q.893-3.659,1.888-7.319l-.009,0c0,.026-.018.049-.018.07-.794-.172-1.606-.366-2.4-.538l0-.022a38.365,38.365,0,0,0-4.248,7.535c-12.833-.922-25.591-3.017-38.331-5.011-20.178-3.163-39.853-10.662-59.193-17.752A76.582,76.582,0,0,1,128.8,671.88c-17.147-17.968-26.755-40.131-36.161-62.484l-1.584-3.591c-.688.335-.679,2.6-.384,4.605,2.638,18.431,9.785,35.252,18.506,51.49,1.165,2.148,3.754,4.513,1.972,6.538-1.266,1.478-4.411,1.182-7.045.653-27.66-5.453-54.724-12.145-75.63-33.015-1.707-1.818-3.626-3.706-4.288-3.335,3.194,7.31,10.61,17.081,17.4,21.488,16,10.4,33.262,17.584,51.38,23.257,11.554,3.622,23.284,7.252,34.039,12.67a391.741,391.741,0,0,0,60.807,24.572c-11.62-.159-19.362,2.343-24,12.392-2.387,5.135.746,7.654,3.3,10.455,3.26,3.582,6.158-.027,7.738-1.915,4.941-5.9,11.033-10.887,14.518-17.941l0-.013c1.844-.366,2.175-1.09,1.5-2.051,4.456,1.332,8.938,2.607,13.468,3.767,8.413,2.157,17.606,1.756,26.5,6.441-1.756,1.006-2.426,1.69-3.15,1.765a157.731,157.731,0,0,0-31.414,6.141c1.143-5.082.679-8.051-2.312-10.168-3.719-2.607-7.5-.234-9.829,3.873-2.259,4-5.885,6.891-8.946,10.235-4.526,4.919-6.719,3.432-9.357-1.165-.737-1.266-1.623-2.629-4.147-2.453.282,4.773.146,9.657.962,14.355.022.128.071.247.1.37-15.828,9.582-30.1,22.084-43.012,37.215-8.426,9.873-18.753,18.157-31.295,22.909-9.44,3.569-19.516,3.767-29.6,4.7.878,3.507,3.459,3.714,5.3,3.811,17.646,1.006,34.37-1.575,49.452-11.867,11.633-7.954,22.088-17.3,32.9-26.217,25.529-21.073,54.411-31.524,87.669-29.292,5.977.384,8.77,1.138,4.447,7.923q-17.019,26.713-33,54.115A144.133,144.133,0,0,1,170.9,774.843c3.666,12.48,9.56,23.667,16.75,34.374,3.229,4.8,7.363,8.8,11.73,12.9q-4.142,6.452-8.633,12.537a168.264,168.264,0,0,0-36.487-.163c-1.8.194-3.886.115-4.138-2.541-.653-.185-1.284-.366-1.915-.547-2.206,1.632-4.023,3.639-7.208,3.873a192.745,192.745,0,0,1-37.1-.807c-20-2.329-38.521-9.127-56.175-18.621,22.018,17.681,48.027,25.353,76.216,28.838-31.895,30.086-71.28,29.371-109.673,32.195,43.175,10.79,83.8,5.686,121.509-19.6a109.5,109.5,0,0,0-3.384,31.652q-6.657,4.116-13.733,7.8c-1.932.988-4.367,1.65-5.43,5.656a142.669,142.669,0,0,0,19.838-5.514c1.831,14.783,6.9,28.842,14.8,42.456,2.25,3.9-7.614,9.59-9.908,11.174C124.7,959.717,110,966.189,95.6,973.327c-9.238,4.584-18.89,8.267-28.176,12.895,23.654-1.571,44.357-13.106,66.957-18.885a636.817,636.817,0,0,0-52.628,45.6c3.741.035,5.426-2,7.385-3.384a847.866,847.866,0,0,1,71.611-45.5c4.857-2.735,7-1.16,10.274,1.875,10.173,9.423,20.844,18.356,33,25.136,8.995,5.025,9.207,5.245.551,11.364-6.622,4.68-13.953,8.615-19.785,14.13-19.15,18.149-33.1,40.338-46.889,62.563-2.307,3.719-5.228,7.372-6.066,13.42,3.088-2.766,5.536-4.27,7.067-6.436,10.87-15.356,24.673-28.026,39.156-39.588,26.045-20.809,56.352-32.014,89.517-35.574a8.231,8.231,0,0,1,6.679,2.012c9.427,7.327,18.9,14.659,28.635,21.589,5.925,4.231,12.356,7.764,18.563,11.6-29.663-4.367-58.963-7.1-88.471-4.275-15.956,1.54-35.6,2.638-50.815,8.916-.018.573,5.651,1.288,6.847,1.235,40.894-1.407,81.153,1.253,120.587,13.984,20.8,6.727,41.723,14.823,64.394,13.181,1.407-.106,2.709-.013,2.938,1.332.3,1.906-.79,3.322-2.135,4.835-12.771,14.35-25.308,28.943-42.447,38.415-3.132,1.751-23.112,7.53-30.351,7.963-38.194,2.193-76.8,1.143-112.553,18.925-13.071,6.516-30.8,16.292-37.524,24.334,2.312-.591,4.575-.706,6.388-1.681,23.839-12.652,49.62-18.66,76.106-21.96,8.946-1.112,17.985-1.323,27-1.813,2.122-.128,4.976-.243,5.241,2.554.19,1.87-2.25,2.25-3.984,3.022-7.9,3.511-15.771,7.063-23.028,11.929-19.124,12.846-35.9,28.63-53.8,42.99-4.116,3.291-9.652,6.251-12.621,12.864,7.464-.988,9.44-7.213,13.9-10.159,14.262-9.441,29.133-17.694,44.114-25.917,19.926-10.923,41.22-17.756,62.969-23.57,14.046-3.741,28.379-6.679,42.12-11.337,27.982-9.507,49.095-28.758,67.266-51.221,10.795-13.34,52.4-30.364,59.952-29.349-1.2,2.373-1.981,4.041-2.9,5.651-16.089,28.149-33,56.149-44.189,86.5-5.625,15.228-14.209,27.849-24.161,39.244q-2.74-3.487-5.386-7.085l-.009,0,.04.062c-.626.512-1.284,1.023-1.91,1.54l-.018-.018a38.757,38.757,0,0,0,3.939,9.238c-8.646,9.4-18.144,18.038-27.558,26.72-15.012,13.843-33.112,24.6-50.683,35.349a76.59,76.59,0,0,1-32.958,11.042c-24.739,2.272-48.071-3.97-71.43-10.49l-3.794-.984c-.168.745,1.615,2.144,3.366,3.159,16.084,9.383,33.7,14.236,51.848,17.491,2.4.419,5.863-.137,6.344,2.515.371,1.91-1.813,4.191-3.864,5.929-21.457,18.281-43.519,35.331-72.859,38.75-2.484.2-5.157.538-5.276,1.288,7.711,2.034,19.975,2.3,27.647-.282,18.091-6.074,34.445-15.144,50.149-25.816,10.014-6.8,20.147-13.737,31.07-18.8a394.45,394.45,0,0,0,53.206-29.76c-5.17,7.447-6.705,14.267-2.435,22.759,2.532,5.069,6.454,4.191,10.235,3.931,4.835-.318,3.82-4.831,3.326-7.244-1.535-7.539-1.637-15.418-4.989-22.538l0-.009a3.561,3.561,0,0,0,.45-1.429c3.767-2.638,7.513-5.329,11.2-8.126,6.917-5.254,12.312-12.705,21.51-16.763-.3,2-.185,2.947-.573,3.564a157.742,157.742,0,0,0-14.778,28.613c-.128-.177-.221-.344-.353-.521-3.551-4.636-6.251-6.339-9.983-5.254-4.358,1.284-4.853,5.713-3.092,10.1,1.72,4.253,1.72,8.893,2.426,13.371,1.028,6.6-1.5,7.394-6.741,6.6-1.447-.216-3.07-.366-4.5,1.712,3.909,2.753,7.641,5.907,11.827,8.192a8.315,8.315,0,0,0,1.531.653c-2.426,18.537-1.518,37.682,2.356,57.411,2.5,12.736,2.576,25.974-1.5,38.755-3.066,9.617-9.171,17.637-14.708,26.111,3.3,1.5,5.06-.4,6.282-1.782,11.752-13.208,20.116-27.911,21.426-46.126.993-14.055.168-28.057-.106-42.063-.648-33.1,9.1-62.223,31.515-86.892,4.014-4.447,6.339-6.167,8.973,1.438q10.171,29.387,21.493,58.4a144.357,144.357,0,0,1-51.482,4.1c12.043,4.91,24.466,7.27,37.321,8.316,6.052.494,12.026-.349,18.268-1.262q2.4,6.922,4.359,13.883a168.443,168.443,0,0,0-23.663,29.244c-.975,1.531-2.334,3.114-4.566,1.654-.551.4-1.09.776-1.623,1.151-.1,2.748.344,5.417-1.46,8.06a193.274,193.274,0,0,1-23.751,28.52c-14.284,14.192-31.14,24.435-49.567,32.331,27.549-6.207,49.752-21.77,70.045-41.644,3.657,43.691-21.44,74.05-43.157,105.839,35.344-27.047,56.665-62,60.379-107.251a109.053,109.053,0,0,0,24,23.336q-.907,7.729-2.417,15.515c-.424,2.126-1.416,4.447,1.059,7.769a141.609,141.609,0,0,0,8.016-19,111.983,111.983,0,0,0,41.057,14.042c4.456.671,2.762,11.933,2.567,14.717-1.054,16.111-5.148,31.639-8.541,47.348-2.166,10.085-5.3,19.931-7.469,30.073,13.512-19.477,17.385-42.857,26.949-64.134a634.909,634.909,0,0,0,2.872,69.573c2.36-2.9,1.809-5.492,1.954-7.883a847.35,847.35,0,0,1,9.035-84.36c.887-5.5,3.454-6.194,7.866-6.868,13.715-2.087,27.346-4.866,40.224-10.146,9.533-3.9,9.842-3.931,9.233,6.648-.468,8.095-1.954,16.283-1.279,24.281,2.263,26.288,10.927,51.023,19.719,75.656,1.469,4.12,2.506,8.682,6.714,13.111-.238-4.138.11-6.992-.631-9.542-5.236-18.069-6.547-36.76-6.564-55.293-.049-33.333,10.076-64.019,27.955-92.181a8.214,8.214,0,0,1,5.735-3.97c11.6-2.81,23.24-5.651,34.727-8.942,7-2,13.773-4.83,20.641-7.292-21.9,20.478-42.3,41.693-58.465,66.538-8.744,13.437-20.125,29.486-24.7,45.3.437.371,4.531-3.617,5.236-4.588,24.378-32.861,51.543-62.691,86.072-85.6,18.219-12.07,37.585-23.394,50.432-42.147.794-1.169,1.676-2.131,2.872-1.469,1.681.953,2.109,2.687,2.453,4.681,3.264,18.934,6.869,37.833,3.6,57.137-.578,3.542-8.505,22.772-12.683,28.7-22.079,31.242-46.955,60.781-55.328,99.822-3.044,14.284-6.449,34.246-4.345,44.516.979-2.179,2.294-4.019,2.665-6.044,4.958-26.526,16.322-50.441,30.245-73.208,4.7-7.694,10.173-14.9,15.409-22.251,1.222-1.738,2.907-4.045,5.258-2.51,1.584,1.019.362,3.163-.115,5-2.175,8.36-4.3,16.737-5.02,25.441-1.87,22.961.026,45.923.1,68.863.013,5.267-1.12,11.448,2.2,17.888,3.882-6.454.247-11.88.719-17.2,1.5-17.041,4.314-33.814,7.217-50.652,3.869-22.4,11.792-43.307,20.8-63.939,5.828-13.318,12.462-26.358,17.381-40.012,10-27.81,8.1-56.316,1.848-84.523-3.71-16.759,8.9-59.907,14.4-65.179,1.107,2.418,1.923,4.067,2.612,5.792,11.99,30.121,23.354,60.794,40.122,88.463,8.426,13.909,12.948,28.52,15.656,43.431-3.617,0-7.248-.075-10.905-.234v.013c.022,0,.049,0,.071,0,.009.812,0,1.65,0,2.457l-.022,0a39.96,39.96,0,0,0,11.726,2.96c1.932,12.511,2.762,25.207,3.679,37.868,1.473,20.368-1.39,41.229-3.931,61.668a76.618,76.618,0,0,1-11.9,32.658c-13.636,20.765-33.055,35.124-52.708,49.329l-3.141,2.36c.481.591,2.687.075,4.575-.666,17.359-6.732,32.128-17.491,45.985-29.654,1.826-1.619,3.547-4.672,5.92-3.4,1.725.9,2.148,4.028,2.228,6.719.931,28.171.521,56.052-15.092,81.131-1.385,2.069-2.788,4.367-2.281,4.928,6.4-4.76,14.245-14.192,17.006-21.8,6.524-17.932,9.621-36.372,11.059-55.306.918-12.07,1.809-24.316,4.654-36.015a396.808,396.808,0,0,0,9.405-55.183c2.739,5.9,7.01,9.714,14.456,11.3,5.536,1.2,7.3-2.409,9.467-5.523,2.779-3.97-1.376-6-3.564-7.129-6.458-3.322-12.37-7.795-19.446-9.842.344-5.175.618-10.358.737-15.572.2-8.686-2.263-17.549.291-27.276,1.376,1.487,2.193,1.985,2.431,2.673a157.262,157.262,0,0,0,13.446,29.835,21.417,21.417,0,0,0-3.092-.3c-5.836-.128-8.854.913-10.345,4.5-1.72,4.2,1.425,7.363,5.947,8.735,4.394,1.323,8.016,4.226,11.951,6.476,5.792,3.331,4.826,5.8.922,9.383-1.072,1-2.206,2.166-1.478,4.584,4.592-1.328,9.388-2.268,13.79-4.1a8.617,8.617,0,0,0,2.881-1.976c13.164,13.856,29,25.379,47.242,34.85,11.523,5.978,21.925,14.17,29.385,25.317,5.607,8.391,8.077,18.157,11.258,27.774,3.22-1.646,2.836-4.209,2.519-6.031-3.009-17.416-9.295-33.121-22.728-45.5-10.376-9.533-21.841-17.61-32.967-26.124-26.292-20.116-42.994-45.892-48.323-78.793-.979-5.911-.873-8.8,6.714-6.123,19,6.714,38.177,13.023,57.428,19.053a144.357,144.357,0,0,1-29.473,43.691c11.364-6.322,20.981-14.536,29.843-23.906,4.429-4.689,7.636-10.248,11.051-16.066q6.531,2.256,12.828,4.857a168.414,168.414,0,0,0,8.122,38.216c.587,1.716.97,3.767-1.566,4.6-.035.675-.075,1.332-.115,1.985,2.082,1.791,4.438,3.123,5.369,6.18a193.025,193.025,0,0,1,7.385,36.372c2.131,20.028-.424,39.584-5.8,58.9,12.4-25.37,14.152-52.43,11.346-80.694,36.368,24.483,44.344,63.062,55.553,99.893,1.019-44.49-12.9-83-45.874-114.212a108.056,108.056,0,0,0,35.543-4.835q5.459,5.505,10.587,11.518c1.4,1.659,2.594,3.882,6.736,4.01a141.806,141.806,0,0,0-9.913-18.18,112.9,112.9,0,0,0,34.418-22.379c3.313-3.053,11.033,5.316,13.08,7.2,11.911,10.905,21.462,23.822,31.595,36.293,6.5,8,12.219,16.609,18.779,24.647-6.736-22.728-22.551-40.387-33.161-61.156a635.626,635.626,0,0,0,56.065,41.3c-.79-3.657-3.15-4.848-4.927-6.454-21.021-18.974-41.11-38.852-60.146-59.841-3.737-4.134-2.673-6.564-.432-10.429,6.952-12,13.314-24.378,17.253-37.727,2.92-9.877,3.088-10.137,10.963-3.039,6.021,5.431,11.474,11.712,18.14,16.19,21.92,14.686,46.638,23.407,71.351,31.961,4.134,1.434,8.342,3.481,14.43,2.964-3.379-2.4-5.386-4.46-7.839-5.475-17.372-7.221-32.768-17.9-47.238-29.477-26.032-20.826-43.634-47.922-54.406-79.49a8.216,8.216,0,0,1,.49-6.961c5.069-10.808,10.137-21.665,14.756-32.684,2.823-6.71,4.853-13.764,7.23-20.663,2.267,29.9,6.053,59.082,15.312,87.241,5.011,15.228,10.411,34.149,19.878,47.608.565-.11.018-5.8-.3-6.953-10.376-39.579-16.649-79.437-12.912-120.706,1.985-21.766,5.272-43.96-1.315-65.713-.415-1.35-.613-2.642.653-3.159,1.791-.715,3.41.035,5.184,1.015,16.812,9.3,33.809,18.316,46.818,32.949,2.4,2.669,12.436,20.884,14.448,27.854,10.552,36.769,18.03,74.659,43.241,105.623,9.238,11.311,22.675,26.46,32,31.246-1.089-2.131-1.7-4.305-3.048-5.863-17.589-20.464-29.129-44.291-38.177-69.405-3.057-8.479-5.254-17.253-7.716-25.939-.591-2.043-1.337-4.8,1.337-5.673,1.787-.6,2.691,1.7,3.829,3.216,5.157,6.935,10.363,13.834,16.7,19.843,16.737,15.824,35.834,28.714,53.776,43.011,4.12,3.287,8.227,8.038,15.33,9.48-2.607-7.067-9.114-7.627-12.97-11.324-12.352-11.836-23.672-24.523-34.992-37.329-15.047-17.028-26.4-36.3-36.862-56.233-6.736-12.877-12.762-26.213-20.328-38.591-15.436-25.2-38.861-41.556-64.778-54.336-15.391-7.592-41.154-44.428-41.825-52.02,2.576.649,4.376,1.046,6.15,1.588,31,9.5,62.038,19.825,94.114,24.06,16.1,2.131,30.3,7.733,43.616,14.937-1.954,2.409-3.948,4.8-6.008,7.155l.009,0,.048-.053c.635.5,1.284,1.028,1.923,1.531l-.013.018a38.889,38.889,0,0,0,8.47-6.189c11.055,6.357,21.55,13.706,32.067,20.963,16.812,11.593,31.29,26.883,45.645,41.657a76.574,76.574,0,0,1,18.025,29.716c7.663,23.632,6.714,47.767,5.5,71.986l-.128,3.922c.763,0,1.738-2.047,2.343-3.984,5.611-17.752,6.463-36.006,5.647-54.424-.119-2.439-1.425-5.691,1.054-6.741,1.782-.785,4.486.842,6.635,2.462,22.56,16.9,44.044,34.669,53.837,62.541.75,2.373,1.663,4.91,2.422,4.862.291-7.967-2.157-19.993-6.366-26.9-9.9-16.313-22.349-30.267-36.218-43.236-8.841-8.271-17.836-16.631-25.18-26.173a394.744,394.744,0,0,0-39.9-44.481c7.905,2.955,14.589,2.682,21.607-3.084,4.389-3.582,2.673-7.208,1.588-10.848-1.368-4.645-5.55-2.664-7.8-1.654-7.019,3.154-14.681,4.985-20.893,9.816l-.009.009a4.4,4.4,0,0,0-.9-.115c-3.529-3.216-7.036-6.454-10.711-9.542-6.648-5.594-15.1-9.216-21.087-17.3,2.016-.146,2.916-.468,3.6-.225a157.064,157.064,0,0,0,31.264,8.13c-.265.286-.534.534-.8.851-3.741,4.482-4.808,7.486-2.934,10.892,2.21,3.966,6.639,3.476,10.534.8,3.776-2.612,8.3-3.631,12.511-5.3,6.22-2.448,7.543-.154,7.914,5.13.11,1.46.313,3.075,2.66,4.015,1.826-4.42,4.085-8.752,5.4-13.336a8.575,8.575,0,0,0,.309-2.047c18.7-1.69,37.268-6.8,55.743-14.959,11.876-5.241,24.77-8.232,38.132-7.072,10.054.874,19.221,5.06,28.71,8.6.732-3.542-1.5-4.848-3.123-5.735-15.466-8.554-31.656-13.481-49.708-10.746-13.931,2.126-27.4,6.013-41.009,9.366-32.146,7.918-62.7,4.822-91.7-11.611-5.223-2.938-7.411-4.826-.573-9.07,17.509-10.857,34.806-22.11,51.918-33.615a144.379,144.379,0,0,1,15.4,49.541c2.144-12.828,1.72-25.467-.079-38.238-.86-6.092-3.035-11.809-5.333-17.791q6.141-3.818,12.405-7.239a168.113,168.113,0,0,0,34,16.856c1.712.613,3.551,1.592,2.616,4.094.507.45,1,.891,1.482,1.328,2.7-.507,5.21-1.522,8.179-.344a193.406,193.406,0,0,1,33.037,16.913c16.98,10.826,30.677,25.017,42.425,41.265-12.1-25.511-32.159-43.766-56-59.2,41.825-13.159,76.953,4.667,112.734,18.877-34.144-28.546-72.926-41.675-117.887-35.371a108.926,108.926,0,0,0,17.694-29.032q7.729-.814,15.652-1.054c2.17-.053,4.654.4,7.349-2.744a142.055,142.055,0,0,0-20.315-3.639,112.078,112.078,0,0,0,4.526-42.641c-.322-4.491,11.037-5.307,13.79-5.73,15.956-2.506,32.005-1.919,48.076-2.06,10.31-.093,20.6.8,30.977.693-21.969-8.907-45.632-7.561-68.483-12.22a636.286,636.286,0,0,0,67.244-18.069c-3.353-1.667-5.757-.565-8.117-.176-27.942,4.6-56.012,7.905-84.289,9.7-5.563.34-6.8-2.012-8.426-6.167-5.042-12.921-10.751-25.613-18.727-37.021-5.9-8.439-6-8.73,4.46-10.464,8-1.314,16.314-1.663,23.972-4.081,25.15-7.971,47.379-21.854,69.48-35.839,3.7-2.338,7.923-4.35,11.32-9.427-3.988,1.142-6.846,1.425-9.171,2.709-16.477,9.074-34.427,14.452-52.5,18.537-32.517,7.363-64.672,4.222-96.068-7.041a8.235,8.235,0,0,1-5.135-4.725c-5.289-10.706-10.614-21.435-16.344-31.921-3.485-6.392-7.738-12.378-11.646-18.541,24.788,16.878,49.959,32.12,77.743,42.443,15.03,5.58,33.187,13.159,49.611,14.152.269-.507-4.517-3.622-5.62-4.1-37.409-16.574-72.475-36.531-102.4-65.192-15.775-15.122-31.074-31.537-52.192-39.954-1.31-.516-2.444-1.169-2.06-2.479.56-1.848,2.157-2.647,4.028-3.419,17.756-7.341,35.4-15,54.953-16.049,3.586-.212,24.082,3.3,30.787,6.079,35.322,14.686,69.6,32.473,109.532,32.076,14.6-.163,34.824-1.222,44.384-5.532-2.342-.472-4.425-1.354-6.485-1.271-26.967.984-52.787-4.857-78.06-13.446-8.536-2.9-16.764-6.652-25.088-10.146-1.968-.812-4.588-1.95-3.6-4.584.648-1.765,3.008-1.045,4.906-.984m-175.664-66.732c-30.523,23.517-61.2,46.9-100.779,53.445-1.844.313-3.666,1.275-5.258-.278-2.488-2.435.265-4,1.306-5.488,13.512-19.08,22.154-40.727,30.43-62.237,11.977-31.158,14.9-63.759,12.851-96.8,4.945,2.881,9.749,5.8,14.628,8.611a69.545,69.545,0,0,0-15.087-15.017c-.075-.957-.141-1.915-.225-2.867-.313-3.5-.737-6.979-1.217-10.451,24.029,2.678,48.089,6.07,70.089,16.34,19.688,9.18,38.847,19.613,53.18,37.215-.141.335-.251.684-.4,1.019a190.085,190.085,0,0,1-59.519,76.508m4.7,144.223c2.259,3.07,4.094,6.93,6.586,9.608q-1.356-.5-2.7-.984a45.867,45.867,0,0,1-3.882-8.624m20.244,54.415c-10.477,15.8-20.707,30.664-32.953,44.657-4.861-4.923-9.463-10.089-13.9-15.422-.194-11.236-.94-23.8-2.881-34.573a184.052,184.052,0,0,1,49.73,5.338m-57.274-4.941a183.7,183.7,0,0,1,2.409,24.316q-2.091-2.614-4.173-5.241c-4.156-5.214-9.935-9.494-12.092-17.593,4.654-.7,9.264-1.151,13.856-1.482m-21.651,81.907a68.2,68.2,0,0,1-5.439,21.488,115.074,115.074,0,0,1-38.018,28.167c-34.943,15.859-71.986,20.518-110.048,18.352-2.223-.124-4.173-.613-4.35-3.136,35.861-12.242,68.673-28.1,90.757-61.068,14.271-21.3,20.178-44.242,19.635-69.348a145.606,145.606,0,0,0-1.323-15.965,171.686,171.686,0,0,1,20.147,14.584c20.826,17.553,30.668,39.549,28.639,66.926m-128.47,289.17a32.611,32.611,0,0,0-6.974,2.431c-2.8-9.348-5.431-18.122-8.1-26.857l-.04-.124.106.018c7.724.9,8.624-4.306,11.267-9.348,2.642-5.007,1.959-10.429,1.835-14.9-.154-5.96-.768-15.519-7.7-16.847-5.431-1.032-14.527,2.051-17.628,6.379-5.792-14.108-12.758-27.682-21.982-40.232-1.667-2.268-3.763-5.356-1.8-7.7,2.982-3.556,4.7,1.323,6.621,2.373a471.4,471.4,0,0,0,53.965,25.555c10.129,3.948,9.679,13.472,9.992,22.185.746,21.6-3.639,41.167-19.552,57.062m-18.537-35.865a3.157,3.157,0,0,1,.027.547c-.53-1.623-1.085-3.238-1.632-4.853a44.86,44.86,0,0,1,4.985-10.336c-1.3,4.9-4.173,10.093-3.379,14.642m-83.442,145.269c4.575,7.085,9.52,13.9,14.747,20.474a170.9,170.9,0,0,1-45.323,14.081,614.126,614.126,0,0,1,2.784-94.7l.022,0c-.556-1.35-.128-2.806,1.182-2.731,1.681.093.644,1.782.75,2.784,4.142,21.965,13.821,41.507,25.838,60.093m-20.2-211.621a171.3,171.3,0,0,1,1.12,24.413c-.732,27.227-11.787,48.641-34.453,64.129a67.292,67.292,0,0,1-19.04,8.814,115.074,115.074,0,0,1-45.733-12.026c-34.233-17.333-61.046-43.312-83.178-74.355-1.293-1.808-2.131-3.639-.273-5.355,31.992,20.31,64.888,35.98,104.423,32.578,25.542-2.2,47.136-11.946,66.383-28.083a144.523,144.523,0,0,0,10.751-10.115M699.625,1290.814c-3.264,1.429-7.111,2.36-10.182,3.979.481-.75.966-1.5,1.443-2.25a46.657,46.657,0,0,1,8.739-1.729m-317.5-281.384c-2.545-1.35-5.069-3.2-7.614-4.6.728-.079,1.465-.146,2.192-.225a47.73,47.73,0,0,1,5.422,4.826m-42.063-38.6c2.6-18.956,5.342-36.906,10.239-54.936,6.913,2.422,13.68,5.219,20.363,8.258,5.1,10.027,11.218,20.818,17.588,29.4a184.214,184.214,0,0,1-48.191,17.275M394.834,949.9a190.091,190.091,0,0,1-12.665-20.354q2.766,1.323,5.532,2.651c6.013,2.881,13.08,4.208,18.554,10.552-3.754,2.567-7.57,4.914-11.421,7.151M378.181,866.98a69.161,69.161,0,0,1-4.561-23.054,115.058,115.058,0,0,1,22.062-41.918c24.611-29.433,55.972-49.69,91.211-64.244,2.056-.847,4.028-1.253,5.28.944-27.011,26.579-49.7,55.09-55.311,94.374-3.626,25.379,1,48.614,12.37,71.007a145.759,145.759,0,0,0,8.893,15,171.024,171.024,0,0,1-24.973-4.385C406.749,908,388.3,892.5,378.181,866.98m26.2-279.416c-.79-4.178-.693-9-2.219-12.674q1.2,1.237,2.4,2.466a45.52,45.52,0,0,1-.185,10.208M383.6,496.8c-1.451.882-2.2,3.613-4.517,2.2-2.193-1.332-2.1-3.591-1.416-5.8,1.716-5.647,3.441-11.32,5.373-17.668-7.72,1.535-4.8,11.5-13.217,12.29-5.289-7.936-11.607-16.521-16.918-25.71-3.97-6.86-.256-14.536.018-21.806.371-9.524,2.453-18.943,3.2-28.476.371-4.778,2.559-5.554,5.942-3.648l5.029,2.832a56.81,56.81,0,0,0-3.856,14.09c-1.429-.715-2.629-2.056-3.414-4.614-3.278,16.23,6.419,33.774,19.759,37.974,2.334.737,4.751,1.469,5.955-1.963,2.766-7.8-2.964-20.487-8.395-27.488-2.157-2.784-4.98-3.026-7.769-3.062,1.213-1.963,2.206-4.072,3.384-5.977.887-1.425,1.8-2.819,2.7-4.222,26.354,15.043,51.773,31.2,69.343,57.724a115.573,115.573,0,0,1,8.21,14.787c-9.952,4.747-19.957,9.383-30.267,13.314-8.161,3.11-16.225,6.449-26.235,10.433,15.8.662,28.317-3.688,42.9-9.538-10.367,9.829-21.66,15.52-30.179,26.217-5.929-4.923-11.426-10.367-17.191-15.484-4.336-3.864-5.8-7.138-.454-11.906,3.944-3.525,6.463-8.69,10.5-14.394-8.682,1.385-13.071,6.577-18.488,9.895m41.834-134.792a614.19,614.19,0,0,1,38.6,86.658l-.018.013c1.085.979,1.332,2.475.119,2.973-1.557.644-1.354-1.328-1.884-2.184-13.252-18-30.452-31.414-49.333-42.95-7.173-4.389-14.553-8.373-22.088-12.021a171.722,171.722,0,0,1,34.6-32.49M410.19,529.461c16.243-9.67,31.873-18.6,48.958-25.873,2.193,6.427,4.054,12.952,5.713,19.556-4.711,10.2-9.529,21.868-12.515,32.5a184.28,184.28,0,0,1-42.156-26.182m57.609,6.013q.768,3.361,1.531,6.727c1.478,6.507,4.831,12.864,3.26,21.1-4.544-1.407-8.942-3.017-13.265-4.734a181.048,181.048,0,0,1,8.474-23.094m35.631,137.35a32.327,32.327,0,0,1,8.915,3.137,23.51,23.51,0,0,0,.984,4.738c-.185.1-.326.207-.551.309-20.7,8.854-57.164.927-75.762-17.222,23.4-.684,44.8,5.033,66.414,9.039m99.363-10.583c-14.787-24.135-22-49.841-15.656-78.157a46.375,46.375,0,0,1,15.343-25.833c13.111-11.161,28.22-15.841,45.261-16.891,36.6-2.259,66.622,11.223,89.852,38.463,22.719,26.614,32.676,75.074,19.335,146.866-12.206-1.394-24.007-4.142-35.9-6.335a233.783,233.783,0,0,1-59.281-19.547C649,694.621,636,688.52,623.933,681.316a347.385,347.385,0,0,1-45.217-32.142c-16.058-13.517-31.07-27.792-43.836-43.916A206.147,206.147,0,0,1,562.354,558.4c9.661-12.33,22.009-20.756,34.215-22.128C552.689,589.973,574.5,641.7,603.345,665a9.131,9.131,0,0,0-.551-2.757M894.509,235.107c-1.045-8.285-2.528-16.486-4.367-24.6a173.764,173.764,0,0,1,47.017,6.405,614.03,614.03,0,0,1-43.647,84.435l-.022,0c-.088,1.456-1.1,2.585-2.25,1.95-1.473-.812.194-1.888.529-2.837,5.783-21.59,5.519-43.4,2.74-65.351m59.224,58.813c19.644-9.8,39.95-18.409,62.942-18.493.243.432.516.847.754,1.284a190.139,190.139,0,0,1,22.679,94.246c-.653,38.525-1.518,77.086-21.087,112.108-.9,1.637-1.288,3.662-3.494,3.939-3.454.424-2.96-2.7-3.476-4.442-6.485-22.463-18.012-42.72-29.667-62.607-16.975-28.948-40.823-51.618-68.113-70.689,5.223-2.025,10.384-3.935,15.511-5.96a70.015,70.015,0,0,0-20.8,2.312c-.648-.437-1.275-.9-1.928-1.332-3.119-2.065-6.286-4.028-9.5-5.92,16.975-17.059,34.542-33.668,56.171-44.445m202.026,163.307c3.825.15,8,1.129,11.659.838-.825.5-1.65,1-2.47,1.509a46.093,46.093,0,0,1-9.189-2.347m55.165,18.131c5.814,18.043,11.051,35.3,14.35,53.608-6.877.728-13.79,1.1-20.725,1.244-8.907-6.864-19.168-14.112-28.807-19.322a184.2,184.2,0,0,1,35.181-35.53m-39.575,41.679a183.736,183.736,0,0,1,20.518,13.287q-3.355,0-6.71,0c-6.67-.009-13.618,1.844-21.294-1.522,2.36-4.076,4.884-7.963,7.486-11.761m-19.662,48.654c26.711-5.329,50.043.7,70.182,19.357a68.275,68.275,0,0,1,13.393,17.637,115.083,115.083,0,0,1-1.694,47.291c-9.4,37.2-28.86,69.061-54.287,97.466-1.482,1.659-3.084,2.881-5.166,1.443,12.8-35.671,20.866-71.2,8.867-109.024-7.746-24.439-22-43.369-41.966-58.606a145.459,145.459,0,0,0-13.287-8.911,171.379,171.379,0,0,1,23.958-6.652m-2.832,52.029c9.859,12.171,15.308,26.089,13.918,38.3-42.526-54.777-97.819-45.085-126.979-22.185a9.169,9.169,0,0,0,2.806.084c26.835-9.017,53.5-10.305,79.684,2.219a46.362,46.362,0,0,1,21.748,20.729c7.945,15.272,9.127,31.048,6.339,47.891-5.982,36.178-25.833,62.426-57.583,78.974-31.039,16.2-80.509,15.114-147.558-13.993,4.085-11.633,9.405-22.56,14.2-33.7a233.831,233.831,0,0,1,32.257-53.44c8.867-11.055,17.708-22.37,27.422-32.526a346.572,346.572,0,0,1,41.4-36.928c16.715-12.621,33.906-24.117,52.421-32.967a206.134,206.134,0,0,1,39.919,37.546m-344-251.037a186.563,186.563,0,0,1,22.9-7.786q-1.985,2.5-3.979,5c-4.156,5.219-7.032,11.805-14.448,15.718-1.685-4.3-3.137-8.611-4.469-12.93m25.772,45.425c12.454-24.228,31.692-38.741,58.831-42.884a68.733,68.733,0,0,1,22.882.618,115.05,115.05,0,0,1,35.931,30.832c23.217,30.545,35.984,65.633,42.323,103.223.371,2.192.326,4.2-2.091,4.936-19.9-32.248-42.645-60.719-79.693-74.933-23.936-9.185-47.617-9.851-71.981-3.75a145.925,145.925,0,0,0-16,5.1,171.2,171.2,0,0,1,9.793-23.147m39.593,34.661c15.665-.115,29.945,4.306,38.618,13-69.343-.922-96.253,48.345-96.54,85.423.71-.825,1.544-1.4,1.813-2.144,9.688-26.6,25.317-48.248,51.433-60.9a46.351,46.351,0,0,1,29.768-4.072C912.2,481.4,925.27,490.309,936.7,503c24.55,27.236,32.684,59.126,25.82,94.264-6.7,34.392-38.446,72.4-103.1,106.677-6.6-10.468-11.858-21.475-17.606-32.2a234.016,234.016,0,0,1-21.757-58.509c-3.132-13.817-6.485-27.779-8.391-41.706a346.629,346.629,0,0,1-3.132-55.386c.521-20.888,2.215-41.446,6.785-61.4a206.273,206.273,0,0,1,54.9-7.967m-34.643-97.881c-10.918,2.713-22.887,6.255-32.8,10.543a184.16,184.16,0,0,1-5.986-50.3c17.827,6.732,34.656,13.406,51.089,22.216-3.82,6.03-7.958,11.849-12.3,17.54m-79.843-12.5a46.919,46.919,0,0,1-6.657,4.888c2.14-2.479,4.91-4.786,6.957-7.305-.1.807-.207,1.61-.3,2.417M743.678,485a5.817,5.817,0,0,1-1.191-.494c-19.843-10.636-36.417-44.066-33.862-69.921,15.149,17.853,24.051,38.128,34.418,57.512a32.309,32.309,0,0,1,3.26,9.489A18.489,18.489,0,0,0,743.678,485M478.254,920.085A206.45,206.45,0,0,1,458,867.84c-3.6-15.246-2.466-30.152,4.081-40.546,14.54,67.808,68.563,83.072,104.772,75.1a9.014,9.014,0,0,0-2.492-1.292c-28.088-3.525-52.673-13.94-70.826-36.584a46.377,46.377,0,0,1-10.6-28.114c-.529-17.209,5.254-31.934,15.078-45.9,21.091-30,50.366-45.028,86.151-46.157,35.036-1.125,79.19,21.382,127.032,76.852-8.748,8.805-18.325,16.415-27.518,24.448a233.937,233.937,0,0,1-52.152,34.308c-12.767,6.15-25.622,12.546-38.768,17.522a346.044,346.044,0,0,1-53.277,15.458c-20.429,4.164-40.8,7.116-61.226,7.147m73.6,119.85c.609-2.14,1.518-3.935,4.019-3.551,4.045,37.678,12.286,73.173,39.584,101.975,17.633,18.607,38.715,29.42,63.326,34.422a144.689,144.689,0,0,0,16.159,2.25,170.859,170.859,0,0,1-18.678,16.547c-21.7,16.468-45.319,21.241-71.584,13.256a68.344,68.344,0,0,1-20.041-10.217,115.062,115.062,0,0,1-19.115-43.294c-7.773-37.576-4.16-74.739,6.33-111.389m89.764,198.087c6-2.911,11.443-7.61,19.816-7.936-.34,4.654-.9,9.216-1.575,13.733a184.587,184.587,0,0,1-24.144-2.938l5.9-2.859m-17.28,8.514c11.011,2.272,23.385,4.275,34.259,4.725a184.133,184.133,0,0,1-16.216,47.617c-13.137-13.728-25.414-26.989-36.4-42.023,5.947-3.714,12.087-7.116,18.356-10.318M758.346,952.6a233.705,233.705,0,0,1-5.66,62.161c-3.145,13.821-6.154,27.858-10.451,41.243a346.6,346.6,0,0,1-21.1,51.3c-9.511,18.651-20.006,36.447-32.781,52.492a206.2,206.2,0,0,1-52.527-16.406c-14.187-6.652-25.158-16.8-29.235-28.388,62.166,30.734,107.688-2.109,123.939-35.442a9.116,9.116,0,0,0-2.563,1.156c-20.209,19.816-43.647,32.609-72.665,32.764a46.383,46.383,0,0,1-28.617-9.163c-13.812-10.279-21.757-23.954-26.6-40.329-10.4-35.164-3.988-67.442,17.359-96.183,20.87-28.132,65.876-48.733,138.947-51.786,1.416,12.268,1.407,24.44,1.954,36.58M975.9,864.752a233.72,233.72,0,0,1,61.892-8.122c14.17.04,28.529-.11,42.526,1.151A346.55,346.55,0,0,1,1135,867.108c20.288,5.2,40,11.461,58.465,20.412a206.194,206.194,0,0,1-4.451,54.636c-3.366,15.3-10.848,28.238-21.254,34.767,16.3-67.407-25.767-104.582-61.857-113.1.644.874,1.019,1.818,1.69,2.245,23.782,15.352,41.419,35.4,47.961,63.67a46.383,46.383,0,0,1-2.642,29.932c-6.983,15.736-18.572,26.5-33.479,34.824-32.014,17.888-64.91,18.74-97.647,4.244-32.023-14.161-62.02-53.511-81.091-124.076,11.642-4.063,23.5-6.719,35.2-9.912m78,355.694a179.281,179.281,0,0,1-17.875,17.271q.8-3.514,1.606-7.027c1.487-6.5,1.226-13.689,6.211-20.429,3.542,3.3,6.86,6.705,10.058,10.186m-20.562,29.658c8.673-7.142,18.149-15.616,25.578-23.981a183.987,183.987,0,0,1,26.323,41.348c-18.735,1.681-36.628,2.947-55.134,2.069.8-6.516,1.915-12.987,3.234-19.437m30.192-151.908a32.438,32.438,0,0,1-6.445-6.423,27.389,27.389,0,0,0,1.341-4.989c.084,0,.141-.018.229-.013,22.494.992,51.909,23.945,60.807,48.358-21.387-9.529-38.19-23.954-55.933-36.933M1192.564,813.13a32.31,32.31,0,0,1-9.612,1.046,21.586,21.586,0,0,0-2.872-3.639,5.761,5.761,0,0,1,.516-.724c14.8-16.962,51.093-25.644,75.722-17.368-20.787,10.773-42.539,14.911-63.754,20.685m154.021-326.4a172.428,172.428,0,0,1,24.1,40.89,613.834,613.834,0,0,1-93.161,18.365l-.009-.022c-1.2.843-2.709.75-2.925-.547-.287-1.659,1.592-1.019,2.55-1.346,20.5-8.915,37.4-22.693,52.854-38.534,5.858-6,11.377-12.29,16.6-18.806m34.824,86.945c1.081,15.039-.207,30.161-4.6,44.194-9.458-12.242-21.148-22.9-33.919-32.852-9.489-7.394-19.913-13.354-31.815-21.744,23.606-4.778,46.311-7.385,68.263-5.986a152.837,152.837,0,0,1,2.073,16.389m54.883-87.294c2.722,5.969,2.047,10.124-3.706,14.214a148.037,148.037,0,0,1-24.779,14.13,206.028,206.028,0,0,1,18.36-45.711,100.834,100.834,0,0,1,10.124,17.368m-63.313-22.684c5.307,3.278,10.8,6.233,17.668,7.592-4.91-4.023-9.507-8.443-14.765-11.911-4.372-2.907-4.777-5.506-2.466-10.014,7.552-14.769,7.936-14.8,22.869-6.644A89.986,89.986,0,0,1,1419.718,461c-13.772,17.324-22.56,37.4-27.691,60.026-1.526.534-3.066,1.046-4.605,1.548-11.854-19.318-22.838-34.528-33.165-45.857q3.639-4.956,7.094-10.045c3.891-5.744,6.529-6.119,11.629-2.982m-19.468-34.908c4.279.238,4.83,1.447,3,5-4.83,9.365-9.886,10.914-19.026,5.651-5.572-3.2-11.161-6.388-17.513-10.018,11.893-2.245,22.7-1.187,33.536-.631m-111.173,34.846c2.563,4.632,7.036,8.236,11.695,13.442.582-8.774-3.5-14.209-5.532-20.231-.534-1.61-3.031-2.942-1.138-4.9,1.787-1.835,3.966-1.24,5.973-.084,5.122,2.929,10.27,5.876,16.027,9.171.225-7.87-10.142-7.23-9.039-15.621,8.911-3.388,18.687-7.636,28.829-10.768,7.574-2.347,14.231,2.987,21.254,4.875,9.2,2.479,17.923,6.6,27.051,9.458,4.575,1.425,4.844,3.732,2.232,6.608q-2.012,2.21-4.023,4.429a55.686,55.686,0,0,0-12.943-6.772c1.006-1.381,2.6-2.373,5.47-2.585-15.1-6.807-34.361-1.262-41.423,10.808-1.235,2.113-2.488,4.306.591,6.242,6.992,4.438,20.628,1.672,28.665-2.06,3.15-1.465,4.032-4.116,4.685-6.789,1.734,1.787,3.741,3.322,5.461,5.02,1.05,1.041,2.06,2.1,3.088,3.15-20.509,22.317-41.909,43.47-71.646,54.684a116.02,116.02,0,0,1-16.049,4.663c-2.364-10.614-4.606-21.25-6.11-32.023-1.209-8.651-2.656-17.258-4.3-27.9-4.178,15.255-2.74,28.423-.3,43.942-7.349-12.453-10.354-24.889-19.123-35.671,6.114-4.681,12.634-8.823,18.9-13.3,4.729-3.366,8.25-4.063,11.708,2.21m-133.989,33.315a471.379,471.379,0,0,0,12.934-58.288c1.6-10.751,10.989-12.431,19.415-14.668,21.193-5.6,41.521-5.585,60.794,6.922a32.973,32.973,0,0,0,3.291,5.625c-8.342,4.729-16.181,9.163-23.963,13.622-1.253-6.4-6.18-6.33-11.346-7.711-5.466-1.478-10.605.375-14.937,1.478-5.783,1.46-14.972,4.151-14.747,11.209.168,5.078,4.407,12.379,8.9,15.153-12.37,8.73-23.963,18.48-34.078,30.174-1.844,2.131-4.389,4.861-7.1,3.467-4.133-2.113.243-4.875.843-6.983m-34.533-25.2c-4.544,22.97-14.875,42.553-23.6,62.735a32.237,32.237,0,0,1-5.175,8.161,21.842,21.842,0,0,0-4.641-.031,5.576,5.576,0,0,1-.238-.843c-4.028-22.154,11.818-55.928,33.651-70.023M1012.308,268.4c-15.709-.313-31.573,2.223-47.56,6.079-11.69,2.828-22.847,7.279-36.822,11.373,11-21.532,23.138-41,37.974-57.349a151.976,151.976,0,0,1,14.933,9.021c12.33,8.466,23.27,18.81,31.476,30.876M945.673,139.979c6.366,1.588,9.2,4.7,8.823,11.748a147.851,147.851,0,0,1-4.116,27.254A205.713,205.713,0,0,1,926.9,137.156a102.019,102.019,0,0,1,18.775,2.823M886.6,144.121a89.907,89.907,0,0,1,30-7.014c4.848,21.25,14.814,40.378,28.921,58.271-.626,1.822-1.279,3.631-1.95,5.439-22.52-2.74-41.225-3.564-56.466-2.466q-1.634-6.028-3.5-11.973c-2.073-6.622-.723-8.92,4.906-10.962,5.867-2.109,11.6-4.575,16.94-9.1-6.207,1.337-12.529,2.184-18.515,4.142-5,1.615-7.283.318-9.37-4.3-6.864-15.1-6.648-15.418,9.03-22.035m-37.524,24.81c2.845-3.2,4.138-2.881,5.779.759,4.323,9.608,2.391,14.527-7.42,18.409-5.969,2.369-11.946,4.756-18.74,7.477,5.642-10.715,13.2-18.515,20.381-26.645m-41.922,108.7c5.219.878,10.826-.384,17.8-.79-6.5-5.916-13.3-6.1-19.274-8.263-1.6-.582-4.191.547-4.544-2.153-.327-2.541,1.5-3.878,3.648-4.729,5.483-2.184,10.993-4.381,17.156-6.833-6.022-5.073-11.973,3.432-17.853-2.651,2.894-9.083,5.655-19.379,9.515-29.265,2.881-7.389,11.2-9.282,17.041-13.6,7.672-5.66,16.327-9.917,24.241-15.286,3.962-2.7,5.933-1.469,6.56,2.365q.51,3.13,1.023,6.26a53.692,53.692,0,0,0-13.252,6.136c-.675-1.787-.591-3.811,1.218-6.463-14.721,7.579-22.37,26.107-17.324,39.147.887,2.281,1.822,4.628,5.254,3.423,7.826-2.713,14.152-15.109,16.23-23.72.807-3.331-.666-5.651-2.32-7.795,2.8-.15,5.572-.878,8.28-1.2,1.134-.132,2.254-.229,3.384-.344,4.689,29.888,7.9,59.749-1.813,89.954a116.192,116.192,0,0,1-6.194,15.153c-9.533-4.658-19-9.436-28.136-14.849-7.517-4.451-15.144-8.682-24.492-14.037,9.317,12.775,20.513,19.869,34.162,27.638-14.615-2.065-26.389-7.663-40.682-7.288.15-7.685.962-15.347,1.359-23.019.309-5.8,1.954-8.986,9.013-7.791m-94.286,54.883c8.885-20.257,21.7-36.266,43.845-43.475a33.139,33.139,0,0,0,5.88.984c-1.469,9.339-2.859,18.113-4.191,26.848-5.294-2.29-8.223,1.425-12.334,4.46-4.566,3.353-6.317,8.523-8.161,12.6-2.466,5.426-6.088,14.293-.437,18.519,3.86,2.872,11.571,4.147,16.6,2.766-.851,15.069-.437,30.165,2.417,45.314.521,2.77,1.072,6.458-1.707,7.72-4.231,1.915-3.666-3.229-4.941-5.007a471.535,471.535,0,0,0-37.572-46.408c-7.42-7.941-2.894-16.331.6-24.32M684.551,504.448c-37.625-4.5-74.064-4.411-108.248,15.74-22.088,13.018-37.347,31.136-47.736,54a145.1,145.1,0,0,0-5.545,14.443,171.1,171.1,0,0,1-11.757-21.682c-11.139-24.854-10.464-48.945,3.247-72.727a67.868,67.868,0,0,1,13.883-16.684,114.956,114.956,0,0,1,46.457-8.92c38.362.838,73.768,12.683,107.141,31.114,1.945,1.076,3.494,2.365,2.559,4.711M608.758,378.241c29.746,24.492,59.391,49.161,74.624,86.279.719,1.725,2.065,3.287.909,5.183-1.818,2.969-3.957.64-5.642-.044-21.62-8.9-44.648-12.489-67.469-15.744-32.949-4.689-65.281-.291-96.937,9.039,1.734-5.545,3.538-10.949,5.214-16.411a69.359,69.359,0,0,0-11.448,18.312c-.979.309-1.959.6-2.938.926-3.216,1.041-6.383,2.192-9.533,3.388-2.753-24.091-4.826-48.371.3-72.176,4.535-21.1,10.407-41.966,24.184-59.779.282.049.569.071.851.119a190.113,190.113,0,0,1,87.885,40.907M467.424,341.586c14.487-4.438,29.592-6.564,44.322-5.382-9.705,11.871-17.412,25.516-24.214,40.047-5.091,10.892-8.585,22.388-14.112,35.856-9.886-21.89-17.469-43.391-21.007-65.047a152.946,152.946,0,0,1,15.012-5.475m-96.849-34.431c5.214-3.984,9.418-4.248,14.686.45a148.55,148.55,0,0,1,19.631,21.462,206.005,206.005,0,0,1-49.435-7.685,100.814,100.814,0,0,1,15.118-14.227m-33.655,48.724a90.1,90.1,0,0,1,12.259-26.372c20.138,9.6,41.869,13.631,65.294,13.49.768,1.222,1.513,2.466,2.259,3.706-16.186,15.846-28.608,29.945-37.4,42.535q-5.6-2.422-11.271-4.636c-6.472-2.519-7.42-5-5.5-10.676,2.016-5.9,3.675-11.92,3.467-18.916-2.828,5.682-6.114,11.152-8.324,17.05-1.862,4.906-4.3,5.885-9.211,4.632-16.08-4.076-16.194-4.442-11.571-20.813m-4.054,44.8c-.724-4.222.335-5.029,4.2-4.041,10.2,2.625,12.837,7.208,9.74,17.293-1.879,6.141-3.741,12.3-5.863,19.3-4.844-11.095-6.216-21.872-8.082-32.556m61.328,224.2c-10.839.834-14.567-7.941-18.625-15.661-10.124-19.309-14.637-39.019-6.913-60.463a32.461,32.461,0,0,0,4.932-4.742c6.511,7.125,12.648,13.856,18.771,20.5-6.5,2.6-5.25,7.508-5.448,12.992-.216,5.66,2.74,10.252,4.782,14.231,2.717,5.311,7.4,13.662,14.222,11.867,5.078-1.346,11.483-7.455,12.921-12.559,11.293,10.151,23.4,19.313,37.1,26.588,2.488,1.323,5.713,3.2,4.963,6.154-1.143,4.5-4.809.847-7,.732a471.363,471.363,0,0,0-59.7.366m-47.93,94.215c37.7-7.941,75.489-15.687,113.987-4.407,1.8.521,3.856.446,4.619,2.532,1.182,3.269-1.972,3.485-3.556,4.376-20.456,11.324-37.638,27.073-54.433,42.862-24.541,23.09-41.37,51.526-53.9,82.525-3.075-4.539-6.035-9.048-9.1-13.495a70.374,70.374,0,0,0,6.732,19.419c-.238.618-.5,1.213-.732,1.835-1.385,3.675-2.642,7.38-3.82,11.112-20.35-12.678-40.382-26.05-55.677-44.644-14.072-17.1-27.135-35.111-32.274-57.781.446-.406.865-.843,1.319-1.24a190.088,190.088,0,0,1,86.83-43.1m-127.288,135.5a613.3,613.3,0,0,1,92.142,23.636v.022c1.443-.243,2.77.494,2.4,1.756-.459,1.619-1.879.234-2.881.115-22.335-.794-43.532,4.345-64.306,11.973-7.813,2.868-15.444,6.136-22.913,9.732a174.506,174.506,0,0,1-4.447-47.233m10.4-48.005c5.475-13.821,13.058-26.711,22.9-37.361,3.181,15.594,9.26,30.686,16.7,45.6,5.373,10.76,12.206,20.637,19.327,33.337-23.522-5.907-45.279-13.411-64.588-24.263a152.527,152.527,0,0,1,5.66-17.31m-87.205,56.952c.115-6.56,2.519-10.018,9.471-11.227a146.824,146.824,0,0,1,26.68-2.109,205.935,205.935,0,0,1-34.859,31.326,101.827,101.827,0,0,1-1.293-17.99m40.766,60.507c-13.181,10.071-13.543,9.93-23.5-3.865a89.755,89.755,0,0,1-13.786-28.568c19.393-9.308,35.653-23.028,49.832-40.409q3.249.331,6.494.759c2.382,22.573,5.792,40.96,10.323,55.513q-5.565,2.971-11.007,6.154c-5.991,3.5-8.532,2.7-11.783-2.325-3.37-5.245-7.058-10.283-12.665-14.47,2.691,5.748,4.936,11.717,8.183,17.112,2.691,4.509,1.941,7.032-2.091,10.1m9.083,27.148c-3.759-2.056-3.732-3.388-.551-5.805,8.395-6.366,13.623-5.581,19.6,3.106,3.648,5.289,7.314,10.579,11.483,16.591-11.7-3.1-21-8.717-30.532-13.892m110.577-.666c-4.31,7.667-2.965,14.328-3.732,20.637-.212,1.685,1.465,3.966-1.085,4.906-2.4.891-4.111-.587-5.426-2.492-3.353-4.857-6.732-9.732-10.5-15.189-3.6,7.005,6.03,10.9,1.416,17.99-9.5-.785-20.151-1.169-30.655-2.713-7.844-1.151-11.549-8.832-17.072-13.565-7.235-6.207-13.323-13.689-20.324-20.2-3.516-3.26-2.762-5.457.834-6.926q3.07-1.251,6.145-2.506a52.271,52.271,0,0,0,9.043,11.359c-1.645,1.262-3.706,1.813-6.939.551,10.68,12.652,30.452,15.956,42.032,8.113,2.025-1.372,4.1-2.81,2.162-5.885-4.4-7.019-17.893-10.407-26.755-10.5-3.392-.04-5.325,1.884-7.036,3.957-.706-2.991-2.21-5.77-3.216-8.589-.287-.807-.543-1.619-.821-2.431,28.039-11.249,56.387-21.029,87.951-18.334a115.293,115.293,0,0,1,15.881,2.585c-2.378,10.115-4.883,20.2-8.06,30.1-2.665,8.32-5.1,16.7-8.232,27.007,10.38-11.933,14.8-24.422,19.34-39.46,1.262,14.955-1.716,27.854,2.113,41.975-7.5,1.571-15.14,2.5-22.692,3.829-5.722.993-9.2.106-9.613-7.041-.313-5.285-2.8-10.469-4.755-17.174m140.01,44.891a472.268,472.268,0,0,0-36.809,47.013c-6.079,9.013-15.268,6.48-23.839,4.866-21.894-4.151-40.475-13.146-52.456-33.43a33.927,33.927,0,0,0-.26-5.506c9.357-.653,18.157-1.262,26.9-1.91-.6,5.161,3.5,7.142,7.213,10.34,4.284,3.706,9.718,4.262,14.1,5.148,5.841,1.2,15.29,2.757,18.149-3.692,1.862-4.226,1.487-11.549-.719-16.2,14.867-2.541,29.477-6.33,43.594-12.5,2.581-1.125,6.053-2.488,7.905-.062,2.815,3.688-2.325,4.292-3.776,5.933m20.288,37.634c14.006-18.762,31.776-31.979,48.345-46.426a32.356,32.356,0,0,1,8.673-5.386c.049-.018.11-.031.163-.053a16.612,16.612,0,0,0,3.56,1.562,4.718,4.718,0,0,1-.181,1.637c-5.92,21.726-34.784,45.363-60.56,48.667m-13.049,105.469c17.2-34.475,34.608-68.894,67.367-92.054,1.522-1.085,2.744-2.748,4.853-2.042,3.3,1.1,1.509,3.71,1.218,5.505-3.833,23.063-2.166,46.311-.229,69.277,2.828,33.346,14.509,64.01,30.836,92.918-5.66-.432-11.209-.953-16.777-1.341a69.753,69.753,0,0,0,19.988,6.939c.437.741.838,1.5,1.284,2.241,1.862,3.1,3.811,6.141,5.823,9.132-22.732,8.073-45.808,15.5-70.036,15.881-21.823.349-43.731-.666-64.4-10.371-.026-.423-.088-.847-.106-1.271a190.066,190.066,0,0,1,20.178-94.815m65.625,209.2a173.148,173.148,0,0,1-39.584-26.173,613.956,613.956,0,0,1,75.806-57.26l.018.018c.706-1.279,2.109-1.862,2.867-.79.984,1.372-.984,1.615-1.7,2.325-14.54,16.98-23.725,36.761-30.7,57.759-2.642,7.941-4.853,16-6.7,24.122m-69.688-63.247c-7.5-13.009-12.93-27.117-15.114-41.6,13.936,6.966,29.217,11.479,45.169,14.875,11.765,2.5,23.751,3.313,38.119,5.655-19.177,14.637-38.5,26.928-58.9,35.261a153.8,153.8,0,0,1-9.277-14.187M434.93,1387.287c-5.06-4.182-6.269-8.214-2.881-14.408a147.775,147.775,0,0,1,15.819-23.2,205.945,205.945,0,0,1,3.3,48.548,100.951,100.951,0,0,1-16.234-10.945m76.014-15.03c-.988,6.869-3.2,8.355-9.158,7.764-6.2-.631-12.44-.887-19.207.891,6.172,1.474,12.242,3.441,18.484,4.261,5.205.706,6.705,2.863,6.6,7.927-.34,16.587-.67,16.781-17.663,15.974a90.04,90.04,0,0,1-29.548-6.392c4.817-21.448,4.014-43.192-1.125-65.625q1.859-1.879,3.763-3.71c19.115,12.2,35.631,21.056,49.863,26.694q-1.118,6.088-2,12.215m23.606,30.655c-3.948,1.659-4.976.807-4.883-3.185.251-10.535,4.12-14.134,14.646-13.4,6.406.446,12.828.874,20.129,1.359-9.718,7.221-19.9,10.989-29.892,15.224m84.775-79.922c-4.328-3.044-9.93-4.332-16.4-6.979,3.313,8.148,9.361,11.245,13.817,15.78,1.187,1.213,4.014,1.319,3.163,3.9-.8,2.435-3.022,2.854-5.333,2.691-5.885-.4-11.8-.8-18.422-1.248,3.238,7.177,12.281,2.078,14.955,10.107-6.533,6.939-13.473,15.03-21.228,22.282-5.788,5.417-14.1,3.529-21.246,4.9-9.361,1.791-19,1.893-28.463,3.313-4.738.715-5.986-1.24-4.9-4.967q.867-2.951,1.729-5.9a54.834,54.834,0,0,0,14.6.322c-.238,1.782-1.213,3.467-3.838,4.989,16.552-.472,31.458-13.879,32.539-27.823.19-2.44.357-4.958-3.26-5.36-8.227-.931-19.287,7.513-24.885,14.381-2.175,2.669-1.835,5.413-1.266,8.082-2.453-.948-5.086-1.46-7.508-2.285-1.248-.423-2.475-.882-3.71-1.328,8.691-29.014,18.7-57.357,40.523-80.425a116.421,116.421,0,0,1,12.277-11.1c6.679,8.426,13.256,16.922,19.238,25.86,4.866,7.257,9.921,14.368,16.049,23.23-2.9-15.55-9.939-26.773-18.907-39.672,12.162,8.077,20.332,18.069,33.139,23.927-3.454,6.873-7.5,13.437-11.179,20.2-2.784,5.1-5.642,7.261-11.492,3.132m108.742-8.757c-16.684,14.359-35.058,23.24-58,20.3A33.188,33.188,0,0,0,664.9,1331c5.4-7.843,10.486-15.211,15.5-22.573,3.856,4.8,8.188,2.656,13.327,1.668,5.567-1.054,9.379-4.963,12.8-7.848,4.566-3.833,11.659-10.27,8.377-16.521-2.3-4.372-9.013-8.995-14.209-9.736,7.288-13.23,13.442-27.038,17.416-41.948.728-2.722,1.826-6.286,4.875-6.22,4.645.1,1.91,4.491,2.294,6.648a471.481,471.481,0,0,0,13.834,58.085c3.26,10.371-4.447,15.983-11.051,21.678m39.293-72.184c-5.951-22.639-5.219-44.772-6.194-66.736a32.37,32.37,0,0,1,1.12-9.767,19.9,19.9,0,0,0,4.028-1.981,5.735,5.735,0,0,1,.715.8c13.3,18.166,13.808,55.474.331,77.685m91.154-302.219c10.362,6.538,19.8,14.086,29.535,21.2a233.972,233.972,0,0,1,44.948,43.32c8.81,11.095,17.88,22.229,25.626,33.955a346.549,346.549,0,0,1,26.813,48.565c8.629,19.177,16.049,38.569,20.562,58.672a205.881,205.881,0,0,1-44.591,30.011c-14.042,6.948-28.815,9.211-40.418,5.175,62.775-29.473,65.453-85.542,49.51-119.016a8.994,8.994,0,0,0-.7,2.718c2.907,28.158-1.69,54.459-19.649,77.253a46.392,46.392,0,0,1-25,16.671c-16.644,4.4-32.292,2.091-48.116-4.323-33.986-13.777-55.236-38.9-64.411-73.512-8.986-33.8,2.9-81.748,45.888-140.685m-46.819,268.1c.1-1.866-.437-3.856,1.425-5.069,2.92-1.892,3.842,1.134,5.064,2.479,15.652,17.368,34.872,30.549,54.045,43.347,27.558,18.378,58.465,28.339,90.88,33.62-4.067,4.367-8.139,8.554-12.118,12.855a68.81,68.81,0,0,0,18.585-11.862c1.16.168,2.307.375,3.472.534,3.136.419,6.277.719,9.414.993-7.989,23.01-16.662,45.905-31.67,65.223-13.093,16.869-27.28,32.958-47.092,43.06-.128-.093-.269-.172-.4-.269a190.1,190.1,0,0,1-61.584-74.858c-16.247-34.943-32.323-70-30.024-110.052M953.345,1412.1c-15.1-2.272-29.764-6.93-42.61-14.474,13.645-6.463,26.31-15.29,38.547-25.282,9.317-7.61,17.443-16.45,28.264-26.195-.578,23.905-3.048,46.474-9.189,67.442-4.941-.251-9.939-.728-15.012-1.491m71.377,73.212c-6.423,1.332-10.327-.251-13.036-6.767a149.122,149.122,0,0,1-8.567-28.763,206.338,206.338,0,0,1,42.4,28.851,100.206,100.206,0,0,1-20.8,6.679M1076.172,1456a90.22,90.22,0,0,1-21.576,17.888c-14.227-17.553-32.406-30.66-53.987-40.678-.124-1.16-.221-2.325-.326-3.489,21.435-7.248,38.8-14.54,52.249-22.044q3.944,4.546,8.033,8.938c4.742,5.073,4.517,7.724.326,12-4.372,4.447-8.474,9.154-11.324,15.542,5.016-3.891,10.345-7.394,14.893-11.752,3.807-3.613,6.427-3.436,10.309-.181,12.727,10.64,12.67,11.02,1.4,23.773m23.081-38.614c-1.182,4.12-2.484,4.389-5.541,1.818-8.06-6.785-8.448-12.056-1.284-19.8,4.354-4.72,8.7-9.462,13.653-14.853-.45,12.1-3.882,22.4-6.829,32.839m-.9-44.41c-4.46,8.422-10.42,16.009-15.228,24.272-2.4,4.147-4.716,3.9-6.939.715q-1.548-2.223-3.1-4.447a58.764,58.764,0,0,0,9.714-10.8,7.356,7.356,0,0,1,.745,5.13c9.988-13.2,8.858-33.218-1.341-42.787-1.787-1.676-3.644-3.384-6.22-.812-5.876,5.836-6.211,19.746-4.354,28.405.754,3.52,3.287,4.95,5.836,6.211-1.663,1.129-3.242,2.391-4.888,3.445-1.69,1.081-3.388,2.117-5.091,3.154-17.262-25.022-33.214-50.635-37.555-82.207a116.505,116.505,0,0,1-.993-17.214c11.285.018,22.565.146,33.814,1.076,8.708.719,17.421,1.191,28.167,1.923-13.967-7.42-27.13-8.907-42.8-9.935,13.314-4.292,25.723-4.614,37.793-10.23,3.216,7.018,5.814,14.324,8.8,21.453,2.232,5.36,2.131,8.942-4.751,10.923-5.082,1.469-9.59,5.033-15.7,8.422,8.43,2.515,14.633-.265,20.954-.9,1.69-.163,3.542-2.3,5.025-.022,1.394,2.148.331,4.142-1.24,5.841-4,4.341-8.011,8.708-12.5,13.592,7.623,1.963,9.3-8.28,17.24-5.342,1.323,9.44,3.3,19.918,4.1,30.5.6,7.905-6.07,13.212-9.471,19.64m126.86-248.333c-37.422-9.189-74.827-18.59-104.63-45.447-1.394-1.244-3.282-2.069-3.062-4.284.353-3.459,3.286-2.285,5.1-2.4,23.341-1.337,45.65-8.082,67.627-15.03,31.837-10.076,59.127-28.163,83.685-50.383.834,5.677,1.548,11.262,2.4,16.843a69.528,69.528,0,0,0,2.378-21.228c.675-.635,1.376-1.235,2.047-1.879,2.545-2.431,5-4.932,7.416-7.477,12.895,20.447,25.247,41.37,30.942,64.972,5.1,21.118,8.9,42.606,4.076,64.791-.353.1-.7.234-1.05.331a190.073,190.073,0,0,1-96.928,1.191m172.589-65.3a614,614,0,0,1-72.462-61.363l.009-.022c-1.4-.41-2.272-1.654-1.394-2.625,1.12-1.262,1.791.6,2.643,1.147,19.75,10.464,41.066,15.083,63.088,17.284,8.338.834,16.7,1.222,25.048,1.244a172.48,172.48,0,0,1-16.931,44.335m-29.323,37.131c-11.077,10.221-23.7,18.647-37.4,23.963,3.675-15.034,4.707-30.823,4.526-47.022-.141-12.026-1.981-23.892-2.845-38.428,18.458,15.471,34.661,31.6,47.26,49.629a152.554,152.554,0,0,1-11.536,11.858m102.478-11.571c-2.969,5.854-6.639,7.918-13.424,5.969a147.684,147.684,0,0,1-26.477-10.539,205.855,205.855,0,0,1,47.158-14.147,100.716,100.716,0,0,1-7.257,18.718m-6.617-100.621c2.484,3.49,1.884,4.676-2.034,5.466-10.332,2.065-14.694-.917-16.283-11.351-.97-6.348-1.963-12.709-3.092-19.935,9.176,7.892,15.091,17.006,21.409,25.82m-15.14,36.99c.746,6.189,1.866,12.334,5.082,18.546.088-6.348.671-12.7.106-18.974-.454-5.228,1.319-7.169,6.286-8.17,16.256-3.313,16.516-3.031,19.459,13.728a90.043,90.043,0,0,1,.318,29.746c-22.123.04-43.289,5.686-64.173,15.78q-2.065-1.3-4.1-2.642c7.707-21.316,12.745-39.385,15.153-54.525q6.154-.245,12.281-.724c6.917-.538,8.854,1.288,9.586,7.235m-29.574-83.641c6.555,4.456,6.538,12.983,9.445,19.653,3.8,8.739,6.013,18.127,9.476,27.042,1.738,4.464.106,6.114-3.772,5.867l-5.978-.384a55.551,55.551,0,0,0-2.788-14.337c1.712-.079,3.485.543,5.444,2.66-4.089-16.044-20.443-27.642-34.281-25.639-2.422.353-4.919.741-4.513,4.358.9,8.232,11.562,17.169,19.49,21.118,3.11,1.553,5.73.587,8.227-.565-.322,2.47-.265,5.007-.52,7.416-.159,1.46-.353,2.907-.534,4.359-30.236-2.113-60.115-5.647-87.426-21.9a115.347,115.347,0,0,1-13.649-9.63c6.816-8.461,13.728-16.843,21.21-24.735,6.008-6.339,11.832-12.837,19.128-20.765-14.531,6.251-23.928,15.59-34.537,27.175,5.153-13.517,13-23.628,15.961-37.219,7.473,1.862,14.774,4.376,22.181,6.48,5.585,1.6,8.32,3.913,5.576,10.526-2.021,4.892-2.047,10.641-3.212,17.531,7.221-5.02,8.92-11.6,12.361-16.944.926-1.425.41-4.2,3.119-3.944,2.55.251,3.445,2.325,3.794,4.614.9,5.832,1.809,11.695,2.823,18.25,6.291-4.733-.671-12.436,6.578-16.807,8.2,4.853,17.619,9.846,26.4,15.819M1367.87,866.79a32.7,32.7,0,0,0-2.343,6.066c-8.893-3.573-17.249-6.935-25.586-10.23,4.2-4.963,1.081-8.77-1.059-13.667-2.254-5.192-6.908-8.051-10.473-10.751-4.747-3.613-12.586-9.114-17.959-4.539-3.86,3.3-6.922,11.148-6.3,16.388-14.54-4.222-29.389-7.2-44.838-7.813-2.815-.115-6.533-.4-7.142-3.392-.922-4.553,3.966-2.85,5.986-3.7a471.342,471.342,0,0,0,53.63-26.244c9.405-5.457,16.569.834,23.575,6.026,17.6,13.075,30.267,28.974,32.508,51.852" transform="translate(48.644 42.077)" fill="#dfd19d"/><path d="M408.225,179.979c-1.045-7.05-2.073-14.09-8.32-19.031-3.542-2.806-7.146-2.051-9.039.776-4.217,6.322-7.517,13.252-6.811,22.459-.353,2.863,4.654,10.473,5.894,13.883,2.073,5.766,3.789,2.047,9.948-.993,7.866-3.878,9.471-9.564,8.329-17.094" transform="translate(1309.855 543.052)" fill="#dfd19d"/><path d="M398.955,222.5c-2.722-2.991-7.632-.979-10.971,1.751-7.274,5.938-11.915,13.181-10.892,23.442.1,4.182,1.288,6.9,7.063,6.975,10.389.132,21.916-10.261,22.763-20.5.534-6.538-4.95-8.4-7.963-11.664" transform="translate(1285.946 753.977)" fill="#dfd19d"/><path d="M382.545,269.338c-2.709-1.081-5.188-1.319-5.276,2.466-.172,6.82-1,13.826.256,20.416,1.9,9.974,7.958,16.816,20.6,17.213-3.591-5.527,2.17-9.11,2.1-14.041-.154-10.711-7.733-22.075-17.681-26.054" transform="translate(1285.571 916.466)" fill="#dfd19d"/><path d="M387.743,189.742h0c-6.022-1.028-9.679,1.068-9.463,6.93.207,5.616,8.223,10.517,13.975,9.939,3.591-.366,7.526-2.2,10.962.754,1.994,1.729,4.584,1.818,5.726-.035.931-1.526-14.033-18.938-21.2-17.588" transform="translate(1290.449 646.438)" fill="#dfd19d"/><path d="M312.866,248.07c-.551-.185-1.315.172-1.844-.057-7.288-2.951-11.3,3.013-15.828,6.383-4.473,3.322-3.19,15.056.962,14.774,5.276-.344,10.208.825,15.771,1.169l.009-.022c2.7-.428,14.562-17.5,13.151-20.61-2.881-6.335-8.205-.256-12.22-1.637" transform="translate(997.46 841.821)" fill="#dfd19d"/><path d="M306.585,275.622c-.79,1.2-4.067,1.4-2.109,3.467,1.213,1.279,3.362.15,4.067-1.972l-.044.027c-.635-.5-1.279-1.024-1.915-1.522" transform="translate(1036.606 940.268)" fill="#dfd19d"/><path d="M327.7,279.95l-.018-.009Z" transform="translate(1117.878 955.002)" fill="#dfd19d"/><path d="M335.514,231.263Z" transform="translate(1144.586 788.94)" fill="#dfd19d"/><path d="M300.942,53.547c2.02,2.06,11.09,2.894,14.527,4.054,5.8,1.972,3.966-1.685,5.43-8.395,1.871-8.571-1.57-13.371-8.17-17.174-6.163-3.578-12.3-7.169-20.063-5.364-4.4,1.019-6.061,4.306-5.029,7.548,2.312,7.239,5.669,14.139,13.3,19.331" transform="translate(980.246 89.335)" fill="#dfd19d"/><path d="M309.91,67.209c4.517,3.339,13.349.132,16.486-4.725,1.954-3.035,2.978-7.257,7.424-8.1,2.594-.481,4.279-2.453,3.547-4.5-.613-1.681-23.557-.843-26.976,5.6-4.557,4.063-5.2,8.232-.481,11.717" transform="translate(1046.149 167.63)" fill="#dfd19d"/><path d="M343.6,103.076h0c3.335,2.528,6.2,3.3,9.855-1.173,6.586-8.038,5.651-23.531-1.831-30.58-4.773-4.5-9.648-1.368-14.081-1.054-4.032.265-5.523,5.356-5.475,9.67.106,9.392,2.872,17.535,11.532,23.138" transform="translate(1132.843 235.11)" fill="#dfd19d"/><path d="M385.01,122.569c8.982,4.738,18.1,4.266,26.305-5.364h0c-6.555-.644-5.761-7.385-9.661-10.4-8.47-6.564-22.079-7.724-31.4-2.431-2.532,1.443-4.266,3.234-1.363,5.664,5.228,4.389,10.182,9.405,16.119,12.533" transform="translate(1253.289 344.687)" fill="#dfd19d"/><path d="M327.583,164.085c.446,1.368-1.443,4.054,1.394,3.807,1.756-.15,2.214-2.532,1-4.407l-.009.053c-.781.185-1.6.362-2.382.547" transform="translate(1116.819 557.719)" fill="#dfd19d"/><path d="M314.189,149.878c-6.754-1.7-5.316,6.255-8.9,8.532-.49.318-.688,1.129-1.2,1.407-6.851,3.856-4.689,10.715-4.883,16.353-.194,5.572,9.78,11.884,12.153,8.461,3.018-4.341,7.005-7.464,10.746-11.6l-.009-.022c1.35-2.378-4.6-22.3-7.91-23.134" transform="translate(1020.127 510.497)" fill="#dfd19d"/><path d="M312.106,111.695Z" transform="translate(1064.731 381.041)" fill="#dfd19d"/><path d="M289.2,44.717c-2,4.486,2.947,7.358,6.675,9.635l.022-.009c3.648,2.382,8.942,5.444,11.2,1.054,2.687-5.245-4.314-7.954-7.491-11.011-2.643-2.528-8.73-3.41-10.407.331" transform="translate(985.031 143.951)" fill="#dfd19d"/><path d="M218.555,60.511c-.666,4.742,5.192,5.611,8.236,2.713,8.889-8.5,19.525-14.443,24.881-27.532,4.628-11.258-11.615-8.92-7.389-17.138.476-.975-1.006-2.113-2.382-2.285a3.4,3.4,0,0,0-1.822.176c-7.473,4.226-15.89,7.367-19.9,17.324-6.317,7.658-.313,17.456-1.628,26.742" transform="translate(741.083 55.36)" fill="#dfd19d"/><path d="M345.293,148.173l-.022.009Z" transform="translate(1177.871 505.483)" fill="#dfd19d"/></g></g><circle cx="800.5" cy="800.5" r="800.5" transform="translate(187.5 -259)" fill="url(#b)"/></g></svg>