<svg xmlns="http://www.w3.org/2000/svg" xmlns:xlink="http://www.w3.org/1999/xlink" width="102.985" height="102.921" viewBox="0 0 102.985 102.921"><defs><clipPath id="a"><rect width="102.985" height="102.921" fill="#1e1f1f"/></clipPath></defs><g clip-path="url(#a)"><path d="M203.807,55.409Z" transform="translate(-149.925 -40.76)" fill="#1e1f1f"/><path d="M183.88,11.238a1.532,1.532,0,0,0,1.515.322c.243-.062.386-.168.313-.506a1.488,1.488,0,0,0-1.5-1.055c-.389.056-.424.4-.575.622-.138.2.045.459.25.617" transform="translate(-135.047 -7.349)" fill="#1e1f1f"/><path d="M253.983,75.365c.081.03.136.219.231.077.058-.088-.036-.2-.169-.211l0,0c-.02.044-.043.088-.063.132" transform="translate(-186.835 -55.341)" fill="#1e1f1f"/><path d="M253,52.151h0Z" transform="translate(-186.113 -38.363)" fill="#1e1f1f"/><path d="M231.053,1.723a5.816,5.816,0,0,0,1.189-.289A1.169,1.169,0,0,0,232.972,0c-.275.284-.561,0-.848.065a1.8,1.8,0,0,0-1.285,1.382c-.027.173-.007.321.215.275" transform="translate(-169.803)" fill="#1e1f1f"/><path d="M122.326,18.875a2.044,2.044,0,0,0,1.4.1c.172-.018.549-.412.732-.53.309-.2.069-.249-.191-.568a.854.854,0,0,0-1.11-.257,1.6,1.6,0,0,0-1,.741.349.349,0,0,0,.167.517" transform="translate(-89.826 -12.886)" fill="#1e1f1f"/><path d="M73.036,65.713a.2.2,0,0,0-.06.092,2.18,2.18,0,0,0,.07,1.579c.124.582.807.666,1.194,1.074.2.208.457-.034.434-.285a4.887,4.887,0,0,0-.364-2.194c-.355-.637-.852.212-1.079-.292-.028-.059-.137-.032-.2.026" transform="translate(-53.597 -48.296)" fill="#1e1f1f"/><path d="M136.009,29.06h0c.248-.082.589-.217.467-.486-.146-.322-.534-.094-.8-.059-.217.03-.485.282-.373.5.136.261.455.136.7.046" transform="translate(-99.516 -20.893)" fill="#1e1f1f"/><path d="M153.039,16.867c.021.365.192.551.532.459a.8.8,0,0,0,.393-.949c-.069-.2-.229-.41-.1-.65.074-.14.045-.292-.079-.334C153.681,15.359,152.864,16.467,153.039,16.867Z" transform="translate(-112.561 -11.323)" fill="#1e1f1f"/><path d="M227.268,87.283c0,.035.027.075.021.109-.075.465.328.62.585.839s.922-.016.85-.254a7.494,7.494,0,0,1-.143-.937h0c-.061-.152-1.217-.616-1.38-.492-.332.253.1.483.068.736" transform="translate(-167.039 -63.651)" fill="#1e1f1f"/><path d="M92.592,104.856Z" transform="translate(-68.113 -77.134)" fill="#1e1f1f"/><path d="M46.542,89.755a1.533,1.533,0,0,0,1.2-.982c.1-.229.11-.406-.2-.56a1.488,1.488,0,0,0-1.762.515c-.2.339.049.582.126.837.069.232.387.251.638.191" transform="translate(-33.619 -64.808)" fill="#1e1f1f"/><path d="M139.619,77.79c.074-.044.256.03.2-.132-.032-.1-.177-.1-.271,0h0c.021.044.042.089.064.132" transform="translate(-102.657 -57.073)" fill="#1e1f1f"/><path d="M32.082,118.7h0c.3.212.55.194.691-.128s-.17-.782-.5-.9c-.2-.073-.464-.077-.572-.326-.063-.145-.2-.217-.31-.147-.09.058.265,1.387.687,1.5" transform="translate(-23.084 -86.191)" fill="#1e1f1f"/><path d="M120.77,64.4h0Z" transform="translate(-88.841 -47.372)" fill="#1e1f1f"/><path d="M29.959,139.54c.289.057.39-.27.474-.518h0c.09-.245.2-.595-.088-.668-.342-.087-.407.358-.543.585-.112.188-.082.555.158.6" transform="translate(-21.875 -101.767)" fill="#1e1f1f"/><path d="M14.782,141.5a2.043,2.043,0,0,0,.952-1.036,3.637,3.637,0,0,0,.043-.9c.038-.365-.151-.209-.563-.205a.854.854,0,0,0-.894.706,1.6,1.6,0,0,0-.046,1.244.349.349,0,0,0,.508.193" transform="translate(-10.418 -102.488)" fill="#1e1f1f"/><path d="M132.4,104.047c.025.025.075.025.1.051.317.349.689.131,1.021.067s.564-.73.332-.823a7.4,7.4,0,0,1-.821-.473h0c-.157-.047-1.241.566-1.246.771-.009.417.436.227.617.406" transform="translate(-96.943 -75.671)" fill="#1e1f1f"/><path d="M22.3,211.581c.286-.024.259-.378.049-.517a4.89,4.89,0,0,0-1.941-1.086c-.719-.12-.366.8-.9.66-.063-.015-.11.087-.1.169a.2.2,0,0,0,.035.1,2.179,2.179,0,0,0,1.277.931c.532.267,1.024-.215,1.584-.262" transform="translate(-14.274 -154.456)" fill="#1e1f1f"/><path d="M69.662,45.393a5.845,5.845,0,0,0,.517-1.109,1.169,1.169,0,0,0-.665-1.465h0c.05.392-.355.435-.479.7a1.8,1.8,0,0,0,.277,1.867c.118.129.246.206.349,0" transform="translate(-50.677 -31.499)" fill="#1e1f1f"/><path d="M34.519,277c-.184.114-.348.315-.611.246-.153-.041-.295.022-.308.152-.01.107,1.252.654,1.6.394.351-.1.494-.311.329-.621A.8.8,0,0,0,34.519,277" transform="translate(-24.717 -203.691)" fill="#1e1f1f"/><path d="M42.625,301.516c-.263-.257-.258-.011-.511.314a.854.854,0,0,0,0,1.14,1.6,1.6,0,0,0,.946.809.349.349,0,0,0,.467-.278,2.042,2.042,0,0,0-.22-1.389c-.056-.164-.525-.443-.681-.595" transform="translate(-30.819 -221.723)" fill="#1e1f1f"/><path d="M61.87,223.16Z" transform="translate(-45.513 -164.161)" fill="#1e1f1f"/><path d="M53.955,172.232Z" transform="translate(-39.69 -126.698)" fill="#1e1f1f"/><path d="M50.884,292.334c.224-.191.031-.474-.112-.693h0c-.136-.223-.343-.525-.578-.346-.281.214.028.541.121.789.078.205.384.41.571.251" transform="translate(-36.838 -214.242)" fill="#1e1f1f"/><path d="M47.674,175.943h0Z" transform="translate(-35.07 -129.427)" fill="#1e1f1f"/><path d="M70.035,169.012c.011-.085.183-.182.023-.242-.1-.037-.185.08-.168.213l0,0,.143.032" transform="translate(-51.411 -124.146)" fill="#1e1f1f"/><path d="M1.561,201.324A1.169,1.169,0,0,0,0,200.935c.338.2.121.548.254.812a1.8,1.8,0,0,0,1.635.943c.174-.012.314-.065.22-.271a5.817,5.817,0,0,0-.548-1.095" transform="translate(0 -147.705)" fill="#1e1f1f"/><path d="M22.709,244.316a.361.361,0,0,0-.563-.191,1.488,1.488,0,0,0-.691,1.7c.142.366.486.323.734.421.225.09.437-.146.546-.381a1.533,1.533,0,0,0-.025-1.549" transform="translate(-15.733 -179.535)" fill="#1e1f1f"/><path d="M102.73,339.612a4.892,4.892,0,0,0-2.057.846c-.541.489.4.783-.043,1.118-.051.04,0,.14.07.185a.206.206,0,0,0,.1.038,2.18,2.18,0,0,0,1.523-.422c.539-.251.468-.936.779-1.4.159-.239-.136-.438-.375-.36" transform="translate(-73.929 -249.813)" fill="#1e1f1f"/><path d="M87.491,187.728c.035,0,.066-.043.1-.045.47-.031.531-.458.687-.758s-.222-.9-.438-.772a7.442,7.442,0,0,1-.881.35h0a2.488,2.488,0,0,0-.17,1.455c.321.266.449-.2.7-.231" transform="translate(-63.801 -136.926)" fill="#1e1f1f"/><path d="M161.979,371.1c-.331-.062-.723.343-.765.686-.026.215.029.469-.188.631-.127.094-.167.244-.073.335.077.075,1.291-.572,1.307-1.008.139-.338.065-.58-.281-.644" transform="translate(-118.363 -272.982)" fill="#1e1f1f"/><path d="M128.726,361.917h0c-.246-.049-.42-.015-.5.321a1.488,1.488,0,0,0,.9,1.6c.375.117.556-.179.787-.312.211-.12.158-.433.042-.665a1.533,1.533,0,0,0-1.228-.945" transform="translate(-94.306 -266.221)" fill="#1e1f1f"/><path d="M253.9,355.722a4.889,4.889,0,0,0-.62,2.136c.045.728.86.177.847.73,0,.065.11.088.188.061a.2.2,0,0,0,.094-.057,2.181,2.181,0,0,0,.619-1.455c.14-.578-.44-.949-.613-1.484-.088-.273-.427-.167-.515.069" transform="translate(-186.317 -261.506)" fill="#1e1f1f"/><path d="M182.772,371.413c-.01-.294-.352-.319-.612-.345h0c-.259-.033-.624-.059-.631.237-.007.353.441.316.692.4.209.067.56-.045.552-.291" transform="translate(-133.536 -272.952)" fill="#1e1f1f"/><path d="M98.1,280.042c-.06-.062-.028-.256-.175-.169-.091.054-.053.195.062.264v0l.114-.092" transform="translate(-72 -205.865)" fill="#1e1f1f"/><path d="M82.052,351.934a5.812,5.812,0,0,0-1.2-.254,1.168,1.168,0,0,0-1.277.978c.37-.137.5.247.793.308a1.8,1.8,0,0,0,1.756-.691c.1-.144.145-.286-.075-.341" transform="translate(-58.539 -258.703)" fill="#1e1f1f"/><path d="M186.287,382.416c-.163-.058-.674.134-.889.162-.365.046-.17.195-.073.6a.854.854,0,0,0,.89.712,1.6,1.6,0,0,0,1.222-.236.349.349,0,0,0,.074-.539,2.041,2.041,0,0,0-1.224-.694" transform="translate(-136.227 -281.305)" fill="#1e1f1f"/><path d="M124.385,276.37c.408-.085.123-.476.256-.693.018-.03.007-.079.028-.107.268-.388-.028-.7-.165-1.01s-.838-.384-.877-.138a7.433,7.433,0,0,1-.275.907h0c-.011.164.832,1.082,1.032,1.04" transform="translate(-90.74 -201.764)" fill="#1e1f1f"/><path d="M89.42,302.268h0Z" transform="translate(-65.779 -222.354)" fill="#1e1f1f"/><path d="M135.2,320.588Z" transform="translate(-99.453 -235.831)" fill="#1e1f1f"/><path d="M201.944,327.4c-.086.008-.218-.138-.241.031-.015.1.118.163.244.117h0c0-.048,0-.1,0-.146" transform="translate(-148.376 -240.806)" fill="#1e1f1f"/><path d="M256.648,324.138" transform="translate(-188.796 -238.443)" fill="#1e1f1f"/><path d="M214.637,303.023h0a2.49,2.49,0,0,0,1.457-.154c.189-.372-.3-.394-.38-.634-.012-.033-.057-.055-.066-.088-.134-.452-.564-.417-.891-.5s-.825.414-.656.6a7.4,7.4,0,0,1,.535.782" transform="translate(-157.474 -221.888)" fill="#1e1f1f"/><path d="M249.126,380.116a5.817,5.817,0,0,0-.947.775,1.169,1.169,0,0,0-.036,1.609c.125-.375.508-.239.736-.426a1.8,1.8,0,0,0,.56-1.8c-.051-.167-.132-.292-.312-.155" transform="translate(-182.316 -279.578)" fill="#1e1f1f"/><path d="M361.6,251.292c-.364-.471-1.016-.25-1.541-.451-.268-.1-.4.229-.268.445a4.9,4.9,0,0,0,1.278,1.82c.6.42.676-.56,1.1-.2.051.041.137-.03.165-.108a.2.2,0,0,0,.014-.109,2.183,2.183,0,0,0-.747-1.393" transform="translate(-264.629 -184.51)" fill="#1e1f1f"/><path d="M213.715,348.378h0Z" transform="translate(-157.213 -256.274)" fill="#1e1f1f"/><path d="M325.717,316.859h0c-.188.181-.437.45-.211.641.271.227.522-.146.743-.291.183-.121.315-.465.119-.613-.235-.177-.469.075-.652.262" transform="translate(-239.383 -232.851)" fill="#1e1f1f"/><path d="M338.708,318.632a2.044,2.044,0,0,0-1.307.52c-.147.091-.317.61-.43.795-.192.313.046.254.419.429a.854.854,0,0,0,1.112-.249,1.6,1.6,0,0,0,.581-1.1c0-.271-.171-.411-.374-.394" transform="translate(-247.833 -234.392)" fill="#1e1f1f"/><path d="M314.926,332.357c-.177-.32-.412-.414-.678-.184a.8.8,0,0,0,.057,1.026c.151.155.384.27.374.541-.006.158.086.283.216.267C315,333.994,315.257,332.642,314.926,332.357Z" transform="translate(-231.049 -244.26)" fill="#1e1f1f"/><path d="M286.778,352.4a1.533,1.533,0,0,0-1.505.366.361.361,0,0,0-.062.592,1.488,1.488,0,0,0,1.811.3c.327-.219.209-.546.249-.809.039-.239-.239-.394-.492-.449" transform="translate(-209.715 -259.19)" fill="#1e1f1f"/><path d="M343.157,101.807a4.89,4.89,0,0,0,2.22.136c.7-.2-.016-.877.526-.987.063-.014.061-.126.018-.2a.2.2,0,0,0-.077-.079,2.181,2.181,0,0,0-1.555-.284c-.595-.01-.829.638-1.314.923-.247.146-.069.453.181.487" transform="translate(-252.213 -73.809)" fill="#1e1f1f"/><path d="M374.657,170.547c.02-.218-.167-.536-.4-.475-.285.074-.234.413-.2.673h0c.025.26.079.622.369.564.346-.07.211-.5.236-.762" transform="translate(-275.141 -125.103)" fill="#1e1f1f"/><path d="M102.685,57.739a9,9,0,0,0,1.553-.041c1.367-.193,2.685-.605,4.025-.912a2.1,2.1,0,0,0,1.017-.364c-.429-.142-.7.142-1.015.184-1.016.136-2.034.192-3.057.244a16.7,16.7,0,0,1-4.012-.375c-.855-.166-1.7-.382-2.568-.49a8.969,8.969,0,0,0-4.966,1,7.808,7.808,0,0,1-4,.015c.127-.1.213-.166.3-.229a35.193,35.193,0,0,0,4.645-3.509,7.509,7.509,0,0,1,2.33-1.485c.04.182.077.365.111.55h0v0l.143-.033h0a2.332,2.332,0,0,0,.027-.629c.711-.28,1.447-.5,2.18-.719a19.089,19.089,0,0,1,3.657-.581,4.593,4.593,0,0,1,2.066.266,11.8,11.8,0,0,1,3.578,2.433l.179.152c.029-.036-.031-.158-.1-.259a9.33,9.33,0,0,0-2.338-2.3c-.119-.085-.32-.146-.277-.3.03-.113.207-.178.364-.219a8.273,8.273,0,0,1,4.942-.185c.139.054.292.106.318.068a3.356,3.356,0,0,0-1.5-.708,12.324,12.324,0,0,0-3.379.081,13.5,13.5,0,0,1-2.167.2,23.661,23.661,0,0,0-3.567.2,1.183,1.183,0,0,0,.655-1.123c0-.339-.238-.394-.449-.48-.269-.109-.332.16-.369.3a5.738,5.738,0,0,0-.321,1.346h0a.249.249,0,0,0-.03.029c-.286.045-.571.095-.857.152a6.372,6.372,0,0,1-1.6.342c.068-.1.087-.154.124-.177a9.436,9.436,0,0,0,1.55-1.161c0,.024.005.046.01.071.07.343.171.505.4.545.269.045.411-.181.431-.463a3.564,3.564,0,0,1,.219-.785c.118-.383.275-.359.536-.179a.237.237,0,0,0,.287.025,7.581,7.581,0,0,0-.423-.751.52.52,0,0,0-.085-.092,10.618,10.618,0,0,0,1.383-3.171,4.654,4.654,0,0,1,1.094-2.051,6.66,6.66,0,0,1,1.476-1.023.289.289,0,0,0-.385-.068,4.591,4.591,0,0,0-2.361,1.927c-.421.732-.743,1.509-1.094,2.271A7.227,7.227,0,0,1,97.4,49.151c-.333.135-.5.167-.446-.312.146-1.226.265-2.456.366-3.687a8.647,8.647,0,0,1,2.9,1.13,7.447,7.447,0,0,0-1.794-1.426,4.916,4.916,0,0,0-1.033-.415q.05-.43.124-.851a10.1,10.1,0,0,0,2.062-.963c.093-.057.207-.107.289.03l.118-.02a.807.807,0,0,1,.289-.4,11.56,11.56,0,0,1,2.027-.916,9.364,9.364,0,0,1,3.519-.445,8.755,8.755,0,0,0-4.866.411c.947-2.451,3.095-3.43,5.1-4.575a8.7,8.7,0,0,0-6.064,4.2,6.507,6.507,0,0,0-.7-1.913q.252-.394.537-.775a.474.474,0,0,0,.146-.447,8.489,8.489,0,0,0-.931.817,6.718,6.718,0,0,0-1.826-1.806c-.223-.153.164-.715.247-.86a19.539,19.539,0,0,1,1.7-2.329c.381-.487.808-.935,1.19-1.425A22.32,22.32,0,0,0,97.22,34.93,38.068,38.068,0,0,0,98.887,31.1c-.2.095-.241.249-.312.374a50.8,50.8,0,0,1-2.7,4.311c-.192.273-.348.243-.6.164a10.463,10.463,0,0,0-2.434-.507c-.616-.039-.633-.045-.323-.6a10.4,10.4,0,0,0,.7-1.275,18.2,18.2,0,0,0,.918-4.595,1.9,1.9,0,0,0-.019-.883,2.98,2.98,0,0,0-.216.531,11.886,11.886,0,0,1-1.094,3.152,10.144,10.144,0,0,1-3.921,4.237.492.492,0,0,1-.413.064c-.7-.153-1.4-.3-2.106-.427-.43-.076-.869-.1-1.3-.148a21.893,21.893,0,0,0,4.894-2.055,11.149,11.149,0,0,0,2.517-1.8c-.014-.031-.339.076-.4.11A20.876,20.876,0,0,1,85.2,34.123a10.157,10.157,0,0,0-3.823.951c-.073.042-.146.071-.193,0a.352.352,0,0,1-.01-.316,10.073,10.073,0,0,1,1.3-3.174,8.418,8.418,0,0,1,1.436-1.215c2.008-1.106,4.123-2.047,5.6-3.932a8.448,8.448,0,0,0,1.4-2.286,1.766,1.766,0,0,0-.3.256,13,13,0,0,1-3.548,3.154c-.455.291-.938.537-1.413.8-.111.062-.263.142-.349,0-.059-.1.063-.18.137-.266a8.969,8.969,0,0,0,.937-1.24c.7-1.189,1.2-2.476,1.8-3.715a2.091,2.091,0,0,0,.35-1.022c-.378.246-.324.634-.489.908-.527.879-1.118,1.71-1.716,2.541a16.7,16.7,0,0,1-2.8,2.9c-.663.565-1.362,1.095-1.985,1.7a8.969,8.969,0,0,0-2.313,4.508,7.808,7.808,0,0,1-2.484,3.136c0-.159,0-.27.011-.381a35.2,35.2,0,0,0,.154-5.82,7.5,7.5,0,0,1,.292-2.745q.224.111.446.23h0l0,0,.063-.133h0a2.3,2.3,0,0,0-.425-.379c.225-.734.516-1.448.8-2.162A19.092,19.092,0,0,1,79.9,23.2a4.59,4.59,0,0,1,1.5-1.449,11.8,11.8,0,0,1,4.133-1.279l.231-.045c-.01-.045-.143-.075-.264-.084a9.328,9.328,0,0,0-3.255.394c-.141.039-.314.159-.408.028-.069-.094-.01-.273.056-.42a8.272,8.272,0,0,1,2.938-3.978c.129-.075.265-.163.252-.206a3.356,3.356,0,0,0-1.488.73,12.325,12.325,0,0,0-2.044,2.692A13.441,13.441,0,0,1,80.354,21.4,23.623,23.623,0,0,0,78.2,24.469a1.243,1.243,0,0,0-.442-1.39c-.268-.208-.457-.059-.655.053-.253.142-.081.36.008.477a5.753,5.753,0,0,0,.853,1.089h0c0,.073.012.111.041.122-.132.235-.267.468-.391.709a6.347,6.347,0,0,1-.73,1.462c-.035-.116-.066-.164-.061-.208a9.438,9.438,0,0,0,.06-1.922c.312.158.5.181.675.025.2-.182.114-.435-.094-.626a3.583,3.583,0,0,1-.478-.66c-.226-.33-.11-.439.194-.531a.237.237,0,0,0,.2-.209,7.739,7.739,0,0,0-.851-.136.513.513,0,0,0-.07,0A10.628,10.628,0,0,0,74.85,19.7a4.648,4.648,0,0,1-.921-2.134,6.643,6.643,0,0,1,.12-1.792.289.289,0,0,0-.293.259,4.593,4.593,0,0,0,.033,3.048c.31.786.716,1.521,1.093,2.272a7.226,7.226,0,0,1,.541,5.513c-.1.344-.183.5-.522.154q-1.319-1.336-2.691-2.621a8.647,8.647,0,0,1,2.663-1.544,7.444,7.444,0,0,0-2.232.517,4.748,4.748,0,0,0-.939.531q-.313-.318-.6-.65a10.09,10.09,0,0,0,.513-2.171c.013-.108.045-.229.2-.208l.058-.1a.808.808,0,0,1-.13-.473,11.579,11.579,0,0,1,.545-2.156,9.369,9.369,0,0,1,1.842-3.031,8.756,8.756,0,0,0-2.707,4.065c-1.329-2.267-.759-4.557-.408-6.838a8.7,8.7,0,0,0-.486,7.36,6.546,6.546,0,0,0-1.863-.634q-.151-.442-.27-.9a.474.474,0,0,0-.258-.393A8.51,8.51,0,0,0,68.2,19a6.689,6.689,0,0,0-2.62.3c-.258.079-.458-.573-.52-.729a19.542,19.542,0,0,1-.764-2.78c-.144-.6-.229-1.214-.375-1.819a22.346,22.346,0,0,0,.2,4.164,38.062,38.062,0,0,0-1.957-3.686.668.668,0,0,0,.1.477c.643,1.57,1.212,3.166,1.7,4.793.094.32-.026.424-.247.575a10.447,10.447,0,0,0-1.911,1.59c-.414.458-.43.467-.671-.12a10.371,10.371,0,0,0-.56-1.345,18.193,18.193,0,0,0-3.025-3.578,1.9,1.9,0,0,0-.7-.535,3,3,0,0,0,.281.5,11.892,11.892,0,0,1,1.786,2.818,10.145,10.145,0,0,1,.876,5.706.493.493,0,0,1-.207.363c-.554.452-1.11.907-1.645,1.382-.327.289-.619.618-.927.929a21.9,21.9,0,0,0,1.437-5.11,11.136,11.136,0,0,0,.162-3.087c-.033-.009-.151.312-.164.383a20.883,20.883,0,0,1-2.435,6.856,10.163,10.163,0,0,0-1.635,3.584c-.013.084-.035.158-.117.154-.115-.008-.183-.09-.254-.19A10.076,10.076,0,0,1,52.327,27.6a8.432,8.432,0,0,1-.058-1.88c.384-2.26.964-4.5.406-6.828a8.445,8.445,0,0,0-.918-2.518,1.769,1.769,0,0,0,.013.4,13,13,0,0,1,.261,4.74c-.055.537-.164,1.068-.256,1.6-.021.126-.053.294-.219.272-.112-.014-.1-.162-.123-.273a9.013,9.013,0,0,0-.387-1.505c-.494-1.289-1.19-2.481-1.789-3.719a2.091,2.091,0,0,0-.582-.91c-.043.449.294.649.407.948.36.96.642,1.939.921,2.925a16.7,16.7,0,0,1,.532,3.994c.03.871.009,1.747.1,2.613a8.971,8.971,0,0,0,2.089,4.616,7.809,7.809,0,0,1,.909,3.9c-.122-.1-.209-.17-.291-.245a35.236,35.236,0,0,0-4.459-3.743,7.506,7.506,0,0,1-1.969-1.94c.179-.085.359-.167.543-.246h0l0,0-.064-.133h0a2.364,2.364,0,0,0-.654.126c-.431-.629-.806-1.3-1.185-1.96a19.091,19.091,0,0,1-1.385-3.435,4.592,4.592,0,0,1-.2-2.073,11.8,11.8,0,0,1,1.571-4.031l.109-.209c-.042-.02-.147.066-.23.154a9.324,9.324,0,0,0-1.717,2.793c-.057.135-.071.344-.232.337-.117,0-.22-.162-.295-.305a8.275,8.275,0,0,1-1.285-4.776c.021-.148.038-.309,0-.325a3.356,3.356,0,0,0-.355,1.619,12.318,12.318,0,0,0,.834,3.276,13.471,13.471,0,0,1,.681,2.067A23.712,23.712,0,0,0,44,26.266a1.159,1.159,0,0,0-1.176-.326c-.33.079-.332.32-.368.544-.047.287.23.288.378.292a5.905,5.905,0,0,0,1.37.016c.113.282.23.562.355.84a6.358,6.358,0,0,1,.691,1.482c-.113-.045-.17-.05-.2-.081a9.43,9.43,0,0,0-1.485-1.255c.035-.012.07-.025.106-.041.319-.145.454-.279.442-.512-.016-.272-.268-.36-.548-.317a3.574,3.574,0,0,1-.814-.039c-.4-.029-.411-.188-.294-.483a.237.237,0,0,0-.039-.286,7.688,7.688,0,0,0-.638.58.523.523,0,0,0-.085.132,10.607,10.607,0,0,0-3.419-.646,4.651,4.651,0,0,1-2.244-.608,6.647,6.647,0,0,1-1.327-1.21.289.289,0,0,0,.02.391,4.59,4.59,0,0,0,2.406,1.871c.807.247,1.636.386,2.458.558a7.226,7.226,0,0,1,4.652,3.007c.206.294.275.453-.2.5-1.217.131-2.433.288-3.646.464a8.65,8.65,0,0,1,.457-3.095,7.453,7.453,0,0,0-.991,2.067,5,5,0,0,0-.177,1.121c-.282.031-.563.055-.842.07a10.1,10.1,0,0,0-1.411-1.818c-.076-.077-.15-.178-.035-.289l-.045-.11A.809.809,0,0,1,36.9,28.9a11.57,11.57,0,0,1-1.344-1.772,9.364,9.364,0,0,1-1.217-3.331,8.752,8.752,0,0,0,1.484,4.653c-2.6-.378-4.033-2.254-5.6-3.951a8.7,8.7,0,0,0,5.445,4.976,6.492,6.492,0,0,0-1.74,1.138q-.44-.157-.875-.35a.473.473,0,0,0-.468-.043,8.516,8.516,0,0,0,1,.725,6.733,6.733,0,0,0-1.324,2.153c-.1.251-.734,0-.894-.049A19.527,19.527,0,0,1,28.724,31.9c-.559-.263-1.092-.579-1.655-.843a22.342,22.342,0,0,0,3.38,2.441,38.116,38.116,0,0,0-4.1-.774.667.667,0,0,0,.434.221,50.711,50.711,0,0,1,4.8,1.669c.309.126.315.285.295.552a10.466,10.466,0,0,0,.048,2.486c.1.609.1.628-.513.449a10.344,10.344,0,0,0-1.4-.4,18.2,18.2,0,0,0-4.684.127,1.9,1.9,0,0,0-.856.215,3,3,0,0,0,.566.092,11.888,11.888,0,0,1,3.317.365,10.145,10.145,0,0,1,5,2.879.492.492,0,0,1,.154.389c.007.716.016,1.433.052,2.149.022.436.1.87.146,1.3a21.9,21.9,0,0,0-3.093-4.314,11.151,11.151,0,0,0-2.311-2.054c-.027.021.15.313.2.367A20.87,20.87,0,0,1,32.339,45.4a10.168,10.168,0,0,0,1.778,3.514c.058.062.1.127.047.188a.352.352,0,0,1-.306.08,10.071,10.071,0,0,1-3.384-.563,8.425,8.425,0,0,1-1.5-1.129c-1.525-1.712-2.913-3.564-5.08-4.581a8.451,8.451,0,0,0-2.54-.856,1.758,1.758,0,0,0,.317.237,13.008,13.008,0,0,1,3.865,2.756c.385.379.732.8,1.091,1.2.085.095.2.224.075.341-.081.079-.19-.022-.29-.074a8.983,8.983,0,0,0-1.418-.637c-1.315-.42-2.681-.62-4.022-.926a2.093,2.093,0,0,0-1.074-.113c.325.314.691.175.995.274.974.318,1.916.709,2.86,1.107A16.714,16.714,0,0,1,27.2,48.3c.7.521,1.37,1.084,2.1,1.556a8.967,8.967,0,0,0,4.91,1.251,7.813,7.813,0,0,1,3.611,1.723c-.156.032-.264.057-.374.074a35.187,35.187,0,0,0-5.708,1.146A7.505,7.505,0,0,1,29,54.378q.054-.219.113-.439h0s0,0,0,0l-.144-.032h0a2.3,2.3,0,0,0-.255.452c-.769-.055-1.534-.181-2.3-.3A19.11,19.11,0,0,1,22.869,53a4.59,4.59,0,0,1-1.746-1.137,11.8,11.8,0,0,1-2.167-3.745l-.095-.215c-.041.02-.041.156-.023.276a9.321,9.321,0,0,0,1.109,3.086c.07.129.225.27.118.392-.076.089-.264.071-.422.039a8.271,8.271,0,0,1-4.533-1.979c-.1-.109-.217-.222-.257-.2A3.357,3.357,0,0,0,15.9,50.8,12.318,12.318,0,0,0,18.976,52.2a13.458,13.458,0,0,1,2.04.759,23.477,23.477,0,0,0,3.644,1.473,1.323,1.323,0,0,0-1.438.743c-.143.308.045.459.2.627.2.215.369,0,.464-.115a5.746,5.746,0,0,0,.87-1.075h0c.111-.022.13-.065.09-.123.267.08.536.156.807.226a6.363,6.363,0,0,1,1.588.386c-.105.06-.145.1-.189.106a9.453,9.453,0,0,0-1.883.368c.068-.3.041-.482-.139-.609-.223-.156-.449-.014-.589.232a3.571,3.571,0,0,1-.536.613c-.271.295-.4.206-.561-.07a.237.237,0,0,0-.249-.147,7.7,7.7,0,0,0,.058.86c0,.008,0,.015.006.022a10.651,10.651,0,0,0-2.578,2.23,4.652,4.652,0,0,1-1.876,1.373,6.661,6.661,0,0,1-1.774.282.289.289,0,0,0,.318.228,4.59,4.59,0,0,0,2.964-.711c.7-.477,1.324-1.037,1.971-1.571a7.227,7.227,0,0,1,5.254-1.755c.358.023.526.068.266.475q-1.02,1.6-1.978,3.243a8.638,8.638,0,0,1-2.081-2.233,7.447,7.447,0,0,0,1,2.06,4.635,4.635,0,0,0,.7.773q-.248.387-.517.751a10.084,10.084,0,0,0-2.187-.01c-.108.012-.233.007-.248-.152l-.115-.033a.808.808,0,0,1-.432.232,11.551,11.551,0,0,1-2.224-.048,9.366,9.366,0,0,1-3.367-1.116,8.753,8.753,0,0,0,4.568,1.728c-1.911,1.8-4.272,1.76-6.573,1.929a8.7,8.7,0,0,0,7.282-1.175,6.563,6.563,0,0,0-.2,1.9q-.4.247-.823.467a.474.474,0,0,0-.325.339,8.549,8.549,0,0,0,1.189-.33,6.67,6.67,0,0,0,.887,2.544c.135.234-.456.575-.594.67a19.549,19.549,0,0,1-2.539,1.368c-.554.275-1.132.5-1.689.773a22.344,22.344,0,0,0,4.013-1.132A38.165,38.165,0,0,0,18.3,72.3a.667.667,0,0,0,.443-.2,50.814,50.814,0,0,1,4.292-2.727c.291-.164.419-.07.616.112a10.446,10.446,0,0,0,1.978,1.506c.539.3.552.314.033.681a10.393,10.393,0,0,0-1.186.847,18.211,18.211,0,0,0-2.81,3.749,1.9,1.9,0,0,0-.364.8,2.98,2.98,0,0,0,.424-.386,11.886,11.886,0,0,1,2.347-2.373,10.144,10.144,0,0,1,5.365-2.132.493.493,0,0,1,.4.121c.565.439,1.133.879,1.716,1.294.355.254.741.465,1.113.7a21.911,21.911,0,0,0-5.3-.256,11.143,11.143,0,0,0-3.045.534,1.156,1.156,0,0,0,.41.074,20.873,20.873,0,0,1,7.227.838,10.162,10.162,0,0,0,3.859.79c.084-.006.162,0,.176.08a.354.354,0,0,1-.128.29,10.072,10.072,0,0,1-2.544,2.3,8.448,8.448,0,0,1-1.819.477c-2.289.131-4.6.068-6.745,1.134a8.445,8.445,0,0,0-2.249,1.458,1.752,1.752,0,0,0,.383-.1A13.005,13.005,0,0,1,27.453,80.6c.536-.067,1.078-.079,1.618-.109.127-.008.3-.015.314.153.011.112-.135.135-.239.181a8.993,8.993,0,0,0-1.38.715c-1.146.77-2.152,1.716-3.224,2.576a2.09,2.09,0,0,0-.756.771c.447-.059.566-.432.833-.609.855-.566,1.746-1.06,2.644-1.553a16.714,16.714,0,0,1,3.774-1.413c.842-.224,1.7-.4,2.524-.679a8.969,8.969,0,0,0,4.031-3.07A7.81,7.81,0,0,1,41.185,75.8c-.072.142-.119.242-.174.339a35.2,35.2,0,0,0-2.648,5.184,7.512,7.512,0,0,1-1.448,2.352q-.164-.209-.323-.425h0l0,0-.114.092h0a2.323,2.323,0,0,0,.236.554c-.518.563-1.087,1.081-1.652,1.6a19.1,19.1,0,0,1-3.037,2.118,4.59,4.59,0,0,1-1.975.662,11.8,11.8,0,0,1-4.281-.629l-.227-.059c-.01.045.1.128.2.189a9.325,9.325,0,0,0,3.107,1.048c.144.025.351-.008.38.151.022.114-.109.251-.232.355a8.276,8.276,0,0,1-4.366,2.322c-.149.012-.309.032-.316.077a3.361,3.361,0,0,0,1.657-.017,12.329,12.329,0,0,0,3.005-1.547,13.454,13.454,0,0,1,1.862-1.127,23.639,23.639,0,0,0,3.189-1.784,1.209,1.209,0,0,0-.146,1.364c.152.3.387.251.613.236.29-.019.229-.289.2-.434a5.728,5.728,0,0,0-.3-1.351h0a.213.213,0,0,0,.027-.086c.226-.158.45-.319.671-.487a6.357,6.357,0,0,1,1.289-1,.787.787,0,0,1-.034.214,9.453,9.453,0,0,0-.886,1.715c-.008-.011-.013-.021-.021-.031-.213-.278-.375-.38-.6-.315-.261.077-.291.342-.185.605a3.564,3.564,0,0,1,.145.8c.062.4-.09.443-.4.4a.237.237,0,0,0-.27.1,7.625,7.625,0,0,0,.709.491.5.5,0,0,0,.092.039,10.627,10.627,0,0,0,.141,3.441,4.65,4.65,0,0,1-.09,2.323,6.643,6.643,0,0,1-.881,1.565.289.289,0,0,0,.376-.107,4.593,4.593,0,0,0,1.284-2.764c.059-.842.01-1.681-.006-2.521a7.226,7.226,0,0,1,1.889-5.207c.241-.266.38-.37.538.086q.61,1.761,1.288,3.5a8.651,8.651,0,0,1-3.085.246,7.441,7.441,0,0,0,2.237.5,4.832,4.832,0,0,0,1.095-.076q.144.415.261.832a10.1,10.1,0,0,0-1.418,1.753c-.058.092-.14.187-.274.1l-.1.069a.808.808,0,0,1-.088.483,11.583,11.583,0,0,1-1.423,1.709,9.369,9.369,0,0,1-2.971,1.938,8.756,8.756,0,0,0,4.2-2.5c.219,2.618-1.285,4.438-2.586,6.343A8.7,8.7,0,0,0,38.937,94.8a6.536,6.536,0,0,0,1.438,1.4q-.054.463-.145.93a.475.475,0,0,0,.063.466,8.486,8.486,0,0,0,.48-1.139,6.711,6.711,0,0,0,2.461.842c.267.04.166.715.154.882a19.52,19.52,0,0,1-.512,2.838c-.13.6-.318,1.194-.448,1.8a22.339,22.339,0,0,0,1.615-3.844,38.05,38.05,0,0,0,.172,4.17.668.668,0,0,0,.117-.472,50.781,50.781,0,0,1,.541-5.056c.053-.33.207-.371.471-.412a10.449,10.449,0,0,0,2.411-.608c.571-.234.59-.236.553.4a10.409,10.409,0,0,0-.077,1.455,18.207,18.207,0,0,0,1.182,4.534,1.9,1.9,0,0,0,.4.786,2.974,2.974,0,0,0-.038-.572,11.886,11.886,0,0,1-.393-3.314,10.145,10.145,0,0,1,1.675-5.524.492.492,0,0,1,.344-.238c.7-.168,1.393-.339,2.081-.536.42-.12.825-.289,1.237-.437a21.886,21.886,0,0,0-3.5,3.988,11.131,11.131,0,0,0-1.48,2.715c.026.022.272-.217.314-.275a20.875,20.875,0,0,1,5.158-5.13,10.161,10.161,0,0,0,3.022-2.526c.048-.07.1-.128.172-.088a.353.353,0,0,1,.147.281,10.073,10.073,0,0,1,.215,3.424,8.412,8.412,0,0,1-.76,1.72c-1.323,1.872-2.814,3.643-3.316,5.982a8.448,8.448,0,0,0-.26,2.668,1.764,1.764,0,0,0,.16-.362,13,13,0,0,1,1.813-4.387c.282-.461.61-.893.923-1.334.073-.1.174-.242.315-.15.095.061.022.19-.007.3a9,9,0,0,0-.3,1.525c-.112,1.376,0,2.752.006,4.127a2.1,2.1,0,0,0,.132,1.072c.233-.387.015-.712.043-1.031.09-1.021.259-2.026.433-3.036A16.7,16.7,0,0,1,59.2,98.8c.349-.8.747-1.58,1.042-2.4a8.971,8.971,0,0,0,.111-5.065,7.807,7.807,0,0,1,.863-3.906c.066.145.115.244.157.347a35.2,35.2,0,0,0,2.4,5.3,7.509,7.509,0,0,1,.938,2.6c-.217,0-.434,0-.654-.014h0c0,.049,0,.1,0,.147h0a2.4,2.4,0,0,0,.7.177c.116.75.165,1.511.22,2.269a19.106,19.106,0,0,1-.236,3.7,4.592,4.592,0,0,1-.713,1.957,11.8,11.8,0,0,1-3.159,2.956l-.188.141c.029.035.161,0,.274-.04a9.328,9.328,0,0,0,2.756-1.777c.109-.1.213-.28.355-.2.1.054.129.241.134.4a8.273,8.273,0,0,1-.9,4.862c-.083.124-.167.262-.137.3a3.356,3.356,0,0,0,1.019-1.307,12.317,12.317,0,0,0,.663-3.315,13.466,13.466,0,0,1,.279-2.158,23.78,23.78,0,0,0,.564-3.307,1.137,1.137,0,0,0,.866.677c.332.072.438-.144.567-.331.167-.238-.082-.36-.214-.427a6.716,6.716,0,0,0-1.165-.59c.021-.31.037-.621.044-.933a6.373,6.373,0,0,1,.017-1.635c.082.089.131.119.146.16a9.425,9.425,0,0,0,.806,1.788,1.283,1.283,0,0,0-.185-.018c-.35-.008-.531.055-.62.27-.1.252.085.441.356.523a3.583,3.583,0,0,1,.716.388c.347.2.289.347.055.562a.237.237,0,0,0-.089.275,7.721,7.721,0,0,0,.826-.246.517.517,0,0,0,.173-.118,10.588,10.588,0,0,0,2.831,2.089,4.649,4.649,0,0,1,1.761,1.517,6.653,6.653,0,0,1,.675,1.665.29.29,0,0,0,.151-.361A4.592,4.592,0,0,0,72.046,103c-.622-.571-1.309-1.055-1.976-1.566a7.227,7.227,0,0,1-2.9-4.722c-.059-.354-.052-.527.4-.367,1.139.4,2.288.78,3.442,1.142a8.651,8.651,0,0,1-1.766,2.618,7.452,7.452,0,0,0,1.789-1.433,5.161,5.161,0,0,0,.662-.963q.391.135.769.291a10.093,10.093,0,0,0,.487,2.29c.035.1.058.226-.094.275,0,.04,0,.08-.007.119.125.107.266.187.322.37a11.568,11.568,0,0,1,.443,2.18,9.367,9.367,0,0,1-.347,3.53,8.755,8.755,0,0,0,.68-4.836c2.18,1.467,2.658,3.779,3.329,5.987a8.7,8.7,0,0,0-2.749-6.845,6.476,6.476,0,0,0,2.13-.29q.327.33.635.69a.473.473,0,0,0,.4.24,8.5,8.5,0,0,0-.594-1.09,6.766,6.766,0,0,0,2.063-1.341c.2-.183.661.319.784.432a19.551,19.551,0,0,1,1.893,2.175c.39.48.732,1,1.125,1.477A22.333,22.333,0,0,0,80.987,99.7a38.092,38.092,0,0,0,3.36,2.475.666.666,0,0,0-.3-.387c-1.26-1.137-2.464-2.328-3.6-3.586-.224-.248-.16-.393-.026-.625a10.456,10.456,0,0,0,1.034-2.261c.175-.592.185-.608.657-.182a10.372,10.372,0,0,0,1.087.97,18.2,18.2,0,0,0,4.276,1.915,1.9,1.9,0,0,0,.865.178,2.979,2.979,0,0,0-.47-.328A11.891,11.891,0,0,1,85.04,96.1a10.143,10.143,0,0,1-3.261-4.764.492.492,0,0,1,.029-.417c.3-.648.608-1.3.884-1.959.169-.4.291-.825.433-1.238a21.887,21.887,0,0,0,.918,5.228A11.147,11.147,0,0,0,85.235,95.8a1.151,1.151,0,0,0-.018-.417,20.874,20.874,0,0,1-.774-7.234,10.166,10.166,0,0,0-.079-3.938c-.025-.081-.037-.158.039-.189a.353.353,0,0,1,.311.061,10.07,10.07,0,0,1,2.806,1.975,8.422,8.422,0,0,1,.866,1.669c.632,2.2,1.081,4.474,2.591,6.33A8.45,8.45,0,0,0,92.9,95.931a1.763,1.763,0,0,0-.183-.351,13,13,0,0,1-2.288-4.159c-.183-.508-.315-1.034-.462-1.555-.035-.122-.08-.288.08-.34.107-.036.161.1.229.193a8.969,8.969,0,0,0,1,1.189c1,.948,2.148,1.721,3.223,2.578a2.1,2.1,0,0,0,.919.568c-.156-.424-.546-.457-.777-.679-.74-.709-1.419-1.47-2.1-2.237a16.691,16.691,0,0,1-2.209-3.37c-.4-.772-.765-1.571-1.218-2.313A8.969,8.969,0,0,0,85.23,82.2a7.806,7.806,0,0,1-2.507-3.118c.154.039.262.063.369.1a35.2,35.2,0,0,0,5.64,1.442,7.509,7.509,0,0,1,2.614.9c-.117.144-.237.287-.36.429h0l0,0,.115.092h0a2.331,2.331,0,0,0,.508-.371c.663.381,1.291.821,1.922,1.256a19.09,19.09,0,0,1,2.736,2.5,4.589,4.589,0,0,1,1.08,1.781,11.8,11.8,0,0,1,.329,4.314l-.008.235c.046,0,.1-.123.14-.239a9.328,9.328,0,0,0,.338-3.262c-.007-.146-.085-.341.063-.4.107-.047.269.05.4.148a8.272,8.272,0,0,1,3.226,3.748c.045.142.1.294.145.291a3.355,3.355,0,0,0-.382-1.612,12.308,12.308,0,0,0-2.171-2.591,13.476,13.476,0,0,1-1.509-1.569,23.657,23.657,0,0,0-2.391-2.666,1.185,1.185,0,0,0,1.295-.185c.263-.215.16-.432.1-.65-.082-.278-.333-.16-.467-.1a5.742,5.742,0,0,0-1.252.588h0a.264.264,0,0,0-.054-.007c-.211-.193-.422-.387-.642-.572a6.354,6.354,0,0,1-1.264-1.037.791.791,0,0,1,.216-.013,9.413,9.413,0,0,0,1.874.487c-.016.017-.032.032-.048.051-.224.269-.288.449-.176.653.132.238.4.208.631.048a3.574,3.574,0,0,1,.75-.318c.373-.147.452-.009.474.307a.237.237,0,0,0,.159.241,7.665,7.665,0,0,0,.323-.8.514.514,0,0,0,.019-.123,10.613,10.613,0,0,0,3.341-.9,4.651,4.651,0,0,1,2.285-.424,6.64,6.64,0,0,1,1.721.515.289.289,0,0,0-.187-.344,4.592,4.592,0,0,0-2.979-.644c-.835.127-1.642.36-2.458.561a7.227,7.227,0,0,1-5.5-.7c-.313-.176-.444-.289-.034-.544,1.049-.651,2.086-1.325,3.111-2.015a8.653,8.653,0,0,1,.923,2.969,7.451,7.451,0,0,0,0-2.292,4.906,4.906,0,0,0-.32-1.066q.368-.229.743-.434a10.075,10.075,0,0,0,2.038,1.01c.1.037.213.1.157.245l.089.08a.808.808,0,0,1,.49-.021,11.591,11.591,0,0,1,1.98,1.014,9.372,9.372,0,0,1,2.543,2.473,8.755,8.755,0,0,0-3.356-3.548c2.507-.789,4.612.28,6.756,1.131a8.7,8.7,0,0,0-7.065-2.12,6.528,6.528,0,0,0,1.06-1.74q.463-.049.938-.063a.475.475,0,0,0,.44-.164,8.516,8.516,0,0,0-1.217-.218,6.717,6.717,0,0,0,.271-2.555c-.019-.269.661-.318.826-.343a19.568,19.568,0,0,1,2.881-.123c.618-.006,1.235.048,1.856.042a22.339,22.339,0,0,0-4.1-.732,38.134,38.134,0,0,0,4.03-1.083.665.665,0,0,0-.486-.011c-1.675.275-3.357.474-5.051.581-.333.02-.407-.121-.5-.37a10.454,10.454,0,0,0-1.122-2.219c-.354-.506-.359-.523.267-.627a10.327,10.327,0,0,0,1.437-.245,18.188,18.188,0,0,0,4.164-2.148,1.9,1.9,0,0,0,.678-.565,2.974,2.974,0,0,0-.55.162,11.885,11.885,0,0,1-3.146,1.111,10.144,10.144,0,0,1-5.757-.422.494.494,0,0,1-.308-.283c-.317-.642-.636-1.285-.98-1.913-.209-.383-.464-.742-.7-1.111a21.88,21.88,0,0,0,4.659,2.544,11.144,11.144,0,0,0,2.973.848c.016-.03-.271-.217-.337-.246a20.87,20.87,0,0,1-6.137-3.907A10.165,10.165,0,0,0,94.7,58.923c-.079-.031-.146-.07-.123-.149.034-.111.129-.159.241-.2a10.076,10.076,0,0,1,3.293-.962,8.422,8.422,0,0,1,1.845.364c2.117.88,4.171,1.946,6.564,1.922a8.439,8.439,0,0,0,2.66-.332,1.778,1.778,0,0,0-.389-.076,13,13,0,0,1-4.678-.806c-.512-.174-1-.4-1.5-.608-.118-.049-.275-.117-.216-.275.039-.106.18-.063.294-.059m-10.528-4c-1.829,1.409-3.668,2.811-6.04,3.2-.111.019-.22.076-.315-.017-.149-.146.016-.24.078-.329a16.676,16.676,0,0,0,1.824-3.73,13.617,13.617,0,0,0,.77-5.8c.3.173.584.348.877.516a4.168,4.168,0,0,0-.9-.9c0-.057-.008-.115-.013-.172-.019-.21-.044-.418-.073-.626a13.261,13.261,0,0,1,4.2.979,8.553,8.553,0,0,1,3.187,2.23c-.008.02-.015.041-.024.061a11.392,11.392,0,0,1-3.567,4.585m.282,8.643a6.54,6.54,0,0,0,.395.576l-.162-.059a2.749,2.749,0,0,1-.233-.517m1.213,3.261a24.67,24.67,0,0,1-1.975,2.676c-.291-.3-.567-.6-.833-.924a13.533,13.533,0,0,0-.173-2.072,11.03,11.03,0,0,1,2.98.32m-3.432-.3a11.008,11.008,0,0,1,.144,1.457l-.25-.314a2.806,2.806,0,0,1-.725-1.054c.279-.042.555-.069.83-.089m-1.3,4.909a4.088,4.088,0,0,1-.326,1.288,6.9,6.9,0,0,1-2.278,1.688,13.8,13.8,0,0,1-6.6,1.1c-.133-.007-.25-.037-.261-.188a9.884,9.884,0,0,0,5.439-3.66,6.959,6.959,0,0,0,1.177-4.156A8.725,8.725,0,0,0,86,65.372a10.289,10.289,0,0,1,1.207.874,4.535,4.535,0,0,1,1.716,4.011m-7.7,17.33a1.955,1.955,0,0,0-.418.146c-.168-.56-.325-1.086-.486-1.61l0-.007h.006c.463.054.517-.258.675-.56a1.707,1.707,0,0,0,.11-.893c-.009-.357-.046-.93-.462-1.01a1.269,1.269,0,0,0-1.056.382,11.213,11.213,0,0,0-1.317-2.411c-.1-.136-.226-.321-.108-.461.179-.213.282.079.4.142A28.251,28.251,0,0,0,81.8,82.837c.607.237.58.807.6,1.33a4.325,4.325,0,0,1-1.172,3.42m-1.111-2.149a.19.19,0,0,1,0,.033c-.032-.1-.065-.194-.1-.291a2.688,2.688,0,0,1,.3-.619,2.317,2.317,0,0,0-.2.877m-5,8.706c.274.425.571.833.884,1.227a10.242,10.242,0,0,1-2.716.844,36.805,36.805,0,0,1,.167-5.675h0c-.033-.081-.008-.168.071-.164.1.006.039.107.045.167a10.071,10.071,0,0,0,1.548,3.6M73.9,81.461a10.265,10.265,0,0,1,.067,1.463A4.535,4.535,0,0,1,71.9,86.767a4.033,4.033,0,0,1-1.141.528,6.9,6.9,0,0,1-2.741-.721,13.8,13.8,0,0,1-4.985-4.456c-.077-.108-.128-.218-.016-.321a9.886,9.886,0,0,0,6.258,1.952,6.961,6.961,0,0,0,3.978-1.683,8.66,8.66,0,0,0,.644-.606M55.333,88.954c-.2.086-.426.141-.61.238l.086-.135a2.8,2.8,0,0,1,.524-.1M36.305,72.09c-.153-.081-.3-.192-.456-.276l.131-.013a2.86,2.86,0,0,1,.325.289m-2.521-2.313a25.706,25.706,0,0,1,.614-3.292c.414.145.82.313,1.22.495a12.852,12.852,0,0,0,1.054,1.762,11.04,11.04,0,0,1-2.888,1.035m3.283-1.254a11.391,11.391,0,0,1-.759-1.22l.332.159a2.81,2.81,0,0,1,1.112.632c-.225.154-.454.295-.684.429m-1-4.969a4.145,4.145,0,0,1-.273-1.382,6.9,6.9,0,0,1,1.322-2.512,13.8,13.8,0,0,1,5.466-3.85c.123-.051.241-.075.316.057a9.883,9.883,0,0,0-3.315,5.656,6.96,6.96,0,0,0,.741,4.255,8.736,8.736,0,0,0,.533.9,10.25,10.25,0,0,1-1.5-.263,4.535,4.535,0,0,1-3.294-2.86m1.57-16.745a4.075,4.075,0,0,0-.133-.76l.144.148a2.728,2.728,0,0,1-.011.612m-1.246-5.439c-.087.053-.132.217-.271.132s-.126-.215-.085-.348l.322-1.059c-.463.092-.287.689-.792.737-.317-.476-.7-.99-1.014-1.541-.238-.411-.015-.871,0-1.307.022-.571.147-1.135.192-1.707.022-.286.153-.333.356-.219l.3.17a3.4,3.4,0,0,0-.231.844.418.418,0,0,1-.2-.277,2.028,2.028,0,0,0,1.184,2.276c.14.044.285.088.357-.118a2.131,2.131,0,0,0-.5-1.647.53.53,0,0,0-.466-.183c.073-.118.132-.244.2-.358.053-.085.108-.169.162-.253a11.42,11.42,0,0,1,4.156,3.459,6.927,6.927,0,0,1,.492.886c-.6.284-1.2.562-1.814.8-.489.186-.972.387-1.572.625a5.9,5.9,0,0,0,2.571-.572A17.1,17.1,0,0,0,37.93,43.28c-.355-.3-.685-.621-1.03-.928-.26-.232-.347-.428-.027-.714a5.227,5.227,0,0,0,.629-.863,2.731,2.731,0,0,0-1.108.593M38.9,33.29a36.808,36.808,0,0,1,2.314,5.193h0c.065.059.08.148.007.178-.093.039-.081-.08-.113-.131a10.069,10.069,0,0,0-2.957-2.574c-.43-.263-.872-.5-1.324-.72A10.291,10.291,0,0,1,38.9,33.29m-.913,10.035a24.379,24.379,0,0,1,2.934-1.551c.131.385.243.776.342,1.172a13.759,13.759,0,0,0-.75,1.948,11.044,11.044,0,0,1-2.526-1.569m3.453.36.092.4a2.811,2.811,0,0,1,.2,1.265c-.272-.084-.536-.181-.795-.284a10.85,10.85,0,0,1,.508-1.384m2.135,8.231a1.938,1.938,0,0,1,.534.188,1.409,1.409,0,0,0,.059.284c-.011.006-.02.012-.033.019a4.8,4.8,0,0,1-4.54-1.032,18.414,18.414,0,0,1,3.98.542m5.955-.634a6.133,6.133,0,0,1-.938-4.684,2.779,2.779,0,0,1,.92-1.548,4.42,4.42,0,0,1,2.713-1.012,6.257,6.257,0,0,1,5.385,2.305c1.362,1.6,1.958,4.5,1.159,8.8-.732-.084-1.439-.248-2.152-.38a14.01,14.01,0,0,1-3.553-1.171c-.764-.371-1.543-.736-2.266-1.168a20.819,20.819,0,0,1-2.71-1.926,18.487,18.487,0,0,1-2.627-2.632,12.355,12.355,0,0,1,1.647-2.808,3.238,3.238,0,0,1,2.051-1.326c-2.63,3.218-1.322,6.318.406,7.715a.547.547,0,0,0-.033-.165m17.483-25.6c-.063-.5-.151-.988-.262-1.474a10.414,10.414,0,0,1,2.818.384,36.8,36.8,0,0,1-2.616,5.06h0c-.005.087-.066.155-.135.117-.088-.049.012-.113.032-.17a10.069,10.069,0,0,0,.164-3.917m3.549,3.525A8.488,8.488,0,0,1,74.334,28.1c.015.026.031.051.045.077a11.4,11.4,0,0,1,1.359,5.648c-.039,2.309-.091,4.62-1.264,6.719-.054.1-.077.219-.209.236-.207.025-.177-.162-.208-.266a16.667,16.667,0,0,0-1.778-3.752A13.64,13.64,0,0,0,68.2,32.526c.313-.121.622-.236.93-.357a4.2,4.2,0,0,0-1.246.139c-.039-.026-.076-.054-.116-.08-.187-.124-.377-.241-.569-.355a13.2,13.2,0,0,1,3.366-2.664M82.669,39a6.382,6.382,0,0,0,.7.05l-.148.09A2.762,2.762,0,0,1,82.669,39m3.306,1.087a24.673,24.673,0,0,1,.86,3.213c-.412.044-.826.066-1.242.075a13.509,13.509,0,0,0-1.726-1.158,11.04,11.04,0,0,1,2.108-2.129m-2.372,2.5a11.011,11.011,0,0,1,1.23.8h-.4a2.81,2.81,0,0,1-1.276-.091c.141-.244.293-.477.449-.7M82.425,45.5a4.536,4.536,0,0,1,4.206,1.16,4.092,4.092,0,0,1,.8,1.057,6.9,6.9,0,0,1-.1,2.834,13.8,13.8,0,0,1-3.253,5.841c-.089.1-.185.173-.31.086a9.883,9.883,0,0,0,.531-6.534,6.959,6.959,0,0,0-2.515-3.512,8.717,8.717,0,0,0-.8-.534,10.271,10.271,0,0,1,1.436-.4m-.17,3.118a3.238,3.238,0,0,1,.834,2.3c-2.549-3.283-5.862-2.7-7.61-1.33a.55.55,0,0,0,.168.005,6.132,6.132,0,0,1,4.775.133,2.779,2.779,0,0,1,1.3,1.242,4.42,4.42,0,0,1,.38,2.87,6.256,6.256,0,0,1-3.451,4.733c-1.86.971-4.825.906-8.843-.839.245-.7.564-1.352.851-2.02A14.014,14.014,0,0,1,72.6,52.5c.531-.663,1.061-1.341,1.643-1.949a20.771,20.771,0,0,1,2.481-2.213,18.5,18.5,0,0,1,3.142-1.976,12.353,12.353,0,0,1,2.392,2.25M61.639,33.57a11.18,11.18,0,0,1,1.372-.467l-.238.3a2.8,2.8,0,0,1-.866.942c-.1-.258-.188-.516-.268-.775m1.544,2.722a4.535,4.535,0,0,1,3.526-2.57,4.119,4.119,0,0,1,1.371.037,6.9,6.9,0,0,1,2.153,1.848,13.8,13.8,0,0,1,2.536,6.186c.022.131.02.252-.125.3A9.886,9.886,0,0,0,67.869,37.6a6.961,6.961,0,0,0-4.314-.225,8.745,8.745,0,0,0-.959.306,10.259,10.259,0,0,1,.587-1.387m2.373,2.077a3.238,3.238,0,0,1,2.314.779c-4.156-.055-5.768,2.9-5.786,5.119.043-.049.093-.084.109-.128a6.132,6.132,0,0,1,3.082-3.65,2.778,2.778,0,0,1,1.784-.244,4.419,4.419,0,0,1,2.48,1.493,6.256,6.256,0,0,1,1.547,5.649c-.4,2.061-2.3,4.339-6.179,6.393-.4-.627-.711-1.287-1.055-1.93a14.025,14.025,0,0,1-1.3-3.506c-.188-.828-.389-1.665-.5-2.5a20.774,20.774,0,0,1-.188-3.319,18.513,18.513,0,0,1,.407-3.68,12.362,12.362,0,0,1,3.29-.477M63.481,32.5a13.154,13.154,0,0,0-1.966.632,11.037,11.037,0,0,1-.359-3.014,25.216,25.216,0,0,1,3.062,1.331c-.229.361-.477.71-.737,1.051M58.7,31.754a2.812,2.812,0,0,1-.4.293c.128-.149.294-.287.417-.438-.006.048-.012.1-.018.145m-.722,8.907a.349.349,0,0,1-.071-.03,4.8,4.8,0,0,1-2.029-4.19,18.407,18.407,0,0,1,2.063,3.447,1.936,1.936,0,0,1,.2.569,1.108,1.108,0,0,0-.157.2M42.066,66.736A12.373,12.373,0,0,1,40.852,63.6a3.24,3.24,0,0,1,.245-2.43c.871,4.064,4.109,4.979,6.279,4.5a.54.54,0,0,0-.149-.077,6.134,6.134,0,0,1-4.245-2.192,2.779,2.779,0,0,1-.635-1.685,4.419,4.419,0,0,1,.9-2.751A6.256,6.256,0,0,1,48.414,56.2c2.1-.067,4.746,1.281,7.613,4.606-.524.528-1.1.984-1.649,1.465a14.02,14.02,0,0,1-3.125,2.056c-.765.369-1.536.752-2.323,1.05a20.738,20.738,0,0,1-3.193.926,18.535,18.535,0,0,1-3.669.428m4.411,7.183c.036-.128.091-.236.241-.213a9.884,9.884,0,0,0,2.372,6.111,6.961,6.961,0,0,0,3.8,2.063,8.67,8.67,0,0,0,.968.135,10.239,10.239,0,0,1-1.119.992,4.536,4.536,0,0,1-4.29.794,4.1,4.1,0,0,1-1.2-.612A6.9,6.9,0,0,1,46.1,80.594a13.8,13.8,0,0,1,.379-6.676m5.38,11.871a2.805,2.805,0,0,1,1.188-.476c-.02.279-.054.552-.094.823a11.062,11.062,0,0,1-1.447-.176l.354-.171m-1.036.51a13.4,13.4,0,0,0,2.053.283,11.035,11.035,0,0,1-.972,2.854,24.9,24.9,0,0,1-2.181-2.518c.356-.223.724-.426,1.1-.618m8.031-17.616a14.006,14.006,0,0,1-.339,3.725c-.188.828-.369,1.67-.626,2.472a20.772,20.772,0,0,1-1.265,3.074A18.483,18.483,0,0,1,54.657,81.1a12.358,12.358,0,0,1-3.148-.983,3.238,3.238,0,0,1-1.752-1.7c3.726,1.842,6.454-.126,7.428-2.124a.546.546,0,0,0-.154.069,6.133,6.133,0,0,1-4.355,1.964,2.78,2.78,0,0,1-1.715-.549,4.42,4.42,0,0,1-1.594-2.417,6.256,6.256,0,0,1,1.04-5.764c1.251-1.686,3.948-2.921,8.327-3.1.085.735.084,1.465.117,2.192M71.89,63.42a14.007,14.007,0,0,1,3.709-.487c.849,0,1.71-.007,2.549.069a20.77,20.77,0,0,1,3.277.559,18.528,18.528,0,0,1,3.5,1.223,12.357,12.357,0,0,1-.267,3.274,3.239,3.239,0,0,1-1.274,2.084c.977-4.04-1.544-6.268-3.707-6.778.039.052.061.109.1.135a6.134,6.134,0,0,1,2.874,3.816,2.78,2.78,0,0,1-.158,1.794A4.419,4.419,0,0,1,80.492,71.2a6.257,6.257,0,0,1-5.852.254c-1.919-.849-3.717-3.207-4.86-7.436.7-.243,1.408-.4,2.11-.594m4.674,21.317a10.745,10.745,0,0,1-1.071,1.035l.1-.421a2.81,2.81,0,0,1,.372-1.224c.212.2.411.4.6.61m-1.232,1.777a14.114,14.114,0,0,0,1.533-1.437,11.026,11.026,0,0,1,1.578,2.478,23.891,23.891,0,0,1-3.3.124c.048-.39.115-.778.194-1.165m1.809-9.1a1.944,1.944,0,0,1-.386-.385,1.642,1.642,0,0,0,.08-.3h.014a4.8,4.8,0,0,1,3.644,2.9,18.416,18.416,0,0,1-3.352-2.213m7.733-17.084a1.936,1.936,0,0,1-.576.063,1.294,1.294,0,0,0-.172-.218.345.345,0,0,1,.031-.043A4.8,4.8,0,0,1,88.7,59.086a18.417,18.417,0,0,1-3.821,1.24m9.231-19.561a10.334,10.334,0,0,1,1.444,2.451,36.787,36.787,0,0,1-5.583,1.1h0c-.072.05-.162.045-.175-.033-.017-.1.1-.061.153-.081a10.073,10.073,0,0,0,3.168-2.309c.351-.36.682-.737.995-1.127m2.087,5.211a7.169,7.169,0,0,1-.276,2.649,11.33,11.33,0,0,0-2.033-1.969c-.569-.443-1.193-.8-1.907-1.3a15.672,15.672,0,0,1,4.091-.359,9.157,9.157,0,0,1,.124.982m3.289-5.232a.594.594,0,0,1-.222.852,8.872,8.872,0,0,1-1.485.847,12.348,12.348,0,0,1,1.1-2.739,6.042,6.042,0,0,1,.607,1.041m-3.794-1.359a3.131,3.131,0,0,0,1.059.455,11.043,11.043,0,0,0-.885-.714c-.262-.174-.286-.33-.148-.6.453-.885.476-.887,1.371-.4a5.393,5.393,0,0,1,1.4,1.1,8.782,8.782,0,0,0-1.66,3.6c-.091.032-.184.063-.276.093a18.434,18.434,0,0,0-1.988-2.748q.218-.3.425-.6c.233-.344.391-.367.7-.179m-1.167-2.092c.256.014.289.087.18.3-.289.561-.592.654-1.14.339l-1.05-.6a8.109,8.109,0,0,1,2.01-.038M87.858,39.38a5.248,5.248,0,0,0,.7.806,2.731,2.731,0,0,0-.332-1.212c-.032-.1-.182-.176-.068-.293s.238-.074.358-.005l.96.55c.013-.472-.608-.433-.542-.936.534-.2,1.12-.458,1.728-.645.454-.141.853.179,1.274.292.551.149,1.074.4,1.621.567.274.085.29.224.134.4l-.241.265a3.338,3.338,0,0,0-.776-.406A.407.407,0,0,1,93,38.6a2.028,2.028,0,0,0-2.483.648c-.074.127-.149.258.035.374a2.131,2.131,0,0,0,1.718-.123.526.526,0,0,0,.281-.407c.1.107.224.2.327.3.063.062.123.126.185.189a11.411,11.411,0,0,1-4.294,3.277,6.953,6.953,0,0,1-.962.279c-.142-.636-.276-1.274-.366-1.919-.072-.518-.159-1.034-.258-1.672a5.9,5.9,0,0,0-.018,2.633,16.045,16.045,0,0,0-1.146-2.138c.366-.281.757-.529,1.133-.8.283-.2.494-.243.7.132m-8.03,2a28.25,28.25,0,0,0,.775-3.493c.1-.644.659-.745,1.164-.879a4.312,4.312,0,0,1,3.643.415,1.976,1.976,0,0,0,.2.337c-.5.283-.97.549-1.436.816-.075-.383-.37-.379-.68-.462a1.707,1.707,0,0,0-.9.089c-.347.088-.9.249-.884.672a1.315,1.315,0,0,0,.533.908A11.186,11.186,0,0,0,80.2,41.588c-.111.128-.263.291-.426.208-.248-.127.015-.292.05-.419m-2.07-1.51a18.4,18.4,0,0,1-1.414,3.76,1.932,1.932,0,0,1-.31.489,1.309,1.309,0,0,0-.278,0,.333.333,0,0,1-.014-.05,4.8,4.8,0,0,1,2.017-4.2M74.072,27.68a11.246,11.246,0,0,0-2.85.364c-.7.169-1.369.436-2.207.682a15.65,15.65,0,0,1,2.276-3.437,9.109,9.109,0,0,1,.895.541,7.176,7.176,0,0,1,1.886,1.85m-3.993-7.7a.6.6,0,0,1,.529.7,8.861,8.861,0,0,1-.247,1.633,12.329,12.329,0,0,1-1.407-2.507,6.114,6.114,0,0,1,1.125.169m-3.54.248a5.388,5.388,0,0,1,1.8-.42A8.747,8.747,0,0,0,70.07,23.3c-.038.109-.077.218-.117.326a18.01,18.01,0,0,0-3.384-.148q-.1-.361-.21-.718c-.124-.4-.043-.535.294-.657a3.128,3.128,0,0,0,1.015-.545,10.982,10.982,0,0,0-1.11.248c-.3.1-.436.019-.562-.258-.411-.905-.4-.924.541-1.321M64.29,21.719c.171-.192.248-.173.346.045.259.576.143.871-.445,1.1l-1.123.448a8.075,8.075,0,0,1,1.221-1.6m-2.512,6.515a5.248,5.248,0,0,0,1.067-.047,2.733,2.733,0,0,0-1.155-.5c-.1-.035-.251.033-.272-.129s.09-.232.219-.283l1.028-.41c-.361-.3-.718.206-1.07-.159.173-.544.339-1.161.57-1.754.173-.443.671-.556,1.021-.815.46-.339.978-.594,1.453-.916.237-.162.356-.088.393.142l.061.375a3.218,3.218,0,0,0-.794.368.4.4,0,0,1,.073-.387,2.029,2.029,0,0,0-1.038,2.346c.053.137.109.277.315.205a2.131,2.131,0,0,0,.973-1.422.519.519,0,0,0-.139-.467c.168-.009.334-.053.5-.072.068-.008.135-.014.2-.021a11.4,11.4,0,0,1-.109,5.391,6.964,6.964,0,0,1-.371.908c-.571-.279-1.139-.566-1.686-.89-.451-.267-.908-.52-1.468-.841a5.9,5.9,0,0,0,2.047,1.656,14.578,14.578,0,0,0-2.438-.437c.009-.461.058-.92.081-1.38.019-.348.117-.539.54-.467m-5.651,3.289a4.3,4.3,0,0,1,2.628-2.605,1.986,1.986,0,0,0,.352.059c-.088.56-.171,1.086-.251,1.609-.317-.137-.493.085-.739.267a1.708,1.708,0,0,0-.489.755c-.148.325-.365.857-.026,1.11a1.339,1.339,0,0,0,.995.166,11.171,11.171,0,0,0,.145,2.716c.031.166.064.387-.1.463-.254.115-.22-.194-.3-.3a28.26,28.26,0,0,0-2.252-2.781c-.445-.476-.173-.979.036-1.458m-1.7,10.3a9.885,9.885,0,0,0-6.487.943,6.96,6.96,0,0,0-2.861,3.237,8.7,8.7,0,0,0-.332.866,10.254,10.254,0,0,1-.7-1.3,4.536,4.536,0,0,1,.195-4.359,4.067,4.067,0,0,1,.832-1,6.889,6.889,0,0,1,2.784-.535,13.8,13.8,0,0,1,6.421,1.865c.117.065.209.142.153.282m-4.542-7.564c1.783,1.468,3.559,2.946,4.472,5.171.043.1.124.2.054.311-.109.178-.237.038-.338,0a16.678,16.678,0,0,0-4.043-.944,13.607,13.607,0,0,0-5.809.542c.1-.332.212-.656.312-.983a4.157,4.157,0,0,0-.686,1.1l-.176.056c-.193.062-.383.131-.571.2a13.3,13.3,0,0,1,.018-4.326A8.587,8.587,0,0,1,44.569,31.8l.051.007a11.394,11.394,0,0,1,5.267,2.452m-8.47-2.2a7.163,7.163,0,0,1,2.656-.323,11.375,11.375,0,0,0-1.451,2.4c-.305.653-.514,1.342-.846,2.149a15.7,15.7,0,0,1-1.259-3.9,9.166,9.166,0,0,1,.9-.328M35.613,30a.594.594,0,0,1,.88.027,8.9,8.9,0,0,1,1.176,1.286,12.346,12.346,0,0,1-2.963-.461A6.042,6.042,0,0,1,35.613,30M33.6,32.923a5.4,5.4,0,0,1,.735-1.58,8.816,8.816,0,0,0,3.913.808c.046.073.091.148.135.222a18.7,18.7,0,0,0-2.241,2.549q-.335-.145-.675-.278c-.388-.151-.445-.3-.33-.64a3.124,3.124,0,0,0,.208-1.134,11.074,11.074,0,0,0-.5,1.022c-.112.294-.258.353-.552.278-.964-.244-.971-.266-.693-1.247m-.243,2.685c-.043-.253.02-.3.252-.242.612.157.769.432.584,1.036-.113.368-.224.737-.351,1.157a8.079,8.079,0,0,1-.484-1.951m3.675,13.436c-.65.05-.873-.476-1.116-.939a4.318,4.318,0,0,1-.414-3.624,1.945,1.945,0,0,0,.3-.284c.39.427.758.83,1.125,1.228-.39.156-.315.45-.327.779a1.709,1.709,0,0,0,.287.853c.163.318.443.819.852.711a1.3,1.3,0,0,0,.774-.753,11.18,11.18,0,0,0,2.223,1.593c.149.079.342.192.3.369-.068.27-.288.051-.419.044a28.248,28.248,0,0,0-3.578.022M34.156,54.69c2.26-.476,4.524-.94,6.831-.264.108.031.231.027.277.152.071.2-.118.209-.213.262a16.676,16.676,0,0,0-3.262,2.569,13.656,13.656,0,0,0-3.23,4.946c-.184-.272-.362-.542-.545-.809a4.218,4.218,0,0,0,.4,1.164c-.014.037-.03.073-.044.11-.083.22-.158.442-.229.666a13.168,13.168,0,0,1-3.337-2.676,8.439,8.439,0,0,1-1.934-3.463c.027-.024.052-.05.079-.074a11.392,11.392,0,0,1,5.2-2.583m-7.628,8.121a36.755,36.755,0,0,1,5.522,1.417h0c.086-.015.166.03.144.105-.027.1-.113.014-.173.007a10.076,10.076,0,0,0-3.854.718c-.468.172-.926.368-1.373.583a10.458,10.458,0,0,1-.266-2.831m.623-2.877a7.184,7.184,0,0,1,1.373-2.239,11.174,11.174,0,0,0,1,2.733c.322.645.732,1.237,1.158,2a15.621,15.621,0,0,1-3.871-1.454,9.141,9.141,0,0,1,.339-1.037m-5.226,3.413a.594.594,0,0,1,.568-.673,8.8,8.8,0,0,1,1.6-.126A12.342,12.342,0,0,1,22,64.425a6.1,6.1,0,0,1-.077-1.078m2.443,3.626c-.79.6-.812.6-1.408-.232a5.379,5.379,0,0,1-.826-1.712,8.712,8.712,0,0,0,2.986-2.422q.195.02.389.045a17.664,17.664,0,0,0,.619,3.327q-.334.178-.66.369c-.359.21-.511.162-.706-.139A3.128,3.128,0,0,0,24,65.342a11,11,0,0,0,.49,1.026.386.386,0,0,1-.125.605m.544,1.627c-.225-.123-.224-.2-.033-.348.5-.382.816-.334,1.175.186.219.317.438.634.688.994a8.082,8.082,0,0,1-1.83-.833m6.627-.04a2.732,2.732,0,0,0-.224,1.237c-.013.1.088.238-.065.294s-.246-.035-.325-.149l-.629-.91c-.215.42.361.653.085,1.078-.569-.047-1.208-.07-1.837-.163-.47-.069-.692-.529-1.023-.813-.434-.372-.8-.82-1.218-1.211-.211-.2-.165-.327.05-.415l.368-.15a3.133,3.133,0,0,0,.542.681.389.389,0,0,1-.416.033,2.028,2.028,0,0,0,2.519.486c.121-.082.246-.168.13-.353a2.131,2.131,0,0,0-1.6-.629.518.518,0,0,0-.422.237,4.928,4.928,0,0,0-.193-.515c-.017-.048-.033-.1-.049-.146a11.382,11.382,0,0,1,5.271-1.1,6.909,6.909,0,0,1,.952.155c-.143.606-.293,1.211-.483,1.8-.16.5-.305,1-.493,1.619a5.909,5.909,0,0,0,1.159-2.365,13.567,13.567,0,0,0,.127,2.516c-.45.094-.907.15-1.36.229-.343.059-.551.006-.576-.422a5.24,5.24,0,0,0-.285-1.029m8.391,2.69a28.3,28.3,0,0,0-2.206,2.817c-.364.54-.915.388-1.429.292a4.3,4.3,0,0,1-3.144-2,2.033,2.033,0,0,0-.016-.33c.561-.039,1.088-.076,1.612-.114-.036.309.21.428.432.62a1.706,1.706,0,0,0,.845.309c.35.072.916.165,1.088-.221a1.343,1.343,0,0,0-.043-.971,11.156,11.156,0,0,0,2.613-.749c.155-.067.363-.149.474,0,.169.221-.139.257-.226.356m1.216,2.255a18.416,18.416,0,0,1,2.9-2.782,1.939,1.939,0,0,1,.52-.323l.01,0a1,1,0,0,0,.213.094.283.283,0,0,1-.011.1,4.8,4.8,0,0,1-3.629,2.917m-.782,6.321c1.031-2.066,2.074-4.129,4.037-5.517.091-.065.164-.165.291-.122.2.066.09.222.073.33a16.682,16.682,0,0,0-.014,4.152A13.634,13.634,0,0,0,46.6,84.238c-.339-.026-.672-.057-1.005-.08a4.18,4.18,0,0,0,1.2.416c.026.044.05.09.077.134.112.186.228.368.349.547a13.239,13.239,0,0,1-4.2.952,8.521,8.521,0,0,1-3.859-.622c0-.025-.005-.051-.006-.076a11.391,11.391,0,0,1,1.209-5.682M44.3,92.364A10.377,10.377,0,0,1,41.924,90.8a36.794,36.794,0,0,1,4.543-3.432h0c.042-.077.126-.112.172-.047.059.082-.059.1-.1.139a10.079,10.079,0,0,0-1.84,3.462c-.158.476-.291.959-.4,1.446m-4.176-3.79a7.172,7.172,0,0,1-.906-2.493,11.281,11.281,0,0,0,2.707.891c.705.15,1.423.2,2.284.339a15.653,15.653,0,0,1-3.53,2.113,9.217,9.217,0,0,1-.556-.85m-.65,6.161a.594.594,0,0,1-.173-.863,8.856,8.856,0,0,1,.948-1.39,12.342,12.342,0,0,1,.2,2.909,6.051,6.051,0,0,1-.973-.656m4.556-.9c-.059.412-.192.5-.549.465a3.128,3.128,0,0,0-1.151.053,11.028,11.028,0,0,0,1.108.255c.312.042.4.172.4.475-.02.994-.04,1.006-1.059.957A5.4,5.4,0,0,1,41,95.658a8.769,8.769,0,0,0-.067-3.933q.111-.113.226-.222a18.234,18.234,0,0,0,2.988,1.6q-.067.365-.12.732m1.415,1.837c-.237.1-.3.048-.293-.191.015-.631.247-.847.878-.8l1.206.081a8.1,8.1,0,0,1-1.791.912m5.081-4.79a5.256,5.256,0,0,0-.983-.418,2.736,2.736,0,0,0,.828.946c.071.073.241.079.19.234s-.181.171-.32.161l-1.1-.075c.194.43.736.125.9.606-.392.416-.807.9-1.272,1.335-.347.325-.845.212-1.273.294-.561.107-1.139.113-1.706.2-.284.043-.359-.074-.293-.3l.1-.354a3.286,3.286,0,0,0,.875.019.4.4,0,0,1-.23.3,2.028,2.028,0,0,0,1.95-1.667c.011-.146.021-.3-.2-.321A2.133,2.133,0,0,0,46.5,92.7a.523.523,0,0,0-.076.484c-.147-.057-.3-.088-.45-.137-.075-.025-.148-.053-.222-.08a11.407,11.407,0,0,1,2.429-4.82,6.979,6.979,0,0,1,.736-.665c.4.5.794,1.014,1.153,1.55.292.435.595.861.962,1.392a5.9,5.9,0,0,0-1.133-2.378,15.36,15.36,0,0,0,1.986,1.434c-.207.412-.449.805-.67,1.21-.167.305-.338.435-.689.188m6.517-.525a4.308,4.308,0,0,1-3.476,1.217,1.989,1.989,0,0,0-.31-.212c.324-.47.628-.912.929-1.353.231.288.491.159.8.1a1.7,1.7,0,0,0,.767-.47c.274-.23.7-.615.5-.99a1.332,1.332,0,0,0-.852-.583,11.167,11.167,0,0,0,1.044-2.514c.044-.163.109-.377.292-.373.278.006.114.269.137.4a28.256,28.256,0,0,0,.829,3.481c.2.622-.267.958-.662,1.3m2.355-4.326a18.4,18.4,0,0,1-.371-4,1.94,1.94,0,0,1,.067-.585,1.193,1.193,0,0,0,.241-.119.344.344,0,0,1,.043.048,4.8,4.8,0,0,1,.02,4.656m5.463-18.112c.621.392,1.187.844,1.77,1.27a14.022,14.022,0,0,1,2.694,2.6c.528.665,1.072,1.332,1.536,2.035a20.769,20.769,0,0,1,1.607,2.911,18.472,18.472,0,0,1,1.232,3.516,12.339,12.339,0,0,1-2.672,1.8,3.238,3.238,0,0,1-2.422.31c3.762-1.766,3.923-5.127,2.967-7.133a.539.539,0,0,0-.042.163,6.134,6.134,0,0,1-1.178,4.63,2.78,2.78,0,0,1-1.5,1,4.422,4.422,0,0,1-2.884-.259,6.256,6.256,0,0,1-3.86-4.406c-.539-2.025.174-4.9,2.75-8.431M62.049,83.986c.006-.112-.026-.231.085-.3.175-.113.23.068.3.149a16.689,16.689,0,0,0,3.239,2.6,13.584,13.584,0,0,0,5.446,2.015c-.244.262-.488.513-.726.77a4.124,4.124,0,0,0,1.114-.711c.07.01.138.022.208.032.188.025.376.043.564.059a13.338,13.338,0,0,1-1.9,3.909,8.644,8.644,0,0,1-2.822,2.581l-.024-.016a11.392,11.392,0,0,1-3.691-4.486c-.974-2.094-1.937-4.2-1.8-6.6m8.489,12.236a7.139,7.139,0,0,1-2.554-.867A11.443,11.443,0,0,0,70.3,93.84c.558-.456,1.045-.986,1.694-1.57a15.721,15.721,0,0,1-.551,4.042c-.3-.015-.6-.044-.9-.089m4.278,4.388a.594.594,0,0,1-.781-.406,8.936,8.936,0,0,1-.513-1.724,12.366,12.366,0,0,1,2.541,1.729,6.006,6.006,0,0,1-1.247.4M77.9,98.853a5.407,5.407,0,0,1-1.293,1.072,8.856,8.856,0,0,0-3.235-2.438c-.007-.07-.013-.139-.02-.209a19.1,19.1,0,0,0,3.131-1.321q.236.272.481.536c.284.3.271.463.02.719a3.137,3.137,0,0,0-.679.931,10.956,10.956,0,0,0,.893-.7.386.386,0,0,1,.618-.011c.763.638.759.66.084,1.425m1.383-2.314c-.071.247-.149.263-.332.109-.483-.407-.506-.723-.077-1.187l.818-.89a8.1,8.1,0,0,1-.409,1.968m-.054-2.661c-.267.5-.624.959-.913,1.455-.144.249-.283.233-.416.043l-.186-.266a3.522,3.522,0,0,0,.582-.647.441.441,0,0,1,.045.307,2.028,2.028,0,0,0-.08-2.564c-.107-.1-.218-.2-.373-.049a2.131,2.131,0,0,0-.261,1.7.54.54,0,0,0,.35.372c-.1.068-.194.143-.293.206s-.2.127-.305.189A11.436,11.436,0,0,1,75.129,89.7a6.984,6.984,0,0,1-.059-1.032c.676,0,1.352.009,2.026.065.522.043,1.044.071,1.688.115a5.907,5.907,0,0,0-2.565-.6,19.122,19.122,0,0,0,2.265-.613c.193.421.348.858.527,1.286.134.321.128.536-.285.655a5.255,5.255,0,0,0-.941.5,2.734,2.734,0,0,0,1.256-.054c.1-.01.212-.138.3,0s.02.248-.074.35l-.749.815c.457.118.558-.5,1.033-.32.079.566.2,1.194.246,1.828.036.474-.364.792-.568,1.177m7.6-14.883c-2.243-.551-4.484-1.114-6.271-2.724-.084-.075-.2-.124-.183-.257.021-.207.2-.137.306-.144a16.672,16.672,0,0,0,4.053-.9,13.621,13.621,0,0,0,5.015-3.019c.05.34.093.675.144,1.009a4.167,4.167,0,0,0,.143-1.272c.04-.038.082-.074.123-.113.153-.146.3-.3.444-.448a13.257,13.257,0,0,1,1.854,3.894A8.55,8.55,0,0,1,92.7,78.9l-.063.02a11.391,11.391,0,0,1-5.809.071m10.343-3.914A36.8,36.8,0,0,1,92.833,71.4h0c-.084-.025-.136-.1-.084-.157.067-.076.107.036.158.069a10.071,10.071,0,0,0,3.781,1.036c.5.05,1,.073,1.5.075a10.337,10.337,0,0,1-1.015,2.657m-1.757,2.225a7.166,7.166,0,0,1-2.242,1.436,11.33,11.33,0,0,0,.271-2.818c-.008-.721-.119-1.432-.171-2.3A15.677,15.677,0,0,1,96.109,76.6a9.14,9.14,0,0,1-.691.711m6.142-.693a.594.594,0,0,1-.8.358,8.85,8.85,0,0,1-1.587-.632,12.337,12.337,0,0,1,2.826-.848,6.035,6.035,0,0,1-.435,1.122m-.4-6.03c.149.209.113.28-.122.328-.619.124-.881-.055-.976-.68-.058-.38-.118-.762-.185-1.195a8.084,8.084,0,0,1,1.283,1.547m-.907,2.217a3.133,3.133,0,0,0,.3,1.111,11.029,11.029,0,0,0,.006-1.137c-.027-.313.079-.43.377-.49.974-.2.99-.182,1.166.823a5.4,5.4,0,0,1,.019,1.783,8.785,8.785,0,0,0-3.846.946q-.124-.078-.246-.158a18.4,18.4,0,0,0,.908-3.268q.369-.015.736-.043c.415-.032.531.077.574.434m-1.772-5.013c.393.267.392.778.566,1.178.228.524.36,1.086.568,1.621.1.268.006.366-.226.352l-.358-.023a3.329,3.329,0,0,0-.167-.859.407.407,0,0,1,.326.159,2.028,2.028,0,0,0-2.054-1.537c-.145.021-.295.044-.27.261.054.493.693,1.029,1.168,1.266a.526.526,0,0,0,.493-.034c-.019.148-.016.3-.031.444-.01.088-.021.174-.032.261a11.411,11.411,0,0,1-5.239-1.312,6.913,6.913,0,0,1-.818-.577c.408-.507.823-1.009,1.271-1.482.36-.38.709-.769,1.146-1.244a5.905,5.905,0,0,0-2.07,1.629,16.013,16.013,0,0,0,.957-2.231c.448.112.885.262,1.329.388.335.1.5.234.334.631a5.262,5.262,0,0,0-.192,1.051,2.732,2.732,0,0,0,.741-1.015c.056-.085.025-.252.187-.236s.206.139.227.277l.169,1.094c.377-.284-.04-.745.394-1.007.491.291,1.056.59,1.582.948m-3.1-4.245a1.96,1.96,0,0,0-.14.364c-.533-.214-1.034-.416-1.533-.613.252-.3.065-.526-.063-.819a1.708,1.708,0,0,0-.628-.644c-.284-.217-.754-.546-1.076-.272a1.316,1.316,0,0,0-.378.982,11.18,11.18,0,0,0-2.687-.468c-.169-.007-.392-.024-.428-.2-.055-.273.238-.171.359-.222a28.249,28.249,0,0,0,3.214-1.573c.564-.327.993.05,1.413.361a4.311,4.311,0,0,1,1.948,3.108" transform="translate(-10.489 -9.073)" fill="#1e1f1f"/><path d="M385.414,160.432a1.6,1.6,0,0,0-.5-1.141.349.349,0,0,0-.542.047,2.042,2.042,0,0,0-.408,1.346c-.021.172.279.628.353.832.124.346.227.123.6-.059a.853.853,0,0,0,.5-1.024" transform="translate(-282.449 -117.1)" fill="#1e1f1f"/><path d="M378.27,221.1c-.163-.179-.457-.059-.658.1a1.533,1.533,0,0,0-.653,1.4c.006.251.077.414.423.418a1.489,1.489,0,0,0,1.364-1.229c.032-.392-.3-.5-.477-.7" transform="translate(-277.293 -162.583)" fill="#1e1f1f"/><path d="M377.183,268.686c-.162-.065-.311-.079-.316.148a5.831,5.831,0,0,0,.015,1.224,1.169,1.169,0,0,0,1.235,1.032c-.215-.331.13-.546.126-.841a1.8,1.8,0,0,0-1.06-1.561" transform="translate(-277.212 -197.621)" fill="#1e1f1f"/><path d="M378.839,189.506h0c-.361-.062-.58.064-.567.415s.493.63.838.6c.215-.022.451-.132.657.045.12.1.275.109.343,0,.056-.091-.841-1.135-1.271-1.054" transform="translate(-278.264 -139.394)" fill="#1e1f1f"/><path d="M293.614,246.842c-.033-.011-.079.01-.111,0-.437-.177-.677.181-.949.383s-.191.9.058.885a7.514,7.514,0,0,1,.945.07h0c.162-.026.873-1.049.788-1.235-.173-.38-.492-.015-.732-.1" transform="translate(-215.086 -181.525)" fill="#1e1f1f"/><path d="M304.025,275.622c-.047.072-.244.084-.126.208.073.077.2.009.244-.118l0,0-.115-.091" transform="translate(-223.527 -202.753)" fill="#1e1f1f"/><path d="M327.686,279.941h0Z" transform="translate(-241.052 -205.931)" fill="#1e1f1f"/><path d="M335.514,231.263Z" transform="translate(-246.811 -170.122)" fill="#1e1f1f"/><path d="M288.156,27.827c.121.123.665.173.871.243.348.118.238-.1.325-.5a.854.854,0,0,0-.49-1.029,1.6,1.6,0,0,0-1.2-.321.349.349,0,0,0-.3.452,2.043,2.043,0,0,0,.8,1.159" transform="translate(-211.374 -19.264)" fill="#1e1f1f"/><path d="M306.854,50.221a.8.8,0,0,0,.988-.283c.117-.182.178-.435.445-.485.155-.029.256-.147.213-.27-.037-.1-1.412-.05-1.617.336-.273.243-.312.493-.029.7" transform="translate(-225.585 -36.147)" fill="#1e1f1f"/><path d="M332.763,70.965h0a.361.361,0,0,0,.591-.07,1.488,1.488,0,0,0-.11-1.833c-.286-.269-.578-.082-.844-.063-.242.016-.331.321-.328.58a1.533,1.533,0,0,0,.691,1.387" transform="translate(-244.279 -50.698)" fill="#1e1f1f"/><path d="M368.435,102.329a1.169,1.169,0,0,0,1.577-.321h0c-.393-.039-.345-.443-.579-.623a1.8,1.8,0,0,0-1.882-.146c-.152.086-.256.194-.082.339a5.834,5.834,0,0,0,.966.751" transform="translate(-270.251 -74.326)" fill="#1e1f1f"/><path d="M327.387,163.521c.027.082-.086.243.084.228.105-.009.133-.152.06-.264v0l-.143.033" transform="translate(-240.824 -120.263)" fill="#1e1f1f"/><path d="M299.94,149.657c-.4-.1-.319.375-.534.511-.029.019-.041.068-.072.084-.411.231-.281.642-.293.98s.586.712.728.507a7.445,7.445,0,0,1,.644-.7h0a2.489,2.489,0,0,0-.474-1.386" transform="translate(-219.974 -110.08)" fill="#1e1f1f"/><path d="M312.106,111.695Z" transform="translate(-229.592 -82.165)" fill="#1e1f1f"/><path d="M288.771,42.348c-.12.269.177.441.4.577h0c.219.143.536.326.671.063.161-.314-.259-.477-.449-.66-.158-.151-.523-.2-.624.02" transform="translate(-212.406 -31.041)" fill="#1e1f1f"/><path d="M217.314,18.882c-.04.284.311.336.494.163a4.89,4.89,0,0,0,1.491-1.65c.277-.675-.7-.535-.443-1.027.029-.058-.06-.127-.143-.137a.2.2,0,0,0-.109.011c-.448.253-.952.442-1.192,1.038-.379.459-.019,1.046-.1,1.6" transform="translate(-159.802 -11.937)" fill="#1e1f1f"/><path d="M345.272,148.173h0Z" transform="translate(-253.989 -108.999)" fill="#1e1f1f"/></g></svg>