<svg xmlns="http://www.w3.org/2000/svg" width="57" height="57" viewBox="0 0 57 57"><g transform="translate(-781 -373)"><rect width="57" height="57" rx="12" transform="translate(781 373)" fill="#dfd19d"/><path d="M94.666,148.833l-1.946-2.316A8.843,8.843,0,0,0,98,142.9c-4.818,4.54-17.976,4.726-23.072,0,0,0,1.3,2.409,5.189,3.614l-2.131,2.316C71.5,148.74,69,144.385,69,144.385a39.562,39.562,0,0,1,4.262-17.327A15.933,15.933,0,0,1,81.6,124l.278.371c-5.374,1.483-7.691,3.892-7.691,3.892,6.3-4.262,19.273-3.892,24.369,0,.093-.093-3.058-2.594-7.969-3.892l.463-.371a15.933,15.933,0,0,1,8.339,3.058,39.562,39.562,0,0,1,4.262,17.327S101.153,148.74,94.666,148.833Z" transform="translate(723.173 265.084)" fill="#fff"/><circle cx="3" cy="3" r="3" transform="translate(800.692 400.083)" fill="#dfd19d"/><circle cx="3" cy="3" r="3" transform="translate(811.692 400.083)" fill="#dfd19d"/></g></svg>