<svg xmlns="http://www.w3.org/2000/svg" width="57" height="57" viewBox="0 0 57 57"><g transform="translate(0 -0.949)"><rect width="57" height="57" rx="12" transform="translate(0 0.949)" fill="#dfd19d"/><path d="M33.814,13.178A9.506,9.506,0,0,0,31.28,6.572,8.837,8.837,0,0,0,31.039.057S28.975-.6,24.276,2.58a23.347,23.347,0,0,0-12.327,0C7.245-.6,5.178.057,5.178.057A8.847,8.847,0,0,0,4.94,6.572,9.522,9.522,0,0,0,2.4,13.178c0,9.433,5.748,11.543,11.215,12.166a5.241,5.241,0,0,0-1.563,3.291c-1.405.629-4.968,1.717-7.164-2.046a5.174,5.174,0,0,0-3.773-2.537s-2.4-.031-.168,1.5c0,0,1.613.757,2.733,3.6,0,0,1.445,4.393,8.292,2.9.011,2.056.033,4,.033,4.583a1.352,1.352,0,0,1-.131.587H24.343a1.372,1.372,0,0,1-.128-.587c0-.811.028-3.461.028-6.756a5.884,5.884,0,0,0-1.669-4.558c5.482-.609,11.24-2.691,11.24-12.146m-31,12.012c-.054.123-.247.16-.422.076s-.279-.247-.22-.37.245-.161.424-.077.281.249.219.371m1,1.113c-.118.108-.347.057-.5-.115a.375.375,0,0,1-.072-.511c.121-.108.343-.057.5.114s.192.4.07.512m.97,1.417c-.151.105-.4.007-.55-.212s-.151-.482,0-.586.4-.01.55.207.151.485,0,.591m1.33,1.37c-.136.149-.422.11-.633-.094a.473.473,0,0,1-.14-.629c.137-.149.426-.107.637.095s.279.481.136.628m1.834.8c-.059.193-.337.281-.615.2s-.46-.31-.4-.5.336-.286.617-.2.46.309.4.5m1.492.523c-.294.006-.532-.159-.535-.358s.232-.371.526-.377.532.158.532.359-.23.371-.523.376m1.938-.239c-.286.052-.55-.07-.586-.266s.171-.407.457-.459.552.068.588.269-.168.4-.459.456" transform="translate(11.593 10.837)" fill="#fff"/></g></svg>