<svg xmlns="http://www.w3.org/2000/svg" xmlns:xlink="http://www.w3.org/1999/xlink" width="57" height="57" viewBox="0 0 57 57"><defs><clipPath id="a"><rect width="31" height="31" transform="translate(-0.006 -0.006)" fill="none"/></clipPath></defs><g transform="translate(0 -0.949)"><rect width="57" height="57" rx="12" transform="translate(0 0.949)" fill="#dfd19d"/><g transform="translate(13.006 13.955)" clip-path="url(#a)"><path d="M25.4,15.443A9.961,9.961,0,1,0,15.443,25.4,9.96,9.96,0,0,0,25.4,15.443M25.216,4.129a1.6,1.6,0,1,0,1.6,1.6,1.6,1.6,0,0,0-1.6-1.6M7.3,1.825H23.586A5.488,5.488,0,0,1,29.061,7.3V23.586a5.484,5.484,0,0,1-5.476,5.476H7.3a5.489,5.489,0,0,1-5.476-5.476V7.3A5.493,5.493,0,0,1,7.3,1.825M23.586,0H7.3A7.324,7.324,0,0,0,0,7.3V23.586a7.32,7.32,0,0,0,7.3,7.3H23.586a7.315,7.315,0,0,0,7.3-7.3V7.3a7.319,7.319,0,0,0-7.3-7.3M7.55,15.443a7.893,7.893,0,1,1,7.893,7.893A7.9,7.9,0,0,1,7.55,15.443" transform="translate(0.14 -0.038)" fill="#fff" fill-rule="evenodd"/></g></g></svg>