<?xml version="1.0" encoding="utf-8"?>
<!-- Generator: Adobe Illustrator 25.2.1, SVG Export Plug-In . SVG Version: 6.00 Build 0)  -->
<svg version="1.1" id="Layer_1" xmlns="http://www.w3.org/2000/svg" xmlns:xlink="http://www.w3.org/1999/xlink" x="0px" y="0px"
	 viewBox="0 0 57 57" style="enable-background:new 0 0 57 57;" xml:space="preserve">
<style type="text/css">
	.st0{fill:#DFD19D;}
	.st1{fill:#FFFFFF;}
</style>
<g transform="translate(0 -0.949)">
	<path class="st0" d="M12,0.9h33c6.6,0,12,5.4,12,12v33c0,6.6-5.4,12-12,12H12c-6.6,0-12-5.4-12-12v-33C0,6.3,5.4,0.9,12,0.9z"/>
	<path class="st1" d="M15.5,42.8c0.4-0.5,0.8-0.9,1.2-1.4c2.4-2.7,4.7-5.5,7.1-8.2c0.6-0.7,1.2-1.4,1.8-2.1c0,0,0-0.1,0-0.1
		c-0.8-1.2-1.6-2.3-2.4-3.5c-0.8-1.2-1.6-2.4-2.5-3.6c-0.9-1.3-1.7-2.5-2.6-3.8c-0.9-1.3-1.8-2.6-2.6-3.8c0,0,0,0,0,0c0,0,0,0,0.1,0
		c2.5,0,5.1,0,7.6,0c0,0,0.1,0,0.1,0c1.1,1.6,2.2,3.1,3.2,4.7c1.1,1.6,2.2,3.2,3.3,4.8c0,0.1,0.1,0.1,0.2,0.2
		c0.1-0.1,0.2-0.2,0.3-0.3c2.2-2.5,4.4-5.1,6.6-7.6c0.5-0.6,1-1.2,1.5-1.8c0,0,0.1,0,0.1,0c0.7,0,1.5,0,2.2,0c0,0,0,0,0,0
		c0,0,0,0,0,0.1c-1.7,1.9-3.3,3.9-5,5.8c-1.5,1.8-3.1,3.6-4.6,5.3c0,0,0,0.1,0,0.1c1,1.4,1.9,2.8,2.9,4.2c1.3,1.9,2.6,3.8,3.9,5.7
		c1,1.5,2.1,3,3.1,4.6c0.2,0.3,0.4,0.5,0.5,0.8c0,0,0,0,0,0c0,0,0,0,0,0c0,0,0,0-0.1,0c-2.6,0-5.1,0-7.7,0c0,0,0-0.1,0-0.1
		c-0.2-0.2-0.3-0.5-0.5-0.7c-1-1.5-2.1-3-3.1-4.6c-1.1-1.6-2.2-3.2-3.3-4.9c0,0,0-0.1-0.1-0.1c0,0,0,0,0,0.1c-1.2,1.3-2.3,2.7-3.4,4
		c-1.7,2-3.5,4-5.2,6c-0.1,0.1-0.1,0.2-0.2,0.2C17,42.8,16.2,42.8,15.5,42.8z M38.4,41.1C38.4,41.1,38.3,41.1,38.4,41.1
		c-2-2.9-4-5.8-6-8.6c-1.6-2.3-3.2-4.6-4.9-6.9c-1.8-2.5-3.6-5.1-5.3-7.6c0,0-0.1-0.1-0.1-0.1c-1.1,0-2.3,0-3.4,0c0,0,0,0-0.1,0
		c0,0,0,0.1,0,0.1c1.2,1.8,2.5,3.5,3.7,5.3c1.8,2.6,3.7,5.3,5.5,7.9c0.9,1.3,1.9,2.7,2.8,4c1.4,2,2.8,3.9,4.1,5.9
		c0,0,0.1,0.1,0.1,0.1C36,41.1,37.2,41.1,38.4,41.1C38.3,41.1,38.3,41.1,38.4,41.1z"/>
</g>
</svg>
