<svg xmlns="http://www.w3.org/2000/svg" width="57" height="57" viewBox="0 0 57 57"><g transform="translate(0 -0.949)"><rect width="57" height="57" rx="12" transform="translate(0 0.949)" fill="#dfd19d"/><path d="M149.049,164.294a12.836,12.836,0,0,1-3.681,1.009,6.427,6.427,0,0,0,2.818-3.547,12.8,12.8,0,0,1-4.07,1.555,6.413,6.413,0,0,0-11.088,4.389,6.547,6.547,0,0,0,.165,1.459,18.2,18.2,0,0,1-13.212-6.7,6.42,6.42,0,0,0,1.984,8.559,6.4,6.4,0,0,1-2.9-.8v.083a6.413,6.413,0,0,0,5.142,6.285,6.507,6.507,0,0,1-2.895.11,6.413,6.413,0,0,0,5.988,4.45,12.863,12.863,0,0,1-7.961,2.745,13.068,13.068,0,0,1-1.53-.089,18.127,18.127,0,0,0,9.824,2.88c11.792,0,18.238-9.767,18.238-18.237,0-.275-.007-.553-.019-.828a13.03,13.03,0,0,0,3.2-3.316Z" transform="translate(-104.271 -144.255)" fill="#fff"/></g></svg>