<?xml version="1.0" encoding="UTF-8"?>
<svg id="Layer_11" data-name="Layer 11" xmlns="http://www.w3.org/2000/svg" viewBox="0 0 9311.23 4996.13">
  <defs>
    <style>
      .cls-1 {
        fill: #ba5f11;
      }
    </style>
  </defs>
  <path class="cls-1" d="m6068.1,1862.74c-.05,9.83,0,19.35,0,29.02,0,3.59,1.06,5.66-6.02,8.12-3.86,1.34-4.5,4.28-4.18,7.88.18,1.98.07,3.99.02,5.99-.3,11.47-8.47,19.95-19.89,20-32.26.14-64.53.11-96.79,0-9.36-.03-16.63-5.71-18.97-14.75-1.15-4.42-1.29-80.66-.08-90.05,1.29-9.99,9.52-15.2,19.61-15.23,31.96-.1,63.91-.11,95.87.01,11.75.05,19.95,8.42,20.23,20.19.13,5.33-.07,10.66.11,15.99.04,1.29.71,3.43,1.55,3.69,4.7,1.44,8.56,4.83,8.54,9.13Zm-16.78-27.45c1.32-8.97-5.19-15.77-14.61-15.78-30.31-.04-60.63.35-90.94-.19-12.6-.22-18.51,6.84-18.51,18.54,0,23.7.1,47.67.11,71.51,0,1.83.04,3.67.27,5.48,1,7.88,6.55,13.08,14.41,13.1,31.81.07,63.62.08,95.44,0,7.93-.02,13.79-5.68,14.48-13.68.24-2.81-.03-5.67.12-8.5.17-3.13-1.37-4.05-4.24-4.01-6.33.09-12.66.12-18.99-.03-12.34-.31-22.06-9.52-22.78-21.43-.86-14.32,6.79-24.83,20-26.43,7.07-.86,14.29-.71,21.43-.63,4.44.05,5.16-1.67,3.85-5.48-2.56-7.48-7.8-11.17-16.94-11.19-29.15-.07-58.29-.02-87.44-.03-1.5,0-3.12.28-4.45-.2-.98-.35-2.18-1.71-2.21-2.65-.03-.93,1.12-2.42,2.06-2.73,1.52-.5,3.29-.29,4.95-.29,26.65-.01,53.3-.02,79.95,0,8.25,0,16.67-.92,24.03,4.61Zm-24.61,50.72c4.96-.07,8.97-3.96,9.03-8.76.06-4.86-4.32-9.4-9.13-9.47-4.78-.06-9.31,4.48-9.26,9.3.05,5.08,4.16,9,9.36,8.93Z"/>
</svg>